<svg width="20" height="21" viewBox="0 0 20 21" fill="none" xmlns="http://www.w3.org/2000/svg">
<g id="Business / dollar coin">
<path id="Vector" d="M9.16668 7.99992H12.5C12.721 7.99992 12.933 7.91212 13.0893 7.75584C13.2455 7.59956 13.3333 7.3876 13.3333 7.16658C13.3333 6.94557 13.2455 6.73361 13.0893 6.57733C12.933 6.42105 12.721 6.33325 12.5 6.33325H10.8333V5.49992C10.8333 5.2789 10.7456 5.06694 10.5893 4.91066C10.433 4.75438 10.221 4.66659 10 4.66659C9.779 4.66659 9.56704 4.75438 9.41076 4.91066C9.25448 5.06694 9.16668 5.2789 9.16668 5.49992V6.33325C8.50364 6.33325 7.86775 6.59664 7.39891 7.06549C6.93007 7.53433 6.66668 8.17021 6.66668 8.83325C6.66668 9.49629 6.93007 10.1322 7.39891 10.601C7.86775 11.0699 8.50364 11.3333 9.16668 11.3333H10.8333C11.0544 11.3333 11.2663 11.421 11.4226 11.5773C11.5789 11.7336 11.6667 11.9456 11.6667 12.1666C11.6667 12.3876 11.5789 12.5996 11.4226 12.7558C11.2663 12.9121 11.0544 12.9999 10.8333 12.9999H7.50001C7.279 12.9999 7.06704 13.0877 6.91076 13.244C6.75448 13.4003 6.66668 13.6122 6.66668 13.8333C6.66668 14.0543 6.75448 14.2662 6.91076 14.4225C7.06704 14.5788 7.279 14.6666 7.50001 14.6666H9.16668V15.4999C9.16668 15.7209 9.25448 15.9329 9.41076 16.0892C9.56704 16.2455 9.779 16.3333 10 16.3333C10.221 16.3333 10.433 16.2455 10.5893 16.0892C10.7456 15.9329 10.8333 15.7209 10.8333 15.4999V14.6666C11.4964 14.6666 12.1323 14.4032 12.6011 13.9344C13.07 13.4655 13.3333 12.8296 13.3333 12.1666C13.3333 11.5035 13.07 10.8677 12.6011 10.3988C12.1323 9.92998 11.4964 9.66658 10.8333 9.66658H9.16668C8.94567 9.66658 8.73371 9.57879 8.57743 9.42251C8.42114 9.26623 8.33335 9.05427 8.33335 8.83325C8.33335 8.61224 8.42114 8.40028 8.57743 8.244C8.73371 8.08772 8.94567 7.99992 9.16668 7.99992ZM10 1.33325C8.18702 1.33325 6.41474 1.87087 4.90729 2.87811C3.39984 3.88536 2.22492 5.317 1.53112 6.99199C0.837315 8.66698 0.655785 10.5101 1.00948 12.2882C1.36318 14.0664 2.23622 15.6997 3.5182 16.9817C4.80018 18.2637 6.43353 19.1368 8.21169 19.4904C9.98985 19.8441 11.833 19.6626 13.5079 18.9688C15.1829 18.275 16.6146 17.1001 17.6218 15.5926C18.6291 14.0852 19.1667 12.3129 19.1667 10.4999C19.1667 8.06877 18.2009 5.73719 16.4818 4.01811C14.7627 2.29902 12.4312 1.33325 10 1.33325ZM10 17.9999C8.51665 17.9999 7.06661 17.5601 5.83324 16.7359C4.59987 15.9118 3.63857 14.7405 3.07092 13.37C2.50326 11.9996 2.35474 10.4916 2.64412 9.03674C2.93351 7.58188 3.64782 6.24551 4.69671 5.19662C5.74561 4.14772 7.08198 3.43342 8.53684 3.14403C9.99169 2.85464 11.4997 3.00316 12.8701 3.57082C14.2406 4.13848 15.4119 5.09977 16.236 6.33314C17.0601 7.56651 17.5 9.01656 17.5 10.4999C17.5 12.489 16.7098 14.3967 15.3033 15.8032C13.8968 17.2097 11.9891 17.9999 10 17.9999Z" fill="white"/>
</g>
</svg>
