<svg width="24" height="24" viewBox="0 0 24 24" fill="none" xmlns="http://www.w3.org/2000/svg">
<g id="User Interface / Fork">
<path id="Vector" d="M18.2398 2C17.9852 2 17.7411 2.10536 17.561 2.29289C17.381 2.48043 17.2798 2.73478 17.2798 3V8.46L16.3198 9.13V3C16.3198 2.73478 16.2187 2.48043 16.0387 2.29289C15.8586 2.10536 15.6145 2 15.3598 2C15.1052 2 14.8611 2.10536 14.681 2.29289C14.501 2.48043 14.3998 2.73478 14.3998 3V9.13L13.4398 8.46V3C13.4398 2.73478 13.3387 2.48043 13.1587 2.29289C12.9786 2.10536 12.7345 2 12.4798 2C12.2252 2 11.9811 2.10536 11.801 2.29289C11.621 2.48043 11.5198 2.73478 11.5198 3V9C11.5207 9.16471 11.5605 9.32665 11.6359 9.47145C11.7113 9.61625 11.8198 9.73941 11.9518 9.83L14.3998 11.54V21C14.3998 21.2652 14.501 21.5196 14.681 21.7071C14.8611 21.8946 15.1052 22 15.3598 22C15.6145 22 15.8586 21.8946 16.0387 21.7071C16.2187 21.5196 16.3198 21.2652 16.3198 21V11.54L18.7678 9.83C18.8999 9.73941 19.0084 9.61625 19.0838 9.47145C19.1592 9.32665 19.199 9.16471 19.1998 9V3C19.1998 2.73478 19.0987 2.48043 18.9187 2.29289C18.7386 2.10536 18.4945 2 18.2398 2ZM8.63984 2C7.3668 2 6.14591 2.52678 5.24573 3.46447C4.34556 4.40215 3.83984 5.67392 3.83984 7V13C3.83984 13.2652 3.94099 13.5196 4.12102 13.7071C4.30106 13.8946 4.54524 14 4.79984 14H7.67984V21C7.67984 21.2652 7.78099 21.5196 7.96102 21.7071C8.14106 21.8946 8.38524 22 8.63984 22C8.89445 22 9.13863 21.8946 9.31867 21.7071C9.4987 21.5196 9.59984 21.2652 9.59984 21V3C9.59984 2.73478 9.4987 2.48043 9.31867 2.29289C9.13863 2.10536 8.89445 2 8.63984 2ZM7.67984 12H5.75984V7C5.75953 6.37935 5.94402 5.77387 6.2879 5.26702C6.63177 4.76016 7.11809 4.37688 7.67984 4.17V12Z" fill="black"/>
</g>
</svg>
