<svg width="116" height="141" viewBox="0 0 116 141" fill="none" xmlns="http://www.w3.org/2000/svg">
<g id="logo" clip-path="url(#clip0_665_7428)">
<path id="Vector" d="M3.14806 72.7015C6.88877 64.4509 15.7181 44.9873 18.313 39.4359C18.5258 38.9877 18.8303 38.6153 19.1964 38.3556C19.5625 38.0958 19.9776 37.9577 20.4006 37.9548C35.6585 37.7483 82.872 37.7985 95.5964 37.9548C96.0188 37.9572 96.4334 38.095 96.7991 38.3543C97.1648 38.6137 97.4689 38.9857 97.6812 39.4335C100.954 46.435 114.156 75.5906 114.536 76.4277C114.536 77.1336 114.415 78.8133 114.362 80.2404C114.352 80.4116 114.315 80.5786 114.251 80.7314C114.187 80.8841 114.099 81.0194 113.991 81.1288C113.883 81.2383 113.758 81.3197 113.624 81.3681C113.49 81.4165 113.349 81.4309 113.21 81.4104C112.342 88.5304 111.429 95.6409 110.471 102.742C110.404 103.199 110.207 103.612 109.915 103.908C109.623 104.204 109.255 104.364 108.876 104.359H7.1193C6.74056 104.364 6.37267 104.204 6.08083 103.908C5.78898 103.612 5.592 103.199 5.52479 102.742C4.56549 95.6455 3.65511 88.5391 2.79364 81.4226C2.66133 81.4226 2.51298 81.4226 2.46808 81.4226C2.25924 81.4306 2.05611 81.3384 1.90192 81.1655C1.74774 80.9926 1.65468 80.7527 1.64256 80.497C1.60247 79.3005 1.50704 77.8626 1.47216 76.9621C1.45934 76.6208 1.52476 76.2819 1.661 75.9838L3.14806 72.7015Z" fill="white"/>
<path id="Vector_2" d="M2.68352 80.2398C2.61189 80.231 2.53968 80.232 2.46822 80.2428C2.85673 79.8456 2.48226 80.3902 2.52957 80.2683L2.60494 80.4969L2.59692 80.2698C2.59714 80.1141 2.59058 79.9586 2.57728 79.8038C2.5448 79.1107 2.50471 78.4185 2.47023 77.7259C2.40902 77.3334 2.42191 76.929 2.50792 76.5436C2.55625 76.4218 2.60979 76.3032 2.66829 76.1882L3.64977 74.0228C4.74913 71.5977 5.84916 69.1726 6.94985 66.7475C9.75986 60.5523 12.5761 54.3618 15.3987 48.1761C16.4705 45.8296 17.5464 43.4864 18.6262 41.1465C18.8098 40.7498 18.9778 40.3276 19.1875 39.95C19.5724 39.2515 20.1353 39.1394 20.7736 39.1311C21.7022 39.1193 22.6307 39.1091 23.5593 39.1006C28.5948 39.0534 33.6313 39.0265 38.6689 39.02C44.9656 39.0023 51.2623 38.9951 57.5588 38.9983C63.8096 38.9983 70.0608 39.0075 76.3125 39.0259C81.3011 39.04 86.2898 39.0629 91.2785 39.0947C92.1699 39.1012 93.0613 39.1088 93.9527 39.1173C94.785 39.1252 95.9858 38.8749 96.6213 39.658C97.1525 40.3118 97.4921 41.4056 97.8614 42.2059C98.3596 43.2874 98.8566 44.3688 99.3525 45.4503C102.021 51.2745 104.677 57.1068 107.323 62.9471C109.32 67.3451 111.316 71.7445 113.31 76.1455C113.443 76.4378 113.576 76.7304 113.707 77.0234L113.576 76.4276C113.57 77.1596 113.519 77.8915 113.48 78.6215C113.456 79.0812 113.408 79.5521 113.411 80.0132C113.411 80.1818 113.482 80.226 113.324 80.2393C112.095 80.3421 112.086 82.7026 113.324 82.5989C113.854 82.5838 114.359 82.3181 114.733 81.8574C115.107 81.3968 115.321 80.7767 115.331 80.1267C115.403 78.9494 115.52 77.7283 115.499 76.5471C115.435 75.9796 115.257 75.4405 114.982 74.9775C114.151 73.1445 113.321 71.3118 112.489 69.4792C109.73 63.3977 106.968 57.3191 104.202 51.2436C102.932 48.4579 101.659 45.6723 100.384 42.8867C99.9143 41.8652 99.4428 40.8439 98.9692 39.8227C98.7605 39.3282 98.5244 38.8519 98.2623 38.3971C97.9444 37.9006 97.5401 37.4973 97.079 37.2166C96.6178 36.936 96.1113 36.7851 95.5965 36.7749C91.3118 36.5783 87.0005 36.7056 82.7133 36.6879C76.4684 36.6624 70.2232 36.6471 63.9777 36.6422C57.2218 36.6353 50.4659 36.6373 43.7102 36.6481C37.9768 36.6583 32.2435 36.6807 26.5102 36.7154C24.4337 36.7302 22.31 36.598 20.2384 36.7828C19.7176 36.8224 19.2108 37.0059 18.756 37.3195C18.3011 37.6331 17.91 38.0687 17.6119 38.5938C17.3713 39.0224 17.1744 39.4988 16.9644 39.952C16.4565 41.0463 15.9519 42.142 15.4504 43.2392C12.5509 49.5609 9.66631 55.8919 6.79669 62.2323C5.49393 65.1008 4.19223 67.9705 2.89161 70.8413L1.52282 73.8591C1.11668 74.7553 0.556975 75.7114 0.51167 76.7575C0.499843 78.0072 0.556233 79.2564 0.680463 80.4969C0.775083 81.863 1.60862 82.6073 2.68513 82.5994C3.92321 82.59 3.92561 80.2305 2.68513 80.2398H2.68352Z" fill="#211715"/>
<path id="Vector_3" d="M70.1092 49.0991L69.8979 49.923C69.8979 49.923 68.6285 55.1666 75.4444 55.7398C82.2602 56.313 90.7825 56.1709 90.7825 56.1709C94.6583 56.1709 97.6116 54.5704 98.2979 53.6752C98.7791 53.0474 98.8192 52.0805 98.7654 51.2212C98.7514 50.588 98.6004 49.9706 98.3278 49.4324C98.0552 48.8942 97.6709 48.4545 97.2142 48.1582C97.6796 47.8061 98.0271 47.2619 98.1941 46.6235C98.286 46.1382 98.2614 45.6306 98.1231 45.162C97.5691 43.4651 96.3667 42.3168 95.0075 41.5661C94.5725 41.3258 94.1118 41.1503 93.6984 40.8583C92.905 40.2984 92.3481 39.3604 91.7499 38.51C91.1517 37.6596 90.4308 36.8357 89.5275 36.6504C89.1366 36.5847 88.7387 36.6281 88.3634 36.7774C87.9881 36.9267 87.6451 37.178 87.3601 37.5126C86.7922 38.1924 86.4261 39.0857 86.3201 40.0501C84.6879 39.1997 74.3723 34.7076 72.117 41.2619L70.1092 49.0991Z" fill="#74C66D"/>
<path id="Vector_4" d="M72.9487 41.8551C73.0497 41.5646 73.1704 41.2851 73.3095 41.0194C73.4149 40.7996 73.5491 40.6026 73.7069 40.4364C73.7919 40.3337 73.8809 40.2368 73.9727 40.1415C74.0897 40.021 73.8656 40.2349 73.9895 40.1248C74.038 40.082 74.0865 40.0402 74.1363 39.9994C74.3501 39.8268 74.5744 39.6743 74.807 39.5432C74.8323 39.529 74.9762 39.4577 74.8307 39.5295C74.888 39.5014 74.9461 39.4734 75.0043 39.4488C75.1246 39.3997 75.2408 39.3505 75.3607 39.3053C75.607 39.217 75.8569 39.1443 76.1092 39.0875C76.3175 39.0343 76.5287 39 76.7411 38.9848C77.0306 38.9543 77.3213 38.9391 77.6119 38.9356C79.7607 38.9691 81.8919 39.4157 83.9278 40.259C84.3494 40.4179 84.7679 40.5878 85.1836 40.7687C85.3493 40.8415 85.5142 40.9165 85.6783 40.9939C85.7822 41.043 86.2104 41.2598 85.8351 41.0651C86.3455 41.3296 87.1313 41.1954 87.2488 40.3602C87.4436 38.9745 88.3654 37.2416 89.7097 37.9303C90.9454 38.563 91.5997 40.3661 92.6193 41.3621C93.7419 42.4598 95.2289 42.7282 96.2942 43.9625C96.7188 44.4086 97.0437 44.9799 97.2384 45.6226C97.4313 46.4361 97.0159 46.8599 96.5348 47.3229C96.3556 47.545 96.2551 47.8448 96.2551 48.1572C96.2551 48.4695 96.3556 48.7693 96.5348 48.9914C96.7182 49.2055 96.9618 49.325 97.2152 49.325C97.4685 49.325 97.7121 49.2055 97.8955 48.9914C98.4838 48.4978 98.917 47.7727 99.1232 46.9361C99.2939 45.9912 99.18 45.0026 98.8025 44.1528C98.1444 42.6854 97.1282 41.5074 95.8965 40.784C95.2502 40.3769 94.5041 40.1592 93.9143 39.6258C93.3819 39.068 92.9021 38.439 92.4837 37.7504C91.5059 36.3519 90.2273 35.2036 88.6488 35.4916C86.8996 35.8102 85.6819 37.6708 85.3929 39.733L86.8065 39.028C85.1235 38.1678 83.3733 37.5202 81.5832 37.0952C79.2225 36.522 76.5242 36.1553 74.2337 37.2967C72.9276 37.8979 71.8684 39.108 71.2872 40.663C71.1664 40.9354 71.1348 41.2541 71.1989 41.5541C71.2631 41.854 71.4181 42.1127 71.6324 42.2774C71.8532 42.433 72.115 42.4759 72.3613 42.3967C72.6077 42.3175 72.8187 42.1226 72.9487 41.8541V41.8551Z" fill="#211715"/>
<path id="Vector_5" d="M93.8636 48.1096C93.7261 48.0884 94.0409 48.1509 94.0854 48.1587C94.2093 48.1877 94.3323 48.2202 94.455 48.257C94.7998 48.3554 95.1422 48.4689 95.4802 48.5982C96.0562 48.7628 96.6028 49.055 97.0932 49.4604C97.4675 49.8479 97.7115 50.3917 97.778 50.9868C97.8533 51.5201 97.9163 52.3573 97.6272 52.8258C97.5999 52.8695 97.551 52.9015 97.5278 52.9467C97.4324 53.1345 97.634 52.8754 97.5133 52.9669C97.3638 53.0804 97.2207 53.2043 97.0667 53.311C96.6919 53.5709 96.2976 53.7859 95.8892 53.953C94.6622 54.4845 93.3829 54.8135 92.0851 54.9312C91.1525 55.0182 90.2119 55.033 89.2786 55.0998C88.0473 55.1878 88.0393 57.5479 89.2786 57.4594C91.8445 57.2755 94.4105 57.2205 96.833 56.0284C97.8128 55.5467 98.9507 54.9469 99.427 53.7057C99.7416 52.7765 99.8395 51.7584 99.7098 50.765C99.58 49.7715 99.2277 48.8418 98.6921 48.0796C98.0335 47.3074 97.2262 46.7522 96.3454 46.4657C95.5402 46.1255 94.709 45.886 93.8644 45.751C93.6097 45.7527 93.3657 45.8775 93.1856 46.0984C93.0054 46.3193 92.9036 46.6184 92.9022 46.9308C92.9082 47.2413 93.0115 47.5372 93.1907 47.7568C93.3699 47.9765 93.6111 48.1032 93.8644 48.1106L93.8636 48.1096Z" fill="#211715"/>
<path id="Vector_6" d="M48.5823 40.7275C47.2191 49.191 46.0223 57.6968 44.8845 66.2094C44.5429 68.7656 44.2108 71.323 43.8882 73.8815C43.8284 74.1829 43.8646 74.5009 43.9895 74.7706C44.1144 75.0403 44.3185 75.2415 44.5601 75.3331C44.8062 75.4138 45.0683 75.3726 45.2899 75.2183C45.5114 75.0641 45.6745 74.8092 45.7441 74.5088C46.8766 65.4922 48.1219 56.4973 49.48 47.524C49.7903 45.4653 50.1097 43.4089 50.4382 41.3547C50.4995 41.0533 50.4638 40.7345 50.3387 40.4643C50.2135 40.1942 50.0084 39.9934 49.7659 39.9036C49.5199 39.8233 49.258 39.8647 49.0367 40.0188C48.8153 40.1729 48.6521 40.4273 48.5823 40.7275Z" fill="#211715"/>
<path id="Vector_7" d="M35.7252 55.0749C35.3688 51.9288 33.2683 50.957 31.2693 51.4864C29.5581 52.0168 27.8613 53.4099 28.2374 56.5728C28.5016 58.7809 30.0143 60.5477 32.7836 59.8973C34.3155 59.538 36.0404 57.8528 35.7252 55.0749Z" fill="#F2635F"/>
<path id="Vector_8" d="M36.6533 54.7611C36.5313 53.5918 36.0911 52.5072 35.4039 51.6828C34.7167 50.8583 33.8226 50.3424 32.8665 50.2185C31.2195 49.9687 29.2465 50.7592 28.1804 52.3671C27.5942 53.2994 27.2578 54.4314 27.2174 55.6075C27.1771 56.7837 27.4348 57.9463 27.9551 58.9356C29.1238 61.0406 31.2628 61.5582 33.1985 60.9934C34.2695 60.7003 35.2158 59.9362 35.8586 58.8456C36.5013 57.7551 36.7959 56.4136 36.6866 55.0748C36.6789 54.7648 36.5751 54.4702 36.3963 54.2509C36.2174 54.0317 35.9771 53.9043 35.7243 53.895C35.4696 53.8968 35.2257 54.0217 35.0456 54.2425C34.8654 54.4634 34.7636 54.7624 34.7621 55.0748C34.8137 55.4956 34.8097 55.9238 34.7501 56.343C34.728 56.461 34.7012 56.578 34.6699 56.693C34.6675 56.7014 34.5464 57.0519 34.6246 56.8494C34.5432 57.0557 34.4494 57.2544 34.3439 57.4437C34.19 57.7253 34.4586 57.3178 34.2669 57.5587C34.2244 57.6123 34.1868 57.6693 34.1431 57.7229C34.0797 57.8025 34.0141 57.879 33.9462 57.9525C33.9342 57.9652 33.7024 58.183 33.8604 58.0434C33.7403 58.15 33.6156 58.2485 33.4867 58.3383C33.4106 58.3914 33.3312 58.4367 33.2542 58.4858C33.0978 58.59 33.3456 58.4607 33.1271 58.5527C32.6477 58.7695 32.1388 58.8714 31.628 58.8525C31.5402 58.8525 31.4528 58.8471 31.3654 58.8402C31.3143 58.8366 31.2634 58.8317 31.2126 58.8255C31.3027 58.8442 31.29 58.842 31.1746 58.8191C31.0057 58.7828 30.8388 58.7335 30.675 58.6716C30.604 58.6436 30.5339 58.6136 30.4645 58.5807C30.6565 58.6726 30.4007 58.5384 30.3795 58.5247C30.2572 58.4437 30.1384 58.3551 30.0235 58.2592C29.8106 58.0871 30.1438 58.416 29.9637 58.1973C29.8884 58.1048 29.8082 58.0198 29.736 57.923C29.7003 57.8738 29.6666 57.8246 29.6322 57.7755C29.7769 57.9829 29.6153 57.7411 29.5949 57.7032C29.5167 57.5539 29.4452 57.3995 29.3808 57.2407C29.3555 57.1812 29.3006 56.9781 29.3675 57.2107C29.3407 57.1182 29.313 57.0273 29.2894 56.9334C29.2412 56.7447 29.2041 56.552 29.1783 56.3568C29.1557 56.1449 29.1452 55.9314 29.1466 55.7177C29.1466 55.6297 29.1466 55.5408 29.1522 55.4528C29.1522 55.4528 29.1895 55.0408 29.1615 55.2665C29.192 55.0552 29.2341 54.8466 29.2874 54.6422C29.2998 54.5906 29.3784 54.3679 29.3062 54.563C29.3547 54.4326 29.4096 54.3058 29.4706 54.1835C29.5079 54.1083 29.548 54.0361 29.5909 53.9638C29.6819 53.805 29.4413 54.1491 29.6241 53.9146C29.742 53.7672 29.8587 53.6197 29.985 53.4811C30.0118 53.4511 30.1293 53.3498 29.9886 53.4742C30.0568 53.4137 30.1261 53.3552 30.1975 53.2992C30.3404 53.1878 30.4885 53.0865 30.6409 52.9959C30.6638 52.9821 30.9216 52.844 30.7211 52.9467C30.8013 52.9069 30.8795 52.8705 30.9597 52.8356C31.0933 52.7776 31.228 52.7253 31.3638 52.6788C31.4476 52.6498 31.531 52.6242 31.616 52.6026C31.6364 52.5977 31.9335 52.5397 31.7194 52.5746C31.8972 52.5464 32.0762 52.532 32.2555 52.5313C32.4313 52.5291 32.6072 52.5404 32.7819 52.5652C32.5582 52.5328 32.8392 52.5834 32.8677 52.5903C32.9796 52.6188 33.0902 52.6532 33.1993 52.6945C33.2534 52.7152 33.3063 52.7398 33.3596 52.7604C33.4635 52.8096 33.4655 52.8096 33.3648 52.7604C33.4162 52.7889 33.4671 52.8184 33.5168 52.8504C33.6679 52.9439 33.8119 53.0538 33.947 53.1787C33.781 53.0224 33.9975 53.2446 34.014 53.2633C34.0881 53.3493 34.1567 53.4403 34.2244 53.5332C34.3339 53.6806 34.1102 53.309 34.2645 53.5951C34.3327 53.7209 34.3997 53.8468 34.4586 53.9795C34.6369 54.4227 34.7513 54.9003 34.7966 55.3913C34.8665 55.6919 35.0302 55.9465 35.2522 56.1001C35.4741 56.2538 35.7365 56.2941 35.9825 56.2123C36.2249 56.1221 36.4296 55.9212 36.5545 55.6511C36.6794 55.381 36.7147 55.0623 36.6533 54.7611Z" fill="#211715"/>
<path id="Vector_9" d="M37.4111 46.6796C37.4475 46.6331 37.4865 46.5897 37.5278 46.5498L37.3334 46.7342C37.4248 46.6514 37.5238 46.5821 37.6285 46.5277L37.3987 46.6462C37.586 46.5539 37.7822 46.4916 37.9825 46.4609L37.7267 46.5031C37.9823 46.4636 38.2409 46.4636 38.4965 46.5031L38.2407 46.4609C38.4365 46.4915 38.6283 46.5525 38.8116 46.6423L38.5819 46.5233C38.6814 46.575 38.7756 46.641 38.8625 46.7199L38.6677 46.5351C38.7185 46.584 38.765 46.6394 38.8064 46.7003L38.6556 46.4614C38.6653 46.4761 38.6745 46.4913 38.6833 46.5071C38.8157 46.7662 39.0198 46.9581 39.2582 47.0478C39.4427 47.1103 39.6383 47.104 39.8198 47.0295C40.0013 46.9551 40.1606 46.8159 40.2773 46.6299C40.394 46.4439 40.4628 46.2194 40.4749 45.9851C40.487 45.7509 40.4418 45.5176 40.3452 45.315C40.0783 44.8611 39.7025 44.5206 39.2703 44.3412C38.9255 44.194 38.5633 44.1176 38.1982 44.1151C37.8096 44.079 37.419 44.1399 37.0501 44.2939C36.6812 44.4479 36.3415 44.6919 36.0516 45.0112C35.8736 45.2331 35.7742 45.5322 35.7753 45.8434C35.7763 46.1547 35.8776 46.4528 36.0571 46.6729C36.2366 46.8929 36.4797 47.0171 36.7336 47.0184C36.9874 47.0197 37.2314 46.8979 37.4123 46.6796H37.4111Z" fill="#211715"/>
<path id="Vector_10" d="M21.286 63.1353C21.3224 63.0886 21.3615 63.0452 21.4031 63.0055L21.2082 63.1898C21.2997 63.1069 21.3989 63.0376 21.5037 62.9834L21.274 63.1023C21.4611 63.0098 21.6572 62.9474 21.8573 62.9165L21.6015 62.9588C21.8573 62.9192 22.116 62.9192 22.3717 62.9588L22.1159 62.9165C22.3117 62.9472 22.5035 63.0082 22.6869 63.0979L22.4567 62.9789C22.5563 63.0307 22.6505 63.0967 22.7374 63.1756L22.5429 62.9907C22.5937 63.0397 22.64 63.095 22.6813 63.1559L22.5309 62.917C22.5405 62.9317 22.5497 62.947 22.5582 62.9627C22.691 63.2215 22.8951 63.4134 23.1335 63.5034C23.3838 63.5848 23.6501 63.542 23.8748 63.3845C24.0929 63.224 24.2511 62.9652 24.3157 62.6635C24.3802 62.3619 24.3458 62.0412 24.22 61.7701C23.9529 61.3154 23.5765 60.9745 23.1435 60.7948C22.7987 60.6477 22.4365 60.5713 22.0714 60.5687C21.6828 60.533 21.2922 60.5942 20.9234 60.7486C20.5545 60.9029 20.215 61.1473 19.9252 61.4668C19.7472 61.6887 19.6479 61.9878 19.6489 62.2991C19.65 62.6103 19.7513 62.9084 19.9308 63.1285C20.1103 63.3486 20.3534 63.4728 20.6072 63.474C20.8611 63.4753 21.1051 63.3535 21.286 63.1353Z" fill="#211715"/>
<path id="Vector_11" d="M36.857 69.401C36.8933 69.3545 36.9323 69.3111 36.9736 69.2713L36.7792 69.4556C36.8707 69.3727 36.9699 69.3034 37.0747 69.2491L36.8445 69.3666C37.0318 69.2744 37.228 69.2121 37.4283 69.1813L37.1725 69.2236C37.4282 69.184 37.687 69.184 37.9427 69.2236L37.6869 69.1813C37.8827 69.2132 38.0744 69.2755 38.2574 69.3666L38.0277 69.2477C38.1273 69.2993 38.2215 69.3653 38.3083 69.4443L38.1135 69.2595C38.1645 69.3081 38.211 69.3635 38.2522 69.4246L38.1019 69.1857C38.1115 69.2005 38.1203 69.2157 38.1291 69.2314C38.2615 69.4905 38.4656 69.6825 38.7041 69.7722C38.8886 69.8348 39.0842 69.8286 39.2658 69.7542C39.4474 69.6798 39.6068 69.5407 39.7235 69.3546C39.8403 69.1685 39.9091 68.944 39.9212 68.7097C39.9333 68.4754 39.8881 68.242 39.7914 68.0394C39.5243 67.5846 39.1479 67.2436 38.7149 67.0641C38.37 66.9169 38.0076 66.8405 37.6424 66.838C37.2538 66.8019 36.8632 66.8628 36.4943 67.0168C36.1254 67.1708 35.7857 67.4148 35.4958 67.7341C35.3178 67.956 35.2185 68.2551 35.2195 68.5663C35.2205 68.8776 35.3218 69.1757 35.5013 69.3958C35.6808 69.6158 35.924 69.74 36.1778 69.7413C36.4316 69.7426 36.6756 69.6208 36.8566 69.4025L36.857 69.401Z" fill="#211715"/>
<path id="Vector_12" d="M74.5848 55.7224C76.4761 56.2831 78.4678 56.0148 80.2147 54.9639C80.9865 54.5105 81.6692 53.8578 82.2159 53.0505C82.7626 52.2432 83.1604 51.3005 83.3821 50.287C83.8271 48.5298 83.8503 46.6527 83.449 44.8797C83.2915 44.0971 82.6696 42.5009 81.8678 42.0531C81.5098 41.8643 81.1198 41.7849 80.7313 41.8218C80.3427 41.8587 79.9673 42.0108 79.6374 42.265C77.9074 43.8447 76.2639 45.562 74.7175 47.4059C73.6364 48.6762 72.6373 50.0476 71.7294 51.5076C71.5645 51.7442 71.4545 52.0308 71.4111 52.3374C71.3676 52.644 71.3923 52.9593 71.4824 53.2503C71.5593 53.6511 71.7318 54.0148 71.978 54.2949C72.7558 54.9892 73.6439 55.4756 74.5848 55.7224Z" fill="#F2635F"/>
<path id="Vector_13" d="M74.329 56.8597C75.6393 57.264 77.0067 57.3035 78.331 56.9755C79.6554 56.6474 80.903 55.96 81.9824 54.9637C84.2425 52.7708 85.0179 48.9443 84.5484 45.5647C84.3479 44.1087 83.8752 42.5508 82.9487 41.5461C81.784 40.2837 80.0455 40.4346 78.8503 41.5146C76.4549 43.6607 74.2518 46.1122 72.2778 48.8278C71.7871 49.4909 71.3267 50.1867 70.8986 50.9121C70.673 51.3035 70.5259 51.7547 70.4694 52.229C70.4129 52.7032 70.4485 53.1872 70.5735 53.6413C71.0622 55.5944 72.8536 56.3981 74.3282 56.8592C75.5286 57.2348 76.041 54.9598 74.8398 54.5837C74.3396 54.4459 73.8531 54.2413 73.3892 53.9737C73.0196 53.7451 72.5705 53.5204 72.4294 53.0141C72.2883 52.5078 72.4294 52.3043 72.7101 51.8564C73.0039 51.3884 73.3203 50.9391 73.6386 50.4962C75.2366 48.3158 76.98 46.3023 78.8507 44.4768C79.5544 43.7768 80.4797 42.5464 81.4873 43.1363C82.1576 43.5296 82.468 44.8421 82.6099 45.6498C83.0369 48.0924 82.6227 50.9745 81.1216 52.7649C79.5075 54.6899 76.9154 55.1967 74.8422 54.5837C73.637 54.2288 73.1234 56.5033 74.329 56.8597Z" fill="#211715"/>
<path id="Vector_14" d="M77.1183 49.483C77.2266 49.6511 77.3425 49.8114 77.4547 49.9746C77.6386 50.1877 77.8821 50.3065 78.1351 50.3065C78.3882 50.3065 78.6316 50.1877 78.8155 49.9746L78.9658 49.7356C79.052 49.555 79.0973 49.3496 79.0974 49.1403L79.0629 48.8267C79.0185 48.6299 78.9333 48.4505 78.8155 48.3061C78.7032 48.142 78.5874 47.9812 78.4791 47.8146C78.2955 47.6008 78.0519 47.4817 77.7987 47.4817C77.5455 47.4817 77.302 47.6008 77.1183 47.8146L76.968 48.053C76.8814 48.2336 76.836 48.4393 76.8365 48.6488L76.871 48.9624C76.9153 49.1592 77.0005 49.3386 77.1183 49.483Z" fill="#211715"/>
<path id="Vector_15" d="M79.5187 47.3828L80.1422 47.5519C80.2662 47.6008 80.3987 47.6081 80.5258 47.5731C80.6532 47.566 80.7767 47.5176 80.8839 47.433C80.9934 47.3615 81.0863 47.2569 81.1537 47.1292C81.2383 47.0159 81.2977 46.8777 81.3261 46.7281L81.3602 46.4144C81.3605 46.2051 81.3153 45.9994 81.2291 45.8186L81.0787 45.5802C80.9609 45.4356 80.8144 45.331 80.6537 45.2764L80.0303 45.1078C79.9063 45.0587 79.7737 45.0514 79.6466 45.0867C79.5193 45.0933 79.3958 45.1417 79.289 45.2268C79.1792 45.2979 79.0863 45.4025 79.0191 45.5306C78.9344 45.6438 78.875 45.782 78.8467 45.9317L78.8123 46.2453C78.8123 46.4545 78.8577 46.66 78.9438 46.8406L79.0941 47.0795C79.2119 47.2239 79.3582 47.3284 79.5187 47.3828Z" fill="#211715"/>
<path id="Vector_16" d="M83.9489 56.0025C85.8401 56.5638 87.8319 56.2958 89.5789 55.245C90.3506 54.7916 91.0333 54.1389 91.58 53.3316C92.1267 52.5243 92.5246 51.5816 92.7462 50.5681C93.1911 48.8108 93.2142 46.9337 92.8128 45.1607C92.6556 44.3777 92.0334 42.782 91.2315 42.3342C90.8736 42.1454 90.4837 42.0659 90.0952 42.1028C89.7068 42.1396 89.3315 42.2915 89.0015 42.5455C87.2719 44.126 85.6288 45.844 84.0829 47.6884C83.0016 48.9588 82.0024 50.3302 81.0943 51.7902C80.9294 52.0267 80.8194 52.3134 80.7759 52.62C80.7325 52.9266 80.7571 53.2419 80.8473 53.5328C80.9244 53.9335 81.0969 54.2971 81.3429 54.5774C82.1207 55.2707 83.0085 55.7562 83.9489 56.0025Z" fill="#F2635F"/>
<path id="Vector_17" d="M83.6937 57.1399C85.004 57.5441 86.3715 57.5837 87.6959 57.2556C89.0203 56.9275 90.268 56.2401 91.3475 55.2438C93.6071 53.0514 94.3825 49.225 93.9134 45.8454C93.713 44.3893 93.2407 42.8315 92.3137 41.8267C91.149 40.5638 89.411 40.7147 88.2154 41.7952C85.82 43.9415 83.6169 46.3929 81.6429 49.1085C81.1523 49.7715 80.6919 50.4671 80.2637 51.1923C80.0381 51.5838 79.8911 52.0351 79.8347 52.5094C79.7782 52.9838 79.8139 53.4678 79.9389 53.922C80.4277 55.8745 82.219 56.6783 83.6933 57.1399C84.8961 57.5154 85.406 55.2404 84.2048 54.8643C83.7047 54.7262 83.2183 54.5217 82.7543 54.2543C82.385 54.0252 81.936 53.8006 81.7944 53.2947C81.6513 52.781 81.7944 52.5849 82.0751 52.1366C82.3686 51.6686 82.6853 51.2198 83.0033 50.7769C84.6011 48.5962 86.3445 46.5827 88.2154 44.7575C88.919 44.0575 89.844 42.8266 90.8515 43.417C91.5223 43.8102 91.8322 45.1222 91.9741 45.9299C92.4015 48.3731 91.9874 51.2547 90.4863 53.0455C88.8721 54.9705 86.2801 55.4773 84.2065 54.8643C83.0017 54.5089 82.4881 56.782 83.6937 57.1399Z" fill="#211715"/>
<path id="Vector_18" d="M84.0657 51.1822C84.1615 51.4851 84.2348 51.7977 84.3279 52.102C84.4042 52.3923 84.56 52.6413 84.7689 52.8069C84.8761 52.8916 84.9996 52.9399 85.1269 52.947C85.2541 52.982 85.3865 52.9747 85.5106 52.9259L85.7403 52.8069C85.8832 52.7046 86.0021 52.5588 86.0856 52.3837L86.1826 52.102C86.2283 51.8967 86.2283 51.6801 86.1826 51.4747C86.0896 51.1704 86.0162 50.8578 85.9204 50.555C85.8441 50.2647 85.6883 50.0156 85.4793 49.8501C85.3724 49.7649 85.2487 49.7166 85.1213 49.71C84.9942 49.6747 84.8617 49.682 84.7376 49.7311L84.5079 49.8501C84.3652 49.9527 84.2464 50.0984 84.1627 50.2733L84.0657 50.555C84.0199 50.7603 84.0199 50.9769 84.0657 51.1822Z" fill="#211715"/>
<path id="Vector_19" d="M86.4841 49.7638C86.5923 49.9319 86.7086 50.0927 86.8204 50.2554C87.0042 50.4688 87.2477 50.5877 87.5008 50.5877C87.7539 50.5877 87.9974 50.4688 88.1812 50.2554L88.332 50.0165C88.4182 49.8359 88.4635 49.6304 88.4631 49.4212L88.429 49.1075C88.3846 48.9106 88.2992 48.7312 88.1812 48.5869C88.0693 48.4228 87.9535 48.262 87.8448 48.0954C87.7608 47.9819 87.6541 47.8971 87.5353 47.8496C87.3593 47.7628 87.1666 47.7399 86.9803 47.7835C86.7939 47.827 86.6217 47.9353 86.4841 48.0954L86.3337 48.3343C86.2476 48.5149 86.2022 48.7204 86.2022 48.9296L86.2367 49.2432C86.281 49.4401 86.3663 49.6194 86.4841 49.7638Z" fill="#211715"/>
<path id="Vector_20" d="M88.8833 47.6633L89.5068 47.8324C89.6308 47.8813 89.7633 47.8886 89.8905 47.8536C90.0177 47.8465 90.1411 47.7982 90.2481 47.7135C90.4574 47.5482 90.6134 47.2988 90.6891 47.008L90.7236 46.6944C90.7239 46.4851 90.6785 46.2796 90.5921 46.0991L90.4417 45.8602C90.3239 45.7159 90.1777 45.6114 90.0172 45.5569L89.3937 45.3878C89.2696 45.3388 89.1371 45.3317 89.01 45.3672C88.8827 45.3738 88.7591 45.422 88.652 45.5068C88.5424 45.5782 88.4496 45.6828 88.3821 45.8106C88.2974 45.9239 88.2381 46.0623 88.2101 46.2122L88.1757 46.5258C88.1752 46.735 88.2205 46.9406 88.3068 47.1211L88.4575 47.36C88.5753 47.5045 88.7216 47.609 88.8821 47.6633H88.8833Z" fill="#211715"/>
<path id="Vector_21" d="M68.6434 53.7662C67.3216 54.0636 65.969 54.0935 64.6393 53.8547C63.3234 53.5376 62.036 52.638 61.4258 51.1741C61.0985 50.3422 61.0004 49.4025 61.1461 48.4964C61.2917 47.5902 61.6734 46.7665 62.2337 46.1492C62.5753 45.7903 62.973 45.5175 63.3126 45.1552C64.0772 44.3402 64.4849 43.1496 64.9704 42.0582C65.3223 41.2012 65.8024 40.4328 66.3857 39.7931C66.9772 39.1522 67.7502 38.8218 68.5383 38.8728C69.3389 39.0116 70.0663 39.5186 70.5731 40.291C71.0715 41.059 71.4884 41.9014 71.814 42.7981L72.5689 44.6621C73.137 46.0656 73.7204 47.6391 73.362 49.1429C73.0561 50.1678 72.5623 51.0928 71.9186 51.8466C71.0486 52.9521 69.9781 53.4771 68.6414 53.7637" fill="#FEBE69"/>
<path id="Vector_22" d="M60.7125 45.6375C60.8047 45.9136 60.95 46.1582 61.1359 46.3506C61.3218 46.543 61.5428 46.6775 61.7802 46.7426C61.9135 46.5254 62.0656 46.3265 62.2337 46.1493C62.5753 45.7904 62.973 45.5176 63.3126 45.1553C64.0772 44.3403 64.4849 43.1497 64.9704 42.0584C65.271 41.3448 65.6534 40.6876 66.1059 40.1068C65.5197 39.5928 64.8301 39.2848 64.1116 39.2161C63.3931 39.1474 62.6729 39.3206 62.0288 39.717C61.5511 39.9962 61.1436 40.4283 60.8492 40.9676C60.3212 41.991 60.3773 43.2991 60.5024 44.501C60.5307 44.8897 60.6014 45.2719 60.7125 45.6375Z" fill="#FCE0CD"/>
<path id="Vector_23" d="M65.537 38.406C63.8315 37.6003 61.5437 38.0718 60.3389 39.8468C59.7338 40.7805 59.421 41.9487 59.4569 43.1404C59.4633 43.6332 59.4954 44.125 59.5531 44.6127C59.5929 45.2954 59.753 45.9593 60.0222 46.5589C60.151 46.8291 60.362 47.0255 60.6089 47.1049C60.8558 47.1843 61.1183 47.1402 61.3387 46.9824C61.559 46.8245 61.7192 46.5657 61.784 46.263C61.8488 45.9603 61.8128 45.6385 61.6841 45.3683C61.6596 45.3191 61.5558 45.0733 61.6207 45.2621C61.5879 45.1605 61.5611 45.0562 61.5405 44.9499C61.5181 44.8432 61.5004 44.7351 61.4844 44.6265C61.4748 44.5616 61.4443 44.2902 61.4664 44.5036C61.419 44.0865 61.391 43.6665 61.3826 43.2456C61.3798 43.0357 61.3922 42.8283 61.3982 42.6184C61.4058 42.3367 61.3645 42.7732 61.4058 42.52C61.4223 42.4217 61.4367 42.319 61.4571 42.2197C61.4776 42.1204 61.5056 42.0231 61.5281 41.9272C61.585 41.675 61.4623 42.0432 61.5586 41.8328C61.5987 41.7429 61.6368 41.6509 61.6821 41.5634C61.7113 41.5064 61.7426 41.4504 61.7755 41.3958C61.7177 41.4872 61.7109 41.501 61.755 41.4371C61.8156 41.3698 61.8673 41.2896 61.927 41.2174C61.9475 41.1938 62.1375 40.9942 62.0505 41.0787C61.9635 41.1633 62.1664 40.9834 62.1908 40.9642C62.261 40.9087 62.3324 40.8565 62.4057 40.8079C62.4791 40.7592 62.5593 40.7145 62.6355 40.6663C62.6976 40.6314 62.6888 40.6358 62.6082 40.6786C62.6483 40.6589 62.6904 40.6398 62.7321 40.6226C62.8984 40.5503 63.0686 40.4918 63.2413 40.4475C63.2714 40.4397 63.5304 40.3891 63.4181 40.4058C63.3058 40.4225 63.5672 40.3935 63.5973 40.3915C63.7737 40.3796 63.9504 40.3818 64.1265 40.3979C64.1707 40.4018 64.2143 40.4067 64.2585 40.4126C64.163 40.3953 64.1505 40.3935 64.2208 40.4072C64.3074 40.4299 64.3944 40.4461 64.4802 40.4707C64.6662 40.5254 64.8489 40.5957 65.027 40.681C65.2731 40.7631 65.5356 40.7225 65.7573 40.5681C65.979 40.4138 66.1419 40.1582 66.2106 39.8572C66.2714 39.5557 66.2356 39.2372 66.1106 38.9671C65.9856 38.6971 65.7809 38.4961 65.5386 38.4055L65.537 38.406Z" fill="#211715"/>
<path id="Vector_24" d="M68.6434 52.5861C66.6495 52.9125 63.6826 53.3726 62.4032 50.894C62.1902 50.4679 62.0661 49.984 62.0419 49.485C62.0178 48.9861 62.0944 48.4875 62.2649 48.0336C62.7035 46.8449 63.7748 46.3966 64.4324 45.4282C65.1849 44.3202 65.5842 42.9614 66.2322 41.7723C66.763 40.7985 67.712 39.7205 68.7508 40.1211C69.7531 40.507 70.306 41.76 70.7555 42.8282C71.3777 44.1521 71.9074 45.5382 72.3388 46.9717C72.553 47.6556 72.5618 48.4106 72.3636 49.1018C72.1162 49.7615 71.7737 50.361 71.3525 50.8714C70.5525 51.8462 69.5095 52.4646 68.3896 52.6283C68.1447 52.714 67.937 52.9141 67.8113 53.1856C67.6855 53.4571 67.6517 53.7782 67.7172 54.08C67.7898 54.378 67.9535 54.6301 68.1741 54.7837C68.3948 54.9372 68.6552 54.9803 68.9012 54.9039C70.1926 54.6681 71.4026 53.986 72.3893 52.9375C73.4582 51.7361 74.4176 50.048 74.434 48.214C74.4525 46.3184 73.6057 44.5728 72.9398 42.928C72.2738 41.2832 71.6247 39.5597 70.3465 38.4802C69.728 37.9679 68.997 37.6982 68.2506 37.707C67.5042 37.7158 66.7776 38.0026 66.1672 38.5294C64.9115 39.5804 64.2856 41.1957 63.574 42.7751C63.3024 43.4539 62.9103 44.0496 62.4265 44.5183C61.8364 44.9853 61.3158 45.5725 60.8869 46.2545C60.5188 46.9206 60.2745 47.6776 60.1713 48.4722C60.068 49.2668 60.1084 50.0794 60.2895 50.8528C60.7374 52.6814 61.9686 53.9497 63.3767 54.6315C65.0518 55.4426 66.9005 55.2337 68.643 54.9486C68.8956 54.9386 69.1356 54.8111 69.3144 54.592C69.4931 54.3729 69.5971 54.0785 69.6052 53.7688C69.6052 53.1966 69.1618 52.504 68.643 52.589L68.6434 52.5861Z" fill="#211715"/>
<path id="Vector_25" d="M56.9838 50.8651C57.1528 50.4128 57.4039 50.0138 57.7179 49.6986C58.3508 49.1147 59.069 48.6847 59.8337 48.4318C61.6599 47.9088 65.6348 47.3012 67.2637 47.3759C67.4618 47.3852 68.226 47.5322 68.4232 47.5548C68.5435 47.5769 68.6592 47.6269 68.764 47.7023C70.2579 48.6501 71.4467 50.172 72.6062 51.6664L79.1229 60.0645C79.473 60.4211 79.705 60.9218 79.7757 61.4729C79.7371 62.0058 79.5368 62.5016 79.2144 62.8621C78.6557 63.7082 77.9304 64.366 77.1071 64.7734C76.3627 65.0288 75.5876 65.122 74.8169 65.0486C73.7686 65.0234 72.7198 64.9998 71.6704 64.9779C71.5537 65.8956 70.7422 66.46 69.9865 66.519C69.2307 66.5779 68.4906 66.2761 67.7413 66.1444C64.9512 65.6528 61.9678 67.4884 59.3706 66.1414C58.5204 65.6877 57.7055 65.1407 56.9357 64.5069C55.583 63.3674 51.9742 60.472 50.5092 58.5224C49.6131 57.2227 48.6565 55.5862 49.0907 53.9694C49.5493 52.2622 51.3239 52.1599 52.7728 51.8861C54.0992 51.6594 55.4344 51.519 56.7729 51.4653L56.8531 51.4619C56.8729 51.2563 56.9169 51.0553 56.9838 50.8651Z" fill="#AD7B59"/>
<path id="Vector_26" d="M57.942 52.134C57.4007 51.0383 58.7659 50.181 59.4254 49.8398C60.2763 49.4707 61.1605 49.2295 62.0588 49.1216C63.0419 48.9348 64.0293 48.7873 65.0213 48.6792C65.8437 48.5459 66.675 48.5142 67.5026 48.5843C67.6542 48.6059 67.8571 48.6438 68.0607 48.6777C68.1631 48.6822 68.2648 48.6987 68.3646 48.7269C68.1004 48.6094 68.5831 48.9235 68.5751 48.9196C69.132 49.3173 69.6538 49.7848 70.132 50.3147C71.1054 51.3755 71.9811 52.5705 72.8775 53.7262L75.9996 57.7498L77.4927 59.6743L78.1711 60.5493C78.3314 60.7578 78.7436 61.1264 78.7969 61.4317C78.8771 61.8904 78.0804 62.6272 77.8295 62.8946C77.3385 63.4329 76.7207 63.7659 76.0654 63.8459C75.2521 63.9025 74.4368 63.9007 73.6237 63.8404L71.0413 63.779C69.8024 63.7495 69.8024 66.1091 71.0413 66.1386L73.7231 66.2025C74.5328 66.2586 75.3445 66.256 76.154 66.1946C76.9342 66.0833 77.6874 65.7767 78.367 65.2937C79.0465 64.8106 79.6379 64.1616 80.1044 63.3867C80.3956 63.0072 80.5922 62.5334 80.6708 62.0213C80.7495 61.5092 80.7069 60.9801 80.5482 60.4967C80.2218 59.5927 79.5342 58.8853 78.9874 58.1809L75.3906 53.5448C74.2644 52.0932 73.1658 50.5954 71.9863 49.2081C70.9779 48.0224 69.65 46.5792 68.3089 46.357C66.1615 46.0045 63.7615 46.4228 61.5456 46.8446C60.2549 47.005 58.9995 47.4563 57.8426 48.1758C56.3591 49.2052 55.2934 51.3244 56.2809 53.3231C56.9224 54.6204 58.5867 53.4357 57.9424 52.132L57.942 52.134Z" fill="#211715"/>
<path id="Vector_27" d="M70.5366 59.8574C69.202 57.6587 67.6725 55.6483 65.9764 53.8631C65.1869 52.9917 64.3019 52.2602 63.347 51.6898C62.3585 51.1419 61.3137 50.7615 60.2414 50.5592C58.0141 50.1887 55.7558 50.1963 53.5302 50.5818C51.9842 50.805 49.8961 50.863 48.7647 52.3721C47.1293 54.5528 48.5033 57.5411 49.8264 59.357C50.9169 60.8533 52.3543 62.0371 53.6805 63.1913C54.9249 64.3342 56.2199 65.3917 57.5596 66.359C58.5041 67.0595 59.55 67.53 60.6399 67.7448C61.6435 67.8607 62.655 67.817 63.6493 67.6145C64.8311 67.3487 66.0316 67.2293 67.2329 67.2581C68.4637 67.3623 69.6758 68.0319 70.901 67.4759C72.0758 66.9435 72.8848 65.604 72.5713 64.027C72.3834 63.2865 72.0975 62.589 71.7249 61.9623C71.3493 61.2422 70.9507 60.5417 70.535 59.8554C70.401 59.5923 70.1901 59.4019 69.9454 59.3233C69.7007 59.2446 69.4407 59.2835 69.2187 59.4322C68.9996 59.5915 68.8405 59.8503 68.7759 60.1525C68.7112 60.4546 68.7463 60.7759 68.8735 61.0465C69.5276 62.0356 70.1018 63.1001 70.5883 64.2251C70.6905 64.4915 70.7831 64.7285 70.6364 64.9752C70.5381 65.0944 70.4212 65.1882 70.2928 65.2511C70.1643 65.3139 70.0269 65.3445 69.8887 65.341C69.4063 65.3386 68.9262 65.2593 68.4605 65.105C67.9447 64.9768 67.421 64.9015 66.8949 64.8799C65.9506 64.8856 65.0082 64.9859 64.0771 65.1797C63.2122 65.3584 62.337 65.4527 61.4598 65.4619C60.6195 65.4288 59.797 65.1558 59.0579 64.6645C57.8391 63.8485 56.6665 62.9327 55.5481 61.9235C54.3319 60.9285 53.1623 59.8503 52.0451 58.6938C51.5206 58.151 51.0523 57.5315 50.6507 56.8489C50.263 56.1701 49.7157 55.1451 50.0116 54.2785C50.2121 53.6915 50.7918 53.5047 51.3114 53.3602C51.9706 53.1773 52.6634 53.0751 53.3253 52.9669C55.1831 52.6305 57.0653 52.5444 58.9384 52.7103C60.9388 52.8641 62.8512 53.7743 64.4123 55.3157C66.074 57.0084 67.5713 58.9298 68.8747 61.0421C69.0089 61.3049 69.2198 61.4951 69.4644 61.5737C69.709 61.6524 69.9689 61.6136 70.191 61.4654C70.4087 61.306 70.5668 61.0485 70.6314 60.7479C70.696 60.4473 70.662 60.1276 70.5366 59.8574Z" fill="#211715"/>
<path id="Vector_28" d="M83.1419 55.1805L83.245 55.0458C83.3869 53.8582 82.2964 53.023 81.6922 53.02C81.0863 53.0658 80.4987 53.2919 79.9802 53.6787C77.2558 55.4342 73.9125 59.791 73.1274 62.0385C72.9946 62.464 72.985 62.9326 73.1002 63.3658C73.3181 63.9577 73.6318 64.4892 74.0223 64.928C74.0989 65.0086 74.1964 65.0532 74.2973 65.0539C74.5187 65.0593 74.6377 64.7624 74.7949 64.5706C77.6058 61.1468 80.5551 58.5547 83.1419 55.1805Z" fill="#74C66D"/>
<path id="Vector_29" d="M83.8223 56.0143C84.7248 54.8316 83.949 53.0845 82.9964 52.3506C81.942 51.5375 80.7953 51.8733 79.738 52.5079C77.8853 53.6198 76.2499 55.4028 74.841 57.227C74.1717 58.085 73.5553 59.0027 72.9967 59.9725C72.4836 60.8731 72.002 61.8897 72.0606 63.0306C72.1235 64.2596 73.1936 66.2333 74.2982 66.2333C74.9673 66.2333 75.3234 65.5849 75.7532 65.0702C76.2543 64.4709 76.7675 63.8874 77.2875 63.3133C79.4782 60.8942 81.7944 58.6433 83.8227 56.0143C84.6735 54.9112 83.3152 53.2398 82.462 54.3459C81.0972 56.0656 79.6627 57.7001 78.164 59.243C77.4138 60.0379 76.6629 60.8313 75.926 61.6444C75.5491 62.0606 75.1766 62.4823 74.8086 62.9097C74.6221 63.1275 74.4341 63.3443 74.2533 63.5684C74.1719 63.6597 74.0953 63.7573 74.0239 63.8604C73.8988 64.0135 73.9047 64.032 74.0416 63.916H74.5524C74.6269 64.0143 74.6081 63.9887 74.495 63.8481C74.4659 63.7942 74.4291 63.7471 74.3864 63.709C74.3023 63.5739 74.2262 63.4316 74.1586 63.2833C74.0271 63.0124 73.9289 62.8374 73.9911 62.541C74.1512 62.0414 74.3759 61.5766 74.6566 61.1646C75.3741 59.9484 76.1893 58.8234 77.0899 57.8066C77.9925 56.7217 78.9943 55.7681 80.0752 54.9648C80.3396 54.7682 80.6136 54.5916 80.8955 54.4359C81.0952 54.3391 81.3012 54.2633 81.5114 54.2092L81.6918 54.2009C81.5801 54.1714 81.5847 54.1729 81.7058 54.2053C81.8694 54.2345 82.0184 54.3364 82.1247 54.4915C82.231 54.6467 82.2871 54.8443 82.2823 55.0469L82.563 54.2112L82.46 54.3459C81.616 55.4549 82.9744 57.1263 83.8223 56.0143Z" fill="#211715"/>
<path id="Vector_30" d="M58.7636 61.7694C58.8373 61.5512 58.8814 61.3198 58.8943 61.0842C58.8825 60.6717 58.7976 60.2673 58.6457 59.899C58.3931 59.1616 58.0608 58.3338 57.4289 58.1322C56.7293 57.9081 56.0685 58.5678 55.5241 59.1513C53.8928 60.899 52.081 62.3761 50.1355 63.5445C49.996 63.6279 49.8734 63.7485 49.7767 63.8974C49.6801 64.0463 49.6117 64.2198 49.5767 64.4052C49.5417 64.5906 49.5409 64.7833 49.5744 64.9691C49.6079 65.155 49.6748 65.3293 49.7703 65.4794C50.0495 65.969 50.4081 66.3828 50.8235 66.695C51.9531 67.3109 53.1756 67.6291 54.4119 67.629C54.9333 67.6599 55.4532 67.5363 55.9274 67.2687C56.4864 66.8381 56.9398 66.2298 57.2393 65.5084C57.7935 64.3854 58.2783 63.2129 58.6894 62.001C58.7155 61.9238 58.7395 61.8451 58.7636 61.7694Z" fill="#FEBE69"/>
<path id="Vector_31" d="M59.6913 62.0832C60.057 60.8169 59.662 59.4287 59.0807 58.3438C58.8296 57.8025 58.4384 57.3794 57.969 57.1414C57.4997 56.9034 56.979 56.8641 56.4895 57.0298C55.5016 57.3941 54.7566 58.4441 53.9716 59.2095C53.1435 60.0098 52.2714 60.7392 51.3615 61.3926C50.9427 61.6964 50.5166 61.9849 50.0833 62.2582C49.5969 62.4976 49.1769 62.9034 48.8733 63.4272C48.2587 64.6562 48.739 65.9058 49.4623 66.8496C50.2067 67.7128 51.145 68.2826 52.1562 68.4856C53.2304 68.8244 54.3491 68.8961 55.4462 68.6965C56.6655 68.429 57.4537 67.3417 58.0683 66.1029C58.7027 64.8228 59.2457 63.4779 59.6913 62.0832C59.7572 61.7816 59.7237 61.4603 59.5979 61.1888C59.4722 60.9173 59.2643 60.7173 59.0193 60.6321C58.7734 60.5562 58.5131 60.5995 58.2926 60.7529C58.0721 60.9064 57.9083 61.1582 57.8354 61.456C57.546 62.3351 57.2101 63.1901 56.8298 64.0156C56.555 64.7758 56.1684 65.4673 55.6892 66.0557C55.1704 66.5738 54.3597 66.4755 53.7391 66.4175C52.9287 66.3475 52.1336 66.1111 51.3872 65.718C51.1886 65.6134 51.013 65.4527 50.8748 65.249C50.7534 65.1071 50.6425 64.9521 50.5436 64.7859C50.5356 64.7707 50.4823 64.5672 50.5075 64.7009C50.5043 64.6842 50.5877 64.5736 50.5256 64.635C50.6259 64.5588 50.7301 64.4905 50.8375 64.4305C51.2005 64.2074 51.5585 63.9735 51.9116 63.729C53.3241 62.7444 54.6584 61.5997 55.8969 60.3101C56.1859 60.0103 56.904 59.0586 57.26 59.3171C57.4834 59.4793 57.6137 59.9355 57.7163 60.2152C57.8095 60.3985 57.8686 60.6047 57.8894 60.8192C57.9102 61.0336 57.8921 61.251 57.8366 61.456C57.803 61.6054 57.7937 61.7615 57.8093 61.9153C57.8249 62.0691 57.8651 62.2176 57.9275 62.3524C57.9899 62.4871 58.0734 62.6055 58.1731 62.7007C58.2728 62.796 58.3869 62.8662 58.5087 62.9074C58.6306 62.9486 58.7579 62.9599 58.8833 62.9408C59.0088 62.9217 59.1299 62.8724 59.2398 62.7959C59.3498 62.7194 59.4463 62.617 59.524 62.4948C59.6016 62.3725 59.6589 62.2327 59.6925 62.0832H59.6913Z" fill="#211715"/>
<path id="Vector_32" d="M112.395 80.1951C111.571 86.9533 110.71 93.7043 109.81 100.448C109.757 100.844 109.703 101.241 109.65 101.638C109.631 101.989 109.582 102.337 109.502 102.675C109.432 102.851 109.319 102.995 109.177 103.086C109.036 103.178 108.875 103.211 108.717 103.182C108.153 103.195 107.588 103.182 107.023 103.182H10.8842C9.65972 103.182 8.42044 103.25 7.19559 103.182C7.05008 103.195 6.90472 103.154 6.77887 103.063C6.65303 102.973 6.55266 102.837 6.49115 102.675C6.40749 102.338 6.3578 101.99 6.3432 101.638C6.28386 101.197 6.22466 100.757 6.16559 100.316C5.94187 98.6409 5.72055 96.9658 5.50164 95.2905C5.06463 91.9389 4.63844 88.5855 4.22307 85.2303C4.01592 83.5524 3.81104 81.8741 3.60844 80.1956C3.53924 79.8949 3.37619 79.6399 3.15464 79.4856C2.93309 79.3314 2.67089 79.2905 2.42489 79.3717C2.18335 79.4623 1.97935 79.663 1.85487 79.9325C1.73039 80.202 1.69491 80.5198 1.75573 80.8204C2.59154 87.7562 3.47359 94.6832 4.40189 101.601C4.60235 103.098 4.77916 104.543 6.03328 105.239C6.74614 105.635 7.54921 105.538 8.31379 105.538H107.777C108.542 105.538 109.322 105.62 110.032 105.202C111.275 104.469 111.412 102.96 111.613 101.468C111.843 99.7496 112.07 98.0305 112.294 96.311C112.749 92.8273 113.193 89.3417 113.629 85.8541C113.838 84.1762 114.044 82.498 114.249 80.8194C114.308 80.5181 114.272 80.2001 114.147 79.9305C114.022 79.6608 113.818 79.4597 113.577 79.3682C113.331 79.2873 113.069 79.3284 112.847 79.4826C112.626 79.6367 112.463 79.8916 112.393 80.1921L112.395 80.1951Z" fill="#211715"/>
<path id="Vector_33" d="M101.62 69.6904C101.921 69.1171 102.122 68.4731 102.209 67.7994C102.296 67.1258 102.268 66.4373 102.125 65.7779C101.885 64.3971 101.471 64.053 100.773 62.941C98.6917 59.9389 95.3471 59.0231 92.1501 58.4819C88.9963 57.9481 85.7752 57.4157 82.6479 58.1629C75.5803 59.8534 69.9985 67.8219 62.7994 68.0058C60.0846 68.0751 56.0805 67.1671 53.3718 67.3947C50.6631 67.6223 49.0077 69.7381 49.0754 73.0666L49.0971 74.12C49.1233 74.4529 49.1749 74.782 49.251 75.1032C66.615 75.1174 85.4152 75.0761 97.1473 74.9886C98.8615 73.5299 100.372 71.7407 101.62 69.6904Z" fill="#FEBE69"/>
<path id="Vector_34" d="M102.188 67.9738C102.281 67.243 102.26 66.497 102.125 65.776C101.884 64.3946 101.471 64.0555 100.774 62.9396C100.656 62.7695 100.535 62.6056 100.409 62.448C98.0811 65.4958 93.8713 69.0843 90.4409 70.6795C86.5862 72.5704 82.5823 73.9674 78.4931 74.8481L77.3432 75.0757C84.8852 75.0565 91.7612 75.0265 97.1493 74.9857C98.8624 73.5259 100.372 71.7364 101.62 69.6865C101.911 69.1747 102.105 68.5895 102.188 67.9738Z" fill="white"/>
<path id="Vector_35" d="M78.75 75.9885C81.9854 75.3105 85.1658 74.2838 88.2541 72.9205C89.6005 72.339 90.9556 71.753 92.2498 71.0103C93.6761 70.1792 95.0458 69.2094 96.3458 68.11C97.7951 66.9166 99.1611 65.5777 100.43 64.107C101.325 63.0541 99.9634 61.3871 99.0689 62.4386C96.9086 64.9574 94.4508 67.0621 91.7783 68.6817C90.5608 69.3854 89.3104 70.0001 88.0336 70.5226C86.6223 71.1391 85.197 71.7098 83.7544 72.2083C81.9403 72.8375 80.0987 73.3412 78.2384 73.7169C77.9933 73.8021 77.7854 74.0021 77.6597 74.2738C77.5339 74.5454 77.5004 74.8669 77.5664 75.1685C77.6394 75.4662 77.8031 75.7179 78.0235 75.8714C78.244 76.0248 78.5042 76.0682 78.75 75.9924V75.9885Z" fill="#211715"/>
<path id="Vector_36" d="M95.1494 68.2052C95.2898 68.5444 95.4129 68.8934 95.5359 69.2429C95.5816 69.3722 95.6261 69.501 95.6715 69.6303C95.7476 69.8495 95.5788 69.3594 95.655 69.5811L95.7168 69.7625C95.813 70.0447 95.9077 70.3278 96.001 70.6119C96.3255 71.5224 96.6031 72.4569 96.8322 73.41C96.9 73.7118 97.0628 73.9681 97.2848 74.1227C97.5068 74.2772 97.7698 74.3173 98.0159 74.2341C98.262 74.151 98.4711 73.9513 98.5972 73.6791C98.7232 73.4069 98.7559 73.0845 98.6881 72.7828C98.4534 71.8077 98.1687 70.8518 97.8357 69.9208C97.5149 68.945 97.2002 67.9515 96.8113 67.0121C96.6812 66.7436 96.4701 66.5487 96.2237 66.4695C95.9774 66.3903 95.7155 66.4332 95.4946 66.5889C95.2789 66.752 95.1226 67.0107 95.0584 67.3113C94.9941 67.6119 95.0267 67.9313 95.1494 68.2032V68.2052Z" fill="#211715"/>
<path id="Vector_37" d="M91.9929 70.9497C92.2222 71.46 92.4231 71.9887 92.5943 72.5321L92.4973 72.2505C92.7459 72.9741 92.9916 73.7026 93.1997 74.4459C93.2676 74.7476 93.4304 75.004 93.6524 75.1585C93.8744 75.3131 94.1374 75.3532 94.3835 75.27C94.6296 75.1868 94.8387 74.9872 94.9647 74.715C95.0908 74.4428 95.1235 74.1204 95.0556 73.8186C94.8672 73.1456 94.6463 72.4849 94.4234 71.8282C94.2068 71.1173 93.9501 70.4258 93.6552 69.7587C93.5914 69.6249 93.5067 69.5078 93.4061 69.4142C93.3054 69.3206 93.1906 69.2521 93.0684 69.2129C92.9461 69.1736 92.8188 69.1642 92.6936 69.1853C92.5684 69.2063 92.4478 69.2574 92.3387 69.3356C92.2296 69.4139 92.1342 69.5176 92.0578 69.6411C91.9814 69.7645 91.9256 69.9052 91.8936 70.0551C91.8615 70.205 91.8539 70.3611 91.8711 70.5146C91.8882 70.6681 91.9299 70.816 91.9937 70.9497H91.9929Z" fill="#211715"/>
<path id="Vector_38" d="M108.743 80.3887H12.1671C10.8689 80.3887 9.56867 80.3612 8.27085 80.3887C8.21512 80.3887 8.15899 80.3887 8.10326 80.3887C6.86478 80.3887 6.86277 82.7483 8.10326 82.7483H108.743C109.981 82.7483 109.983 80.3887 108.743 80.3887Z" fill="#211715"/>
<path id="Vector_39" d="M20.7748 43.389C18.7565 47.7965 16.9098 52.3269 15.0443 56.8317C13.0853 61.5633 11.1444 66.3056 9.2215 71.0585C8.78957 72.1239 8.3587 73.189 7.9289 74.2537C7.84698 74.4337 7.80443 74.6367 7.80537 74.8428C7.80632 75.0489 7.85074 75.2512 7.93431 75.4301C8.01788 75.6089 8.13776 75.7582 8.28231 75.8635C8.42686 75.9688 8.59115 76.0264 8.75923 76.0308C14.2841 76.2112 19.8162 76.1891 25.3422 76.2181C34.5492 76.2659 43.7561 76.2877 52.9629 76.2835C62.1221 76.2874 71.2815 76.2762 80.4412 76.25C88.2001 76.2259 95.9597 76.2038 103.719 76.1026C105.033 76.0858 106.374 76.1517 107.685 76.0293C107.972 76.0206 108.25 75.9045 108.481 75.6967C108.713 75.4889 108.887 75.1993 108.98 74.8667C109.033 74.5825 109.038 74.288 108.995 74.0011C108.953 73.7143 108.863 73.4412 108.731 73.1983C108.453 72.515 108.176 71.8309 107.9 71.146C106.2 66.944 104.492 62.7478 102.684 58.6132C102.214 57.5389 101.737 56.4701 101.252 55.4066C100.645 54.0823 98.9824 55.2704 99.5898 56.5977C101.531 60.84 103.329 65.1807 105.101 69.5321C105.743 71.1052 106.373 72.6782 107.012 74.2488C107.039 74.3137 107.119 74.6185 107.177 74.6534C106.897 74.4853 107.97 73.8531 107.543 73.6737C107.492 73.6681 107.442 73.6696 107.392 73.6781C107.101 73.686 106.809 73.6927 106.518 73.6982C105.833 73.7127 105.148 73.7243 104.463 73.7332C96.9348 73.8393 89.4057 73.8595 81.877 73.8841C72.9859 73.9136 64.0948 73.9267 55.2037 73.9234C46.0648 73.9234 36.9258 73.9052 27.7867 73.8688C21.8004 73.8418 15.8116 73.8393 9.82491 73.6987C9.46968 73.6905 9.11419 73.6809 8.75843 73.6697L9.58956 75.4448C10.7491 72.5509 11.9274 69.6683 13.1045 66.7852C15.2295 61.5799 17.3645 56.3809 19.5499 51.2139C20.4913 48.9895 21.4343 46.7642 22.4367 44.5776C23.0437 43.2504 21.3818 42.0612 20.7748 43.3865V43.389Z" fill="#211715"/>
<path id="Vector_40" d="M100.789 69.0932C99.6352 70.9782 98.2424 72.6243 96.6639 73.9692L97.1494 73.8084C91.6654 73.8491 86.1812 73.876 80.6967 73.8891C74.0714 73.9097 67.4461 73.9212 60.8209 73.9235C56.9639 73.9254 53.1069 73.9254 49.2499 73.9235L50.1781 74.7896C49.7896 73.0165 50.0125 70.8078 51.1051 69.6148C52.3159 68.2919 54.3097 68.4871 55.8826 68.6046C58.0524 68.7668 60.2155 69.1768 62.3917 69.1945C64.3601 69.1811 66.3084 68.7087 68.1327 67.8023C71.9319 65.9771 75.2348 62.9657 78.9378 60.8996C80.8445 59.8005 82.9047 59.1577 85.0079 59.0055C87.515 58.8581 90.0413 59.272 92.5146 59.7321C94.747 60.148 97.1001 60.756 98.9484 62.4422C99.3933 62.8519 99.7952 63.3276 100.145 63.8584C100.461 64.2773 100.739 64.7372 100.974 65.2299C101.214 65.8404 101.323 66.5161 101.291 67.1929C101.259 67.8697 101.086 68.5252 100.789 69.0972C100.101 70.3654 101.767 71.5482 102.451 70.2883C103.149 68.9112 103.377 67.2529 103.086 65.6713C102.879 64.288 102.255 63.3354 101.557 62.2711C100.128 60.0934 97.9633 58.8497 95.8031 58.1418C93.3235 57.398 90.7949 56.9265 88.2471 56.733C85.6549 56.4008 83.0347 56.7 80.5371 57.6134C76.351 59.2666 72.8144 62.5783 68.8676 64.8568C67.0674 65.9676 65.1064 66.6327 63.0966 66.8143C60.8513 66.9391 58.5973 66.479 56.3633 66.2814C54.082 66.0794 51.5637 65.9481 49.7439 67.9429C48.1089 69.7352 47.7757 72.9192 48.3222 75.4149C48.3807 75.6621 48.5025 75.8797 48.6695 76.0356C48.8366 76.1916 49.04 76.2776 49.2499 76.2811C57.0125 76.2873 64.7749 76.2832 72.5369 76.2688C79.3696 76.256 86.2022 76.2314 93.0346 76.1951C93.8507 76.1905 94.6659 76.1854 95.4803 76.1798L96.5805 76.172C96.7681 76.172 96.9606 76.1838 97.1474 76.168C97.4705 76.1152 97.772 75.9399 98.0098 75.6666C99.7075 74.1646 101.205 72.3489 102.449 70.2843C102.576 70.0135 102.61 69.6925 102.546 69.3905C102.481 69.0885 102.322 68.8298 102.104 68.67C101.882 68.5194 101.622 68.4793 101.377 68.5582C101.132 68.637 100.922 68.8287 100.789 69.0932Z" fill="#211715"/>
</g>
<defs>
<clipPath id="clip0_665_7428">
<rect width="115" height="141" fill="white" transform="translate(0.5)"/>
</clipPath>
</defs>
</svg>
