<svg width="13" height="15" viewBox="0 0 13 15" fill="none" xmlns="http://www.w3.org/2000/svg">
<g id="Shapes / star shape">
<path id="Vector" d="M11.9333 6.04378C11.8996 5.92946 11.8383 5.82905 11.7569 5.75472C11.6755 5.68039 11.5775 5.63534 11.4746 5.62503L8.43996 5.10628L7.07996 1.87503C7.03628 1.76936 6.9681 1.68024 6.8832 1.61789C6.79831 1.55553 6.70015 1.52246 6.59996 1.52246C6.49977 1.52246 6.4016 1.55553 6.31671 1.61789C6.23182 1.68024 6.16363 1.76936 6.11996 1.87503L4.75996 5.10003L1.72529 5.62503C1.62658 5.64147 1.53378 5.69001 1.45742 5.76513C1.38106 5.84025 1.3242 5.93895 1.29329 6.05003C1.26499 6.15858 1.26245 6.2741 1.28594 6.38421C1.30943 6.49432 1.35807 6.59486 1.42662 6.67503L3.62929 9.17503L3.09596 12.725C3.07692 12.8422 3.08689 12.9633 3.12469 13.0741C3.16249 13.1848 3.22654 13.2806 3.30929 13.35C3.38994 13.4176 3.48506 13.4575 3.58398 13.4652C3.6829 13.4729 3.7817 13.4482 3.86929 13.3938L6.59996 11.725L9.31996 13.4C9.39481 13.4495 9.47935 13.4754 9.56529 13.475C9.67826 13.4755 9.78845 13.4339 9.87996 13.3563C9.9627 13.2868 10.0268 13.1911 10.0646 13.0803C10.1024 12.9696 10.1123 12.8485 10.0933 12.7313L9.55996 9.18128L11.7626 6.68128C11.8396 6.60483 11.8965 6.50434 11.9267 6.3915C11.957 6.27865 11.9592 6.15808 11.9333 6.04378ZM8.65329 8.54378C8.59074 8.61468 8.54395 8.70243 8.51699 8.79939C8.49003 8.89635 8.48372 8.99956 8.49862 9.10003L8.88262 11.7188L6.87729 10.4688C6.80013 10.4206 6.71404 10.3954 6.62662 10.3954C6.5392 10.3954 6.45312 10.4206 6.37596 10.4688L4.37062 11.7188L4.75462 9.10003C4.76952 8.99956 4.76322 8.89635 4.73626 8.79939C4.7093 8.70243 4.6625 8.61468 4.59996 8.54378L2.99996 6.66878L5.24529 6.28753C5.33169 6.27345 5.41382 6.23474 5.48449 6.17481C5.55516 6.11488 5.6122 6.03555 5.65062 5.94378L6.59996 3.56253L7.60262 5.95003C7.64104 6.0418 7.69809 6.12113 7.76876 6.18106C7.83942 6.24099 7.92156 6.2797 8.00796 6.29378L10.2533 6.67503L8.65329 8.54378Z" fill="black"/>
</g>
</svg>
