<svg width="13" height="15" viewBox="0 0 13 15" fill="none" xmlns="http://www.w3.org/2000/svg">
<g id="Monochrome / star">
<path id="Vector" d="M9.36671 13.4746C9.28025 13.4746 9.1951 13.45 9.11854 13.4029L6.40005 11.7281L3.68156 13.4029C3.59347 13.4572 3.49418 13.4815 3.39492 13.4731C3.29565 13.4647 3.20038 13.4239 3.11986 13.3553C3.03935 13.2868 2.9768 13.1932 2.93929 13.0852C2.90178 12.9772 2.8908 12.859 2.9076 12.744L3.42687 9.19669L1.22766 6.68481C1.15641 6.60338 1.10602 6.50023 1.08218 6.387C1.05834 6.27377 1.06201 6.15499 1.09275 6.04407C1.1235 5.93315 1.18011 5.83452 1.25618 5.75933C1.33225 5.68414 1.42475 5.63538 1.52323 5.61856L4.56255 5.10098L5.92165 1.87369C5.97077 1.77622 6.04073 1.69545 6.12462 1.63934C6.20851 1.58322 6.30344 1.55371 6.40003 1.55371C6.49663 1.55371 6.59156 1.58322 6.67545 1.63934C6.75934 1.69545 6.8293 1.77622 6.87842 1.87369L8.23753 5.10092L11.2769 5.6185C11.3753 5.63532 11.4678 5.68408 11.5439 5.75927C11.62 5.83447 11.6766 5.9331 11.7073 6.04401C11.7381 6.15493 11.7417 6.27372 11.7179 6.38694C11.6941 6.50017 11.6437 6.60333 11.5724 6.68475L9.37321 9.19663L9.89248 12.744C9.90561 12.8337 9.90185 12.9257 9.88148 13.0136C9.86111 13.1014 9.8246 13.183 9.77453 13.2525C9.72445 13.3221 9.662 13.3781 9.59156 13.4164C9.52111 13.4548 9.44437 13.4746 9.36669 13.4746L9.36671 13.4746Z" fill="#FCE38A"/>
</g>
</svg>
