<svg width="201" height="200" viewBox="0 0 201 200" fill="none" xmlns="http://www.w3.org/2000/svg">
<path d="M190.209 139.836H50.4233C47.7752 139.836 45.2356 138.783 43.3631 136.91C41.4906 135.037 40.4387 132.496 40.4387 129.847C40.4387 127.198 41.4906 124.658 43.3631 122.785C45.2356 120.911 47.7752 119.859 50.4233 119.859H154.663C161.339 119.859 167.824 117.629 173.089 113.521C178.353 109.413 182.094 103.664 183.719 97.1857L200.193 32.3619C200.567 30.8877 200.6 29.3476 200.288 27.8589C199.977 26.3703 199.33 24.9725 198.396 23.772C197.425 22.5408 196.178 21.5556 194.755 20.8962C193.333 20.2368 191.775 19.9217 190.209 19.9765H48.027C45.967 14.1479 42.1553 9.09928 37.1144 5.52289C32.0735 1.9465 26.0502 0.0173747 19.8702 0H10.4847C7.83657 0 5.29693 1.05233 3.42444 2.92549C1.55195 4.79865 0.5 7.3392 0.5 9.98825C0.5 12.6373 1.55195 15.1779 3.42444 17.051C5.29693 18.9242 7.83657 19.9765 10.4847 19.9765H19.8702C22.1511 19.91 24.3859 20.6271 26.2026 22.0082C28.0193 23.3894 29.3082 25.3514 29.8549 27.5676L30.454 32.3619L47.7275 99.8825C39.7832 100.24 32.3063 103.74 26.9416 109.612C21.5769 115.485 18.7639 123.249 19.1214 131.196C19.4789 139.143 22.9776 146.622 28.8478 151.989C34.7181 157.356 42.479 160.17 50.4233 159.812H52.2206C50.5784 164.338 50.0508 169.193 50.6822 173.966C51.3137 178.74 53.0857 183.29 55.8482 187.233C58.6106 191.176 62.2823 194.395 66.5521 196.617C70.8219 198.84 75.5642 200 80.3773 200C85.1905 200 89.9327 198.84 94.2025 196.617C98.4724 194.395 102.144 191.176 104.906 187.233C107.669 183.29 109.441 178.74 110.072 173.966C110.704 169.193 110.176 164.338 108.534 159.812H132.098C130.456 164.338 129.928 169.193 130.56 173.966C131.191 178.74 132.963 183.29 135.725 187.233C138.488 191.176 142.16 194.395 146.429 196.617C150.699 198.84 155.441 200 160.255 200C165.068 200 169.81 198.84 174.08 196.617C178.35 194.395 182.021 191.176 184.784 187.233C187.546 183.29 189.318 178.74 189.95 173.966C190.581 169.193 190.053 164.338 188.411 159.812H190.209C192.857 159.812 195.396 158.76 197.269 156.887C199.141 155.013 200.193 152.473 200.193 149.824C200.193 147.175 199.141 144.634 197.269 142.761C195.396 140.888 192.857 139.836 190.209 139.836ZM177.428 39.953L164.348 92.2914C163.802 94.5076 162.513 96.4696 160.696 97.8508C158.879 99.2319 156.645 99.949 154.364 99.8825H68.196L53.219 39.953H177.428ZM80.3773 179.789C78.4025 179.789 76.4721 179.203 74.8301 178.105C73.1881 177.008 71.9084 175.448 71.1527 173.623C70.397 171.798 70.1992 169.789 70.5845 167.852C70.9697 165.914 71.9207 164.134 73.3171 162.738C74.7135 161.341 76.4926 160.389 78.4294 160.004C80.3662 159.619 82.3738 159.816 84.1983 160.572C86.0227 161.328 87.5821 162.609 88.6792 164.251C89.7764 165.894 90.362 167.825 90.362 169.8C90.362 172.449 89.31 174.99 87.4375 176.863C85.565 178.736 83.0254 179.789 80.3773 179.789ZM160.255 179.789C158.28 179.789 156.349 179.203 154.707 178.105C153.065 177.008 151.786 175.448 151.03 173.623C150.274 171.798 150.077 169.789 150.462 167.852C150.847 165.914 151.798 164.134 153.194 162.738C154.591 161.341 156.37 160.389 158.307 160.004C160.244 159.619 162.251 159.816 164.076 160.572C165.9 161.328 167.459 162.609 168.557 164.251C169.654 165.894 170.239 167.825 170.239 169.8C170.239 172.449 169.187 174.99 167.315 176.863C165.442 178.736 162.903 179.789 160.255 179.789Z" fill="#4B5563"/>
</svg>
