<?xml version="1.0" encoding="UTF-8"?>
<svg version="1.1" xmlns="http://www.w3.org/2000/svg" width="368" height="368">
<path d="M0 0 C2.32641602 1.14477539 2.32641602 1.14477539 4.75390625 2.59765625 C5.67606934 3.14349365 6.59823242 3.68933105 7.54833984 4.25170898 C8.5430127 4.84927002 9.53768555 5.44683105 10.5625 6.0625 C12.73233205 7.3476059 14.90293628 8.6314087 17.07421875 9.9140625 C18.20907715 10.58598633 19.34393555 11.25791016 20.51318359 11.95019531 C25.68426164 14.99971723 30.90169057 17.96853987 36.11898804 20.9380188 C39.0727669 22.61924108 42.02466053 24.30376632 44.9765625 25.98828125 C45.56138901 26.32196213 46.14621552 26.65564301 46.74876404 26.99943542 C63.21610689 36.39955729 79.61597877 45.91709272 95.984375 55.48828125 C100.23884035 57.97521475 104.50027938 60.44974405 108.765625 62.91796875 C110.42440674 63.87981079 110.42440674 63.87981079 112.11669922 64.86108398 C114.24710802 66.09613365 116.37888987 67.32881868 118.51220703 68.55883789 C119.46466309 69.11176514 120.41711914 69.66469238 121.3984375 70.234375 C122.24067871 70.72131836 123.08291992 71.20826172 123.95068359 71.70996094 C126 73 126 73 128 75 C127.91959312 77.17830745 127.827659 79.35678996 127.67816162 81.53144836 C126.74275225 97.604033 132.09878697 111.00372671 137.75 125.8125 C139.59919282 130.7487035 141.41688336 135.69658703 143.234375 140.64453125 C143.66770142 141.8171048 144.10102783 142.98967834 144.54748535 144.19778442 C147.76449849 153.02495652 150.29215381 161.75733796 152 171 C152.19013672 172.02810791 152.38027344 173.05621582 152.57617188 174.11547852 C153.26766003 178.82166089 153.22555137 183.50085391 153.25 188.25 C153.2809375 189.72919922 153.2809375 189.72919922 153.3125 191.23828125 C153.34673952 197.73523012 153.20456648 204.19606581 150 210 C147.31561781 212.6099315 144.28659981 214.24157194 141 216 C138.89929664 217.22059216 136.79906779 218.4420012 134.69921875 219.6640625 C132.36374822 220.98765634 130.02683843 222.3082949 127.6875 223.625 C120.68886739 227.57056422 113.70581606 231.51048703 106.8984375 235.78125 C105.98876221 236.3489209 105.07908691 236.9165918 104.1418457 237.50146484 C102.46129203 238.55926721 100.78993855 239.63187474 99.12963867 240.72119141 C98.38689697 241.18702637 97.64415527 241.65286133 96.87890625 242.1328125 C96.2454126 242.54418457 95.61191895 242.95555664 94.95922852 243.37939453 C92.07640143 244.2925592 90.65375519 243.32789397 88 242 C86.42626722 241.1794454 84.86798545 240.32875569 83.32421875 239.453125 C82.42662842 238.94539551 81.52903809 238.43766602 80.60424805 237.91455078 C79.64172119 237.36524902 78.67919434 236.81594727 77.6875 236.25 C76.67276611 235.67362793 75.65803223 235.09725586 74.61254883 234.50341797 C65.4401535 229.27998392 56.32425251 223.96115291 47.21484375 218.62890625 C39.52295979 214.12997268 31.80140431 209.682825 24.07885742 205.23681641 C17.038339 201.18207933 10.01381541 197.10075656 3 193 C2.82911865 194.30964722 2.82911865 194.30964722 2.65478516 195.64575195 C1.99771495 199.01170553 1.0003644 201.58355062 -0.4765625 204.66796875 C-0.98316406 205.72693359 -1.48976562 206.78589844 -2.01171875 207.87695312 C-2.54410156 208.96943359 -3.07648438 210.06191406 -3.625 211.1875 C-4.13417969 212.26064453 -4.64335937 213.33378906 -5.16796875 214.43945312 C-11.58959098 227.74138488 -17.82436751 239.72072936 -32.21484375 245.17578125 C-49.63988346 250.33241993 -70.39212095 250.65801053 -86.9140625 242.57421875 C-101.24094517 234.58502049 -111.80588091 211.29408658 -116.64453125 195.95703125 C-117.02756686 193.84823081 -116.89927048 192.12600948 -116.6875 190 C-116.58815946 187.91102256 -116.58815946 187.91102256 -117 186 C-119.68819268 183.7628112 -119.68819268 183.7628112 -123 182 C-127.91604687 177.22891816 -128.81174779 173.72562357 -129.1875 167.0078125 C-129.25517578 166.13738312 -129.32285156 165.26695374 -129.39257812 164.37014771 C-129.53619723 162.52152522 -129.67125884 160.67222064 -129.79833984 158.8223877 C-130.12818743 154.2059191 -130.57135394 149.60033661 -131 144.9921875 C-131.16737386 143.14329305 -131.3340387 141.29433428 -131.5 139.4453125 C-131.5825 138.52911133 -131.665 137.61291016 -131.75 136.66894531 C-131.91825601 134.78855299 -132.08489304 132.90801519 -132.25 131.02734375 C-132.49499812 128.24431823 -132.7469294 125.4619891 -133 122.6796875 C-133.07089844 121.85346893 -133.14179688 121.02725037 -133.21484375 120.17599487 C-133.68258479 115.11142874 -134.48346137 110.21297943 -135.56484985 105.24240112 C-136.21916127 101.87062551 -136.33873144 98.68825988 -136.375 95.25 C-136.40335938 94.01765625 -136.43171875 92.7853125 -136.4609375 91.515625 C-135.46160519 83.8935989 -129.72933527 79.48885534 -124 75 C-113.19110769 66.79938845 -101.10784325 65.91839639 -87.93359375 67.328125 C-76.5878241 69.44318192 -66.92049452 76.99456521 -60 86 C-58.49058995 89.0188201 -58.82906728 91.8309686 -58.8125 95.1875 C-58.79832031 96.48042969 -58.78414063 97.77335937 -58.76953125 99.10546875 C-59 103 -59 103 -59.94750977 106.18115234 C-61.12944733 110.46968574 -61.64181236 114.58144635 -62.0703125 118.99609375 C-62.15626678 119.82963882 -62.24222107 120.6631839 -62.33078003 121.52198792 C-62.60144043 124.15992866 -62.86335573 126.79865132 -63.125 129.4375 C-63.30801454 131.23638715 -63.49160255 133.03521605 -63.67578125 134.83398438 C-64.1238219 139.22201054 -64.56402682 143.61075912 -65 148 C-60.05 148 -55.1 148 -50 148 C-50.061875 146.2675 -50.12375 144.535 -50.1875 142.75 C-50.09209418 113.3014044 -39.40418532 84.30350929 -28.015625 57.5546875 C-27.66999008 56.73979355 -27.32435516 55.9248996 -26.96824646 55.08531189 C-25.23593576 51.00692003 -23.48499806 46.93831859 -21.70141602 42.88208008 C-21.05700357 41.38382014 -20.41302178 39.88537488 -19.76953125 38.38671875 C-19.45965271 37.69927582 -19.14977417 37.01183289 -18.83050537 36.30355835 C-17.1763237 32.56581666 -17.1763237 32.56581666 -17.82177734 28.67480469 C-18.21059082 28.12211914 -18.5994043 27.56943359 -19 27 C-19.19723467 21.74980102 -18.22426359 17.21634469 -15 13 C-14.28650391 12.3503125 -14.28650391 12.3503125 -13.55859375 11.6875 C-11.62737907 9.5965608 -10.63565563 7.45159799 -9.4375 4.875 C-6.96198408 -0.44620245 -5.84086862 -1.58442567 0 0 Z " fill="#AAC0C7" transform="translate(175,86)"/>
<path d="M0 0 C0.56783203 0.41967041 1.13566406 0.83934082 1.72070312 1.27172852 C14.56905936 10.63130467 30.18795808 12.7162796 45.65625 10.46875 C54.57397453 8.55185594 61.58725778 5.18891955 69 0 C69.19656644 7.87975053 68.43260292 15.54812067 67.5625 23.375 C67.36043945 25.27958984 67.36043945 25.27958984 67.15429688 27.22265625 C66.13262135 36.60213595 66.13262135 36.60213595 65 40 C63.515 40.495 63.515 40.495 62 41 C68.93 41 75.86 41 83 41 C83.99 43.97 83.99 43.97 85 47 C77.41 47 69.82 47 62 47 C62 47.66 62 48.32 62 49 C60.43765625 49.29390625 60.43765625 49.29390625 58.84375 49.59375 C46.58081638 52.08438814 30.58123373 56.32473735 22.625 66.8125 C21.71191492 70.00829776 22.46907736 72.75547277 23 76 C22.67 76.99 22.34 77.98 22 79 C22.99 78.505 22.99 78.505 24 78 C26.6723621 77.86584528 29.32250488 77.95681459 32 78 C31.67 77.443125 31.34 76.88625 31 76.3125 C29.84750995 73.64736676 29.69725595 71.87606851 30 69 C30.99 68.01 30.99 68.01 32 67 C33.134375 67.020625 34.26875 67.04125 35.4375 67.0625 C36.613125 67.041875 37.78875 67.02125 39 67 C39.474375 66.505 39.94875 66.01 40.4375 65.5 C40.953125 65.005 41.46875 64.51 42 64 C43.27875 64.061875 44.5575 64.12375 45.875 64.1875 C47.99602726 64.35638745 47.99602726 64.35638745 50 64 C51.73473712 62.05874656 53.4045651 60.05727132 55 58 C58.3125 57.125 58.3125 57.125 61 57 C61 57.99 61 58.98 61 60 C61.66 58.35 62.32 56.7 63 55 C63.86625 55.2475 64.7325 55.495 65.625 55.75 C69.12443199 56.36119042 69.12443199 56.36119042 71.9375 54 C75 52 75 52 78.75 52 C82 53 82 53 83.4375 55.0625 C83.623125 55.701875 83.80875 56.34125 84 57 C84.7425 56.9175 85.485 56.835 86.25 56.75 C89.83149665 57.0755906 90.51239509 58.51239509 93 61 C96.97301996 62.32433999 98.5610775 62.19152982 102.4375 60.5 C106.65642504 58.72361051 108.63576807 58.70689424 113 60 C115.9375 62.1875 115.9375 62.1875 118 65 C118.3125 68.3125 118.3125 68.3125 118 71 C119.485 71.495 119.485 71.495 121 72 C122.1875 74.0625 122.1875 74.0625 123 76 C124.65 76 126.3 76 128 76 C128.66 73.36 129.32 70.72 130 68 C130.66 68.33 131.32 68.66 132 69 C131.69152766 71.93797442 131.37839777 74.87532282 131.0625 77.8125 C130.93198242 79.06256836 130.93198242 79.06256836 130.79882812 80.33789062 C130.66831055 81.54155273 130.66831055 81.54155273 130.53515625 82.76953125 C130.456604 83.50792236 130.37805176 84.24631348 130.29711914 85.00708008 C130 87 130 87 129 90 C129.66 90.33 130.32 90.66 131 91 C132.20598098 94.61794293 131.74840986 95.16970976 130.15625 98.5 C129.52855713 99.82330322 129.52855713 99.82330322 128.88818359 101.17333984 C128.20103271 102.57253662 128.20103271 102.57253662 127.5 104 C127.03803223 104.94955566 126.57606445 105.89911133 126.10009766 106.87744141 C119.77161933 119.71257211 113.81411385 130.85777159 99.78515625 136.17578125 C82.36011654 141.33241993 61.60787905 141.65801053 45.0859375 133.57421875 C30.75905483 125.58502049 20.19411909 102.29408658 15.35546875 86.95703125 C14.97243314 84.84823081 15.10072952 83.12600948 15.3125 81 C15.42200433 78.91322065 15.42200433 78.91322065 15 77 C12.22132295 74.73083907 12.22132295 74.73083907 9 73 C6.20722985 68.9552984 4.8853775 65.86348285 4.42749023 61.00634766 C4.32746201 59.96411041 4.22743378 58.92187317 4.12437439 57.84805298 C3.96806297 56.14822769 3.96806297 56.14822769 3.80859375 54.4140625 C3.69902847 53.24676605 3.5894632 52.0794696 3.47657776 50.87680054 C3.24511543 48.3970611 3.01576186 45.91712407 2.78833008 43.43701172 C2.44207978 39.67476252 2.08574995 35.91356383 1.72851562 32.15234375 C1.50458991 29.73964065 1.28126423 27.32688177 1.05859375 24.9140625 C0.95236191 23.80108795 0.84613007 22.6881134 0.73667908 21.54141235 C0.08702482 14.34074839 -0.12391667 7.22862504 0 0 Z " fill="#C0392B" transform="translate(43,195)"/>
<path d="M0 0 C3.875 1.875 3.875 1.875 5 3 C4.86490397 5.1479462 4.72911258 7.2958504 4.590271 9.44355774 C3.80638707 25.55129089 9.08232827 38.96059738 14.75 53.8125 C16.59919282 58.7487035 18.41688336 63.69658703 20.234375 68.64453125 C20.66770142 69.8171048 21.10102783 70.98967834 21.54748535 72.19778442 C24.76449849 81.02495652 27.29215381 89.75733796 29 99 C29.28520508 100.54216187 29.28520508 100.54216187 29.57617188 102.11547852 C30.26766003 106.82166089 30.22555137 111.50085391 30.25 116.25 C30.270625 117.23613281 30.29125 118.22226562 30.3125 119.23828125 C30.34673952 125.73523012 30.20456648 132.19606581 27 138 C24.31561781 140.6099315 21.28659981 142.24157194 18 144 C15.89929664 145.22059216 13.79906779 146.4420012 11.69921875 147.6640625 C9.36374822 148.98765634 7.02683843 150.3082949 4.6875 151.625 C-2.31113261 155.57056422 -9.29418394 159.51048703 -16.1015625 163.78125 C-17.01123779 164.3489209 -17.92091309 164.9165918 -18.8581543 165.50146484 C-20.53870797 166.55926721 -22.21006145 167.63187474 -23.87036133 168.72119141 C-29.31289279 172.13465457 -29.31289279 172.13465457 -32.91015625 171.4296875 C-35 170 -35 170 -37 168 C-37 167.01 -37 166.02 -37 165 C-37.94989064 163.32185987 -38.90255179 161.64372327 -39.9296875 160.01171875 C-49.17880611 142.62742648 -41.08390799 117.01189475 -35.81640625 99.58203125 C-28.51208856 76.2614753 -19.16350708 53.63516995 -10 31 C-10.66 31 -11.32 31 -12 31 C-12.184766 20.46833821 -5.69893614 12.64985183 -0.1484375 4.171875 C0.42003906 3.09679687 0.42003906 3.09679687 1 2 C0.505 1.01 0.505 1.01 0 0 Z " fill="#010101" transform="translate(298,158)"/>
<path d="M0 0 C3.85659079 1.44727302 7.3762119 3.22562075 10.97265625 5.23046875 C12.12056641 5.86919922 13.26847656 6.50792969 14.45117188 7.16601562 C15.04599365 7.49899658 15.64081543 7.83197754 16.25366211 8.17504883 C18.03127959 9.17002517 19.81128165 10.16061109 21.59179688 11.15039062 C29.11624711 15.34170504 36.57729726 19.63125775 44 24 C43.28261476 29.09440902 41.25506983 33.62298614 39.31640625 38.34765625 C38.55011824 40.23878012 37.78401209 42.12997769 37.01806641 44.02124023 C36.61662415 45.00824921 36.21518188 45.99525818 35.80157471 47.01217651 C30.02271403 61.23843288 24.27853418 75.47099056 19.125 89.9375 C18.75189697 90.9797876 18.37879395 92.0220752 17.99438477 93.09594727 C15.34815923 100.64788206 13.13309117 108.29019522 11 116 C7.31441906 114.60872658 3.93651584 112.94644662 0.5 111.0234375 C-0.54679932 110.43836426 -1.59359863 109.85329102 -2.67211914 109.25048828 C-4.31942017 108.32212158 -4.31942017 108.32212158 -6 107.375 C-7.11818115 106.74706543 -8.2363623 106.11913086 -9.38842773 105.47216797 C-17.04005764 101.15592098 -24.60068048 96.73674132 -32 92 C-31.65369953 83.69706206 -29.49065337 76.39066781 -26.8125 68.5625 C-26.49144791 67.61064316 -26.49144791 67.61064316 -26.16390991 66.63955688 C-20.4817622 49.82290552 -13.75542978 33.40764231 -7 17 C-6.3390232 15.39274366 -5.67805333 13.78548447 -5.01708984 12.17822266 C-3.34665516 8.11801855 -1.6739349 4.0587622 0 0 Z " fill="#F5F5F5" transform="translate(237,161)"/>
<path d="M0 0 C14.55126807 10.8616303 23.42770333 27.20487422 26.72167969 44.90478516 C27.18881939 48.42144559 27.11097263 51.89847446 27 55.4375 C26.81687636 61.28601134 27.35558366 64.99019188 30.09765625 70.11328125 C31.5599689 73.17084407 31.44457106 75.69747209 31 79 C29.74544028 81.82275936 28.71615278 83.46288541 26.25 85.3125 C22.96856187 86.31516165 20.41780831 86.35356638 17 86 C13.60101511 84.10441227 10.48165112 82.03312915 8 79 C8 78.34 8 77.68 8 77 C7.12601562 77.10441406 7.12601562 77.10441406 6.234375 77.2109375 C-1.71057345 77.73560391 -7.25539415 75.01120711 -14 71 C-14.495 70.505 -14.495 70.505 -15 70 C-17.52596259 69.76346477 -20.03107207 69.57826308 -22.5625 69.4375 C-23.27341797 69.39431641 -23.98433594 69.35113281 -24.71679688 69.30664062 C-26.47761912 69.20028223 -28.2387832 69.09961154 -30 69 C-29.99097656 67.93523437 -29.98195312 66.87046875 -29.97265625 65.7734375 C-30.09604639 56.0940422 -31.54408241 49.78547684 -36.27734375 41.26171875 C-41.4160192 31.53202713 -42.68020662 19.84096423 -40.37890625 9.1015625 C-37.91691458 1.81406717 -33.61702962 -1.5230137 -27.01953125 -5.0625 C-17.2780771 -9.41796054 -8.53782036 -5.30548628 0 0 Z " fill="#E74C3C" transform="translate(257,40)"/>
<path d="M0 0 C0.56783203 0.41967041 1.13566406 0.83934082 1.72070312 1.27172852 C14.56905936 10.63130467 30.18795808 12.7162796 45.65625 10.46875 C54.57397453 8.55185594 61.58725778 5.18891955 69 0 C69.19656644 7.87975053 68.43260292 15.54812067 67.5625 23.375 C67.36043945 25.27958984 67.36043945 25.27958984 67.15429688 27.22265625 C66.13262135 36.60213595 66.13262135 36.60213595 65 40 C63.515 40.495 63.515 40.495 62 41 C68.93 41 75.86 41 83 41 C83.99 43.97 83.99 43.97 85 47 C77.41 47 69.82 47 62 47 C62 47.66 62 48.32 62 49 C60.43765625 49.29390625 60.43765625 49.29390625 58.84375 49.59375 C43.81665556 52.64579739 29.3785002 58.18004144 19 70 C18.12761142 72.67790896 18.12761142 72.67790896 18 75 C11.66752577 75.4871134 11.66752577 75.4871134 8.6875 73.3125 C5.7850917 69.33512567 4.76348859 65.52418491 4.31396484 60.66577148 C4.21401215 59.62376083 4.11405945 58.58175018 4.01107788 57.50816345 C3.91203156 56.39043045 3.81298523 55.27269745 3.7109375 54.12109375 C3.60278717 52.95804214 3.49463684 51.79499054 3.38320923 50.59669495 C3.15609723 48.13503047 2.93274949 45.67301623 2.71289062 43.21069336 C2.37833779 39.47477276 2.0299718 35.74033407 1.6796875 32.00585938 C1.46010582 29.60684681 1.24133042 27.20776029 1.0234375 24.80859375 C0.92034271 23.70503036 0.81724792 22.60146698 0.71102905 21.46446228 C0.0796888 14.29088494 -0.11912377 7.20001655 0 0 Z " fill="#E74C3C" transform="translate(43,195)"/>
<path d="M0 0 C3.25 1 3.25 1 4.6875 3.0625 C4.873125 3.701875 5.05875 4.34125 5.25 5 C5.9925 4.9175 6.735 4.835 7.5 4.75 C11.07049467 5.07459042 11.85237746 6.44769213 14.25 9 C16.3881966 9.7872678 16.3881966 9.7872678 18.25 10 C18.25 10.66 18.25 11.32 18.25 12 C19.013125 12.061875 19.77625 12.12375 20.5625 12.1875 C23.25 13 23.25 13 25.0625 15.4375 C26.25 18 26.25 18 26.25 20 C27.57 20 28.89 20 30.25 20 C29.755 22.475 29.755 22.475 29.25 25 C29.85328125 24.95359375 30.4565625 24.9071875 31.078125 24.859375 C37.58989267 24.56529517 37.58989267 24.56529517 40.8125 26.6875 C42.51112354 29.42006831 42.74914154 30.83877026 42.25 34 C41.26 34.99 41.26 34.99 40.25 36 C40.58 36.99 40.91 37.98 41.25 39 C38.77254617 43.61961316 35.21800538 48.0892287 30.25 50 C26.32995074 49.80399754 23.30741275 48.4459302 20.25 46 C19.9375 43.3125 19.9375 43.3125 20.25 41 C20.02441406 41.63421875 19.79882812 42.2684375 19.56640625 42.921875 C18.25 45 18.25 45 16.08984375 45.828125 C4.20301002 47.55595547 -7.7663783 47.18210062 -19.75 47 C-19.75 46.34 -19.75 45.68 -19.75 45 C-20.8328125 44.814375 -20.8328125 44.814375 -21.9375 44.625 C-24.75 44 -24.75 44 -27.1875 43 C-30.02949909 41.89092718 -32.73593192 41.42056764 -35.75 41 C-35.75 41.66 -35.75 42.32 -35.75 43 C-36.513125 43.28875 -37.27625 43.5775 -38.0625 43.875 C-40.90029308 44.96269013 -40.90029308 44.96269013 -43.75 47 C-48.80908096 40.92560175 -48.80908096 40.92560175 -48.5625 37.0625 C-48.1603125 36.0415625 -48.1603125 36.0415625 -47.75 35 C-48.74 34.67 -49.73 34.34 -50.75 34 C-50.2859375 32.63875 -50.2859375 32.63875 -49.8125 31.25 C-49.461875 30.1775 -49.11125 29.105 -48.75 28 C-48.523125 27.360625 -48.29625 26.72125 -48.0625 26.0625 C-47.60509813 23.7390639 -47.60509813 23.7390639 -48.3125 20.375 C-48.456875 19.26125 -48.60125 18.1475 -48.75 17 C-48.09 16.34 -47.43 15.68 -46.75 15 C-45.615625 15.020625 -44.48125 15.04125 -43.3125 15.0625 C-41.5490625 15.0315625 -41.5490625 15.0315625 -39.75 15 C-39.275625 14.505 -38.80125 14.01 -38.3125 13.5 C-37.796875 13.005 -37.28125 12.51 -36.75 12 C-35.47125 12.061875 -34.1925 12.12375 -32.875 12.1875 C-30.75397274 12.35638745 -30.75397274 12.35638745 -28.75 12 C-27.01526288 10.05874656 -25.3454349 8.05727132 -23.75 6 C-20.4375 5.125 -20.4375 5.125 -17.75 5 C-17.75 5.99 -17.75 6.98 -17.75 8 C-17.09 6.35 -16.43 4.7 -15.75 3 C-14.88375 3.2475 -14.0175 3.495 -13.125 3.75 C-9.62556801 4.36119042 -9.62556801 4.36119042 -6.8125 2 C-3.75 0 -3.75 0 0 0 Z " fill="#A2CA39" transform="translate(121.75,247)"/>
<path d="M0 0 C6.91620376 1.04147921 12.6266149 4.97926413 18.5234375 8.5234375 C19.76204275 9.25366335 21.00147174 9.98249371 22.24169922 10.70996094 C24.71661518 12.16352724 27.18677204 13.62474813 29.65429688 15.09082031 C32.78821313 16.94588062 35.95243114 18.74115865 39.1328125 20.515625 C40.01146973 21.00885254 40.89012695 21.50208008 41.79541016 22.01025391 C43.40593195 22.91246346 45.02002236 23.80834234 46.63818359 24.69677734 C47.34539551 25.09848145 48.05260742 25.50018555 48.78125 25.9140625 C49.38855957 26.25211914 49.99586914 26.59017578 50.62158203 26.93847656 C52.50801652 28.43338691 53.21738247 29.95467148 54.1484375 32.1484375 C53.78492188 32.68210938 53.42140625 33.21578125 53.046875 33.765625 C44.75978507 45.62771602 44.75978507 45.62771602 40.1484375 59.1484375 C38.4984375 59.1484375 36.8484375 59.1484375 35.1484375 59.1484375 C35.1484375 58.1584375 35.1484375 57.1684375 35.1484375 56.1484375 C34.31054688 55.90609375 33.47265625 55.66375 32.609375 55.4140625 C28.70548494 53.98645485 25.30774197 52.04704174 21.7734375 49.8984375 C20.28411947 49.0099718 18.79451828 48.12198063 17.3046875 47.234375 C16.49257813 46.74807617 15.68046875 46.26177734 14.84375 45.76074219 C9.66473998 42.66271844 4.47229665 39.58801174 -0.7265625 36.5234375 C-1.7789209 35.8953418 -2.8312793 35.26724609 -3.91552734 34.62011719 C-4.90246582 34.03907227 -5.8894043 33.45802734 -6.90625 32.859375 C-7.78780762 32.33649902 -8.66936523 31.81362305 -9.57763672 31.27490234 C-11.87665895 29.926487 -11.87665895 29.926487 -14.8515625 30.1484375 C-8.34642004 0.3216673 -8.34642004 0.3216673 0 0 Z " fill="#A8BEC5" transform="translate(245.8515625,128.8515625)"/>
<path d="M0 0 C2.46558479 2.15082928 4.04497368 3.96027631 5.9375 6.5625 C7.69592081 8.08922301 9.49039605 9.55489946 11.31640625 11 C14.10972277 13.69235327 14.87106954 15.98676932 15.3125 19.8125 C14.76554091 25.2820909 13.16448809 29.3303806 9.2421875 33.26171875 C-1.16939466 41.62892141 -14.92761887 44.56166687 -28.0625 43.5625 C-38.88988882 42.20695836 -50.25055877 38.54011306 -57.4453125 29.90234375 C-60.42741228 25.32492485 -60.72864572 21.80839751 -60.0625 16.5625 C-57.97888749 12.61851918 -55.81562548 9.97522352 -52.0625 7.5625 C-52.2275 8.696875 -52.3925 9.83125 -52.5625 11 C-53.66832488 19.33737824 -53.66832488 19.33737824 -51.875 27.375 C-46.32816914 34.06945104 -38.93627123 36.49913173 -30.625 38.3125 C-17.93573418 39.20297479 -5.40533381 38.89146473 4.9375 30.5625 C7.36750935 28.31474135 8.73567613 26.87953014 9.2421875 23.57421875 C9.36846538 19.73677443 9.09037053 17.79180579 6.9375 14.5625 C6.57011719 15.34173828 6.57011719 15.34173828 6.1953125 16.13671875 C2.77557559 22.51629692 -1.25564822 25.26263727 -8.0625 27.5625 C-20.08680724 30.57611084 -32.99061971 30.53169758 -44.06640625 24.46484375 C-48.13544051 21.82294468 -50.51660769 19.29679519 -52.0625 14.5625 C-52.19256063 8.70977184 -48.98827306 3.70899925 -45.0625 -0.4375 C-32.37398105 -7.85602705 -12.33055715 -8.35795087 0 0 Z " fill="#D7D7D7" transform="translate(100.0625,158.4375)"/>
<path d="M0 0 C4.73188546 1.71133407 8.99981682 4.10908275 13.375 6.5625 C14.1592334 6.99997559 14.9434668 7.43745117 15.75146484 7.88818359 C23.26269169 12.10216823 30.65003003 16.51196524 38 21 C36 22 36 22 33.5625 21.875 C31.0233777 21.7601112 31.0233777 21.7601112 29.4609375 23.14672852 C27.55150923 25.56893272 26.91869319 27.81534709 26.0625 30.77734375 C25.72476563 31.93169922 25.38703125 33.08605469 25.0390625 34.27539062 C24.69617188 35.48388672 24.35328125 36.69238281 24 37.9375 C23.65710938 39.11119141 23.31421875 40.28488281 22.9609375 41.49414062 C21.01446754 48.21391954 19.26500559 54.92783669 17.80859375 61.77172852 C17.54175781 62.50705811 17.27492187 63.2423877 17 64 C14 65 14 65 11.19677734 63.75244141 C9.53316162 62.81150635 9.53316162 62.81150635 7.8359375 61.8515625 C6.94692245 61.35358658 6.94692245 61.35358658 6.03994751 60.84555054 C4.14614212 59.78144911 2.2607683 58.70326772 0.375 57.625 C-0.90314332 56.90535677 -2.18178373 56.18659564 -3.4609375 55.46875 C-12.78764744 50.21235256 -12.78764744 50.21235256 -14 49 C-13.57236958 40.95199552 -11.37313945 33.51983114 -9.125 25.8125 C-8.77308594 24.56791016 -8.42117187 23.32332031 -8.05859375 22.04101562 C-5.94293662 14.69913485 -3.86953484 8.0289479 1 2 C0.67 1.34 0.34 0.68 0 0 Z " fill="#C0392B" transform="translate(211,108)"/>
<path d="M0 0 C0.65484375 0.44730469 1.3096875 0.89460938 1.984375 1.35546875 C12.7707603 8.50068726 23.33056327 12.48654723 36 15 C36 14.67 36 14.34 36 14 C39.93778511 14.1387078 43.87514223 14.28718492 47.8125 14.4375 C48.93205078 14.47681641 50.05160156 14.51613281 51.20507812 14.55664062 C52.81479492 14.61948242 52.81479492 14.61948242 54.45703125 14.68359375 C55.44678955 14.72025146 56.43654785 14.75690918 57.45629883 14.79467773 C60 15 60 15 63 16 C65.06587115 15.91426773 67.12946525 15.76166465 69.1875 15.5625 C70.27417969 15.46066406 71.36085938 15.35882813 72.48046875 15.25390625 C73.72763672 15.12822266 73.72763672 15.12822266 75 15 C75.29530838 21.49678438 74.17293889 27.6221448 73 34 C80.02660814 31.50621423 85.96274968 28.37481908 92 24 C91.25430055 28.27166103 89.43452008 29.88891625 86.15234375 32.546875 C72.03818031 42.07585649 50.69138575 42.32471959 34.54296875 39.3125 C25.11061336 36.81661765 16.90159327 32.90026995 11 25 C10.01198111 23.21329407 9.08023025 21.39446934 8.203125 19.55078125 C7.71972656 18.53822266 7.23632812 17.52566406 6.73828125 16.48242188 C6.24714844 15.43634766 5.75601563 14.39027344 5.25 13.3125 C4.74339844 12.25482422 4.23679687 11.19714844 3.71484375 10.10742188 C0 2.27220561 0 2.27220561 0 0 Z " fill="#FDFDFC" transform="translate(66,294)"/>
<path d="M0 0 C0.66 0.33 1.32 0.66 2 1 C1.69964844 1.50789062 1.39929687 2.01578125 1.08984375 2.5390625 C-1.4519569 7.13767671 -1.4519569 7.13767671 -1.8125 12.3125 C-0.91333412 16.35361706 -0.91333412 16.35361706 1.8359375 19.0625 C2.55007812 19.371875 3.26421875 19.68125 4 20 C4.59039062 20.33 5.18078125 20.66 5.7890625 21 C16.61153482 26.89479343 28.34297582 27.11453311 40.23046875 24.2109375 C46.22302317 22.22150648 50.95818793 20.00028486 53.95703125 14.125 C54.69985169 12.44263042 55.35796681 10.72335225 56 9 C58.57721337 12.86582005 59.5424377 16.12709201 59.46484375 20.80859375 C58.51532964 25.28487457 55.42821733 28.15893592 52 31 C39.57819993 38.61990639 24.94437102 38.19793781 11.2109375 34.984375 C5.13795663 33.12258524 0.08856028 29.90627234 -4 25 C-6.04367839 18.86896483 -5.06808374 12.27499197 -4 6 C-4.804375 6.94875 -5.60875 7.8975 -6.4375 8.875 C-7.11619141 9.67550781 -7.11619141 9.67550781 -7.80859375 10.4921875 C-10.57886297 13.99816756 -10.49461674 17.705078 -10 22 C-8.61114752 24.81780534 -8.61114752 24.81780534 -7 27 C-7 27.66 -7 28.32 -7 29 C-6.41605469 29.27972656 -5.83210938 29.55945313 -5.23046875 29.84765625 C-3.14121992 30.9270405 -1.26126866 32.12606449 0.6875 33.4375 C13.50974817 41.51694634 28.10353242 41.06049202 42.43359375 37.98046875 C50.76905783 35.68890086 57.15111249 31.51892501 61.8125 24.125 C63.22729203 20.40186309 63.49447287 17.95578296 63 14 C60.86560518 10.03612391 58.70106529 7.50717326 55 5 C53.98198643 4.01834406 52.9753197 3.02408568 52 2 C55.6987636 2 56.35773852 2.84352062 59.0625 5.25 C60.10083984 6.15492188 60.10083984 6.15492188 61.16015625 7.078125 C65.15414899 11.25019385 65.27299658 14.59209992 65.25 20.3125 C65.25773437 22.22482422 65.25773437 22.22482422 65.265625 24.17578125 C65 28 65 28 64.05029297 31.17675781 C62.87179662 35.46668176 62.35823936 39.5809135 61.9296875 43.99609375 C61.84373322 44.82963882 61.75777893 45.6631839 61.66921997 46.52198792 C61.39855957 49.15992866 61.13664427 51.79865132 60.875 54.4375 C60.69198546 56.23638715 60.50839745 58.03521605 60.32421875 59.83398438 C59.8761781 64.22201054 59.43597318 68.61075912 59 73 C63.95 73 68.9 73 74 73 C73.95875 71.164375 73.9175 69.32875 73.875 67.4375 C73.85821211 59.81580001 74.83538465 52.51800801 76 45 C76.33 45 76.66 45 77 45 C76.67 54.9 76.34 64.8 76 75 C70.06 75 64.12 75 58 75 C58 76.65 58 78.3 58 80 C57.67 80 57.34 80 57 80 C57 78.35 57 76.7 57 75 C52.545 75.495 52.545 75.495 48 76 C48 75.67 48 75.34 48 75 C52.455 74.505 52.455 74.505 57 74 C57.4323088 69.73210031 57.85935089 65.46371451 58.28173828 61.19482422 C58.42583578 59.74579005 58.57131586 58.29689262 58.71826172 56.84814453 C58.93049092 54.75328352 59.13757129 52.65796416 59.34375 50.5625 C59.46943359 49.30566406 59.59511719 48.04882812 59.72460938 46.75390625 C60.01400448 42.80910199 60.04596936 38.95336457 60 35 C59.34257812 35.58007812 59.34257812 35.58007812 58.671875 36.171875 C47.13435701 45.64577189 32.43559944 46.98424542 18 46 C8.97899721 44.66782866 -0.54097503 41.68785637 -7 35 C-7.15172991 42.98333236 -6.70048023 50.80134488 -5.94140625 58.74609375 C-5.8327977 59.91962906 -5.72418915 61.09316437 -5.61228943 62.30226135 C-5.38351302 64.7621993 -5.15228366 67.22191025 -4.91870117 69.68139648 C-4.56127186 73.45045061 -4.21267937 77.22024808 -3.86523438 80.99023438 C-3.64114354 83.38806935 -3.41655196 85.78585759 -3.19140625 88.18359375 C-3.08719864 89.30962509 -2.98299103 90.43565643 -2.87562561 91.59580994 C-2.77559738 92.64112381 -2.67556915 93.68643768 -2.57250977 94.76342773 C-2.48590591 95.68067123 -2.39930206 96.59791473 -2.31007385 97.54295349 C-2.02938239 99.76717192 -1.59878566 101.8423995 -1 104 C-4.21773228 101.22756687 -4.49343093 98.95744082 -4.87304688 94.7507019 C-4.93556641 93.9074234 -4.99808594 93.0641449 -5.0625 92.1953125 C-5.13919922 91.31134796 -5.21589844 90.42738342 -5.29492188 89.51663208 C-5.45743775 87.63512687 -5.61434671 85.75313031 -5.76611328 83.87072754 C-6.14327365 79.24145803 -6.57612509 74.61736858 -7 69.9921875 C-7.16709438 68.14326777 -7.3337597 66.29430922 -7.5 64.4453125 C-7.5825 63.52911133 -7.665 62.61291016 -7.75 61.66894531 C-7.91825601 59.78855299 -8.08489304 57.90801519 -8.25 56.02734375 C-8.49499812 53.24431823 -8.7469294 50.4619891 -9 47.6796875 C-9.07089844 46.85346893 -9.14179687 46.02725037 -9.21484375 45.17599487 C-9.68258479 40.11142874 -10.48346137 35.21297943 -11.56484985 30.24240112 C-12.21916127 26.87062551 -12.33873144 23.68825988 -12.375 20.25 C-12.40335938 19.01765625 -12.43171875 17.7853125 -12.4609375 16.515625 C-11.67277786 10.50423792 -8.28054556 6.90045464 -3.75 3.125 C-2.69039062 2.23167969 -2.69039062 2.23167969 -1.609375 1.3203125 C-1.07828125 0.88460937 -0.5471875 0.44890625 0 0 Z " fill="#96A8A2" transform="translate(51,161)"/>
<path d="M0 0 C3.25 1 3.25 1 4.6875 3.0625 C4.873125 3.701875 5.05875 4.34125 5.25 5 C5.9925 4.9175 6.735 4.835 7.5 4.75 C11.08184393 5.07562218 11.8772798 6.39766172 14.25 9 C15.56493168 9.70226554 16.89649406 10.37530495 18.25 11 C17.66992188 11.15855469 17.08984375 11.31710937 16.4921875 11.48046875 C10.99025428 13.12378544 7.28191158 14.86729063 3.25 19 C2.12440591 21.06136455 2.12440591 21.06136455 2.25 23 C2.91 23.66 3.57 24.32 4.25 25 C4.25 25.99 4.25 26.98 4.25 28 C3.0125 28.4125 1.775 28.825 0.5 29.25 C-3.06851293 30.6079297 -5.47501232 31.81501724 -7.75 35 C-8.55315654 38.14481791 -8.55315654 38.14481791 -8.75 41 C-11.86947118 40.62069323 -14.80310047 40.11303759 -17.75 39 C-19.3125 36.25 -19.3125 36.25 -20.75 33 C-26.72538995 27.50670096 -31.36052532 25.83946016 -39.4375 25.9375 C-40.13939453 25.94201172 -40.84128906 25.94652344 -41.56445312 25.95117188 C-43.29300538 25.96293073 -45.02151365 25.98086546 -46.75 26 C-48.4723033 22.78776766 -49.13789051 20.68495988 -48.75 17 C-48.09 16.34 -47.43 15.68 -46.75 15 C-45.615625 15.020625 -44.48125 15.04125 -43.3125 15.0625 C-41.5490625 15.0315625 -41.5490625 15.0315625 -39.75 15 C-39.275625 14.505 -38.80125 14.01 -38.3125 13.5 C-37.796875 13.005 -37.28125 12.51 -36.75 12 C-35.47125 12.061875 -34.1925 12.12375 -32.875 12.1875 C-30.75397274 12.35638745 -30.75397274 12.35638745 -28.75 12 C-27.01526288 10.05874656 -25.3454349 8.05727132 -23.75 6 C-20.4375 5.125 -20.4375 5.125 -17.75 5 C-17.75 5.99 -17.75 6.98 -17.75 8 C-17.09 6.35 -16.43 4.7 -15.75 3 C-14.88375 3.2475 -14.0175 3.495 -13.125 3.75 C-9.62556801 4.36119042 -9.62556801 4.36119042 -6.8125 2 C-3.75 0 -3.75 0 0 0 Z " fill="#C0392B" transform="translate(121.75,247)"/>
<path d="M0 0 C2.9375 2.1875 2.9375 2.1875 5 5 C5.3125 8.3125 5.3125 8.3125 5 11 C5.99 11.33 6.98 11.66 8 12 C9.1875 14.0625 9.1875 14.0625 10 16 C11.65 16 13.3 16 15 16 C15.66 13.36 16.32 10.72 17 8 C17.99 8.495 17.99 8.495 19 9 C18.69152766 11.93797442 18.37839777 14.87532282 18.0625 17.8125 C17.97548828 18.64587891 17.88847656 19.47925781 17.79882812 20.33789062 C17.71181641 21.14033203 17.62480469 21.94277344 17.53515625 22.76953125 C17.456604 23.50792236 17.37805176 24.24631348 17.29711914 25.00708008 C17 27 17 27 16 30 C16.66 30.33 17.32 30.66 18 31 C19.21105696 34.63317089 18.73251844 35.19357739 17.12109375 38.53515625 C16.69707275 39.42307861 16.27305176 40.31100098 15.83618164 41.22583008 C15.3746167 42.16193115 14.91305176 43.09803223 14.4375 44.0625 C13.97657959 45.00955811 13.51565918 45.95661621 13.04077148 46.93237305 C5.68933608 61.89176422 5.68933608 61.89176422 3 65 C2.01 65 1.02 65 0 65 C-2.19383356 66.24485404 -2.19383356 66.24485404 -4.4375 67.875 C-11.75362319 73 -11.75362319 73 -17 73 C-17.21432579 66.35590042 -16.51233701 60.46794133 -15 54 C-15.63421875 54.144375 -16.2684375 54.28875 -16.921875 54.4375 C-26.93774152 56.42960605 -36.82885336 56.18090972 -47 56 C-46.34 55.01 -45.68 54.02 -45 53 C-42.94384766 52.61523438 -42.94384766 52.61523438 -40.4140625 52.59375 C-39.02537964 52.56365845 -39.02537964 52.56365845 -37.60864258 52.53295898 C-36.1317395 52.51664429 -36.1317395 52.51664429 -34.625 52.5 C-27.10009912 52.30574222 -20.36628958 51.83097295 -13.14453125 49.62109375 C-11 49 -11 49 -8 49 C-7.06576355 45.98968256 -6.95550089 45.13349732 -8 42 C-6.205625 41.505 -6.205625 41.505 -4.375 41 C0.70819438 39.12772022 3.396266 35.64529817 6 31 C6 30.34 6 29.68 6 29 C5.34 28.67 4.68 28.34 4 28 C4.99 27.34 5.98 26.68 7 26 C6.74438677 23.6568787 6.40729228 21.32156597 6 19 C3.70370006 17.85185003 1.92301914 17.69230191 -0.625 17.4375 C-1.85089844 17.31181641 -1.85089844 17.31181641 -3.1015625 17.18359375 C-4.04128906 17.09271484 -4.04128906 17.09271484 -5 17 C-4.67 15.35 -4.34 13.7 -4 12 C-5.32 12 -6.64 12 -8 12 C-8.5878125 10.576875 -8.5878125 10.576875 -9.1875 9.125 C-11.19793856 5.65872662 -12.22699642 5.0197307 -16 4 C-10.7103688 -0.31006986 -6.78532035 -1.81749652 0 0 Z " fill="#A6CE44" transform="translate(156,255)"/>
<path d="M0 0 C4.99244216 4.39542568 4.99244216 4.39542568 5.47265625 8.23046875 C4.97667853 13.19910272 4.97667853 13.19910272 3.19140625 14.984375 C0.81640625 15.359375 0.81640625 15.359375 -1.80859375 14.984375 C-3.49609375 12.546875 -3.49609375 12.546875 -4.80859375 9.984375 C-5.46859375 9.654375 -6.12859375 9.324375 -6.80859375 8.984375 C-7.11796875 7.870625 -7.42734375 6.756875 -7.74609375 5.609375 C-8.81504521 1.51390896 -8.81504521 1.51390896 -11.80859375 -1.015625 C-16.27908257 -2.26736187 -19.18337242 -2.046958 -23.43359375 -0.453125 C-27.48314245 1.05512528 -27.48314245 1.05512528 -30.68359375 0.359375 C-32.80859375 -1.015625 -32.80859375 -1.015625 -34.24609375 -2.640625 C-35.86180611 -4.34682003 -35.86180611 -4.34682003 -38.99609375 -4.203125 C-39.92421875 -4.14125 -40.85234375 -4.079375 -41.80859375 -4.015625 C-42.30359375 -6.490625 -42.30359375 -6.490625 -42.80859375 -9.015625 C-47.1180115 -9.3674142 -49.84254191 -9.24256664 -53.43359375 -6.890625 C-54.54734375 -6.271875 -55.66109375 -5.653125 -56.80859375 -5.015625 C-59.28359375 -6.005625 -59.28359375 -6.005625 -61.80859375 -7.015625 C-62.46859375 -3.055625 -63.12859375 0.904375 -63.80859375 4.984375 C-64.13859375 4.984375 -64.46859375 4.984375 -64.80859375 4.984375 C-64.93359375 -2.765625 -64.93359375 -2.765625 -63.80859375 -5.015625 C-67.92388848 -3.48247598 -70.28077246 -2.58303288 -73.30859375 0.671875 C-76.59630768 3.71301038 -78.46601692 3.14521118 -82.80859375 2.984375 C-83.30359375 3.479375 -83.79859375 3.974375 -84.30859375 4.484375 C-85.80859375 5.984375 -85.80859375 5.984375 -89.43359375 6.109375 C-90.54734375 6.068125 -91.66109375 6.026875 -92.80859375 5.984375 C-93.13859375 6.314375 -93.46859375 6.644375 -93.80859375 6.984375 C-93.71921572 8.50956776 -93.56322229 10.03119429 -93.37109375 11.546875 C-93.18546875 13.01125 -92.99984375 14.475625 -92.80859375 15.984375 C-97.75859375 16.479375 -97.75859375 16.479375 -102.80859375 16.984375 C-102.78796875 15.911875 -102.76734375 14.839375 -102.74609375 13.734375 C-102.58564095 10.19655089 -102.58564095 10.19655089 -103.62109375 7.921875 C-103.80859375 5.984375 -103.80859375 5.984375 -101.71484375 3.1171875 C-78.60940957 -23.51684173 -26.06529487 -18.7061087 0 0 Z " fill="#EFF8A3" transform="translate(167.80859375,257.015625)"/>
<path d="M0 0 C3.30669165 2.84529281 3.8727945 4.20849913 4.5625 8.5 C3.84419004 12.96948423 2.53059678 14.23692426 -1 17 C-8.66160529 21.46926975 -17.10849811 22.13330164 -25.76171875 20.46875 C-30.61900943 19.13281355 -34.36398136 17.63601864 -38 14 C-39.56935594 10.86128812 -39.35201103 8.46144178 -39 5 C-29.82954032 -6.86765371 -12.31132557 -6.5177606 0 0 Z " fill="#FDFDFD" transform="translate(95,162)"/>
<path d="M0 0 C6.08267483 1.65087136 10.71885274 5.64327852 14 11 C14 11.99 14 12.98 14 14 C15.11375 14.144375 16.2275 14.28875 17.375 14.4375 C21 15 21 15 23 16 C22.8453125 14.6696875 22.8453125 14.6696875 22.6875 13.3125 C23 10 23 10 25.125 7.25 C28.95795139 4.25029891 32.13451427 3 37 3 C37.495 7.95 37.495 7.95 38 13 C38.66 13 39.32 13 40 13 C40.495 16.96 40.495 16.96 41 21 C37.65613602 22.01085428 34.6251882 22.11543463 31.140625 22.09765625 C30.02558594 22.09443359 28.91054687 22.09121094 27.76171875 22.08789062 C26.60285156 22.07951172 25.44398437 22.07113281 24.25 22.0625 C23.07566406 22.05798828 21.90132812 22.05347656 20.69140625 22.04882812 C17.79421928 22.03705094 14.89713546 22.02060326 12 22 C12 21.34 12 20.68 12 20 C11.278125 19.87625 10.55625 19.7525 9.8125 19.625 C7 19 7 19 4.5625 18 C1.72050091 16.89092718 -0.98593192 16.42056764 -4 16 C-4 16.66 -4 17.32 -4 18 C-4.763125 18.28875 -5.52625 18.5775 -6.3125 18.875 C-9.15029308 19.96269013 -9.15029308 19.96269013 -12 22 C-17.05908096 15.92560175 -17.05908096 15.92560175 -16.8125 12.0625 C-16.544375 11.381875 -16.27625 10.70125 -16 10 C-16.99 9.67 -17.98 9.34 -19 9 C-17.54362416 3.5385906 -17.54362416 3.5385906 -15.3125 1.328125 C-10.66283879 -1.34228854 -5.17903726 -0.54581471 0 0 Z " fill="#A1CB35" transform="translate(90,272)"/>
<path d="M0 0 C0.99 0 1.98 0 3 0 C4.125 6.625 4.125 6.625 3 10 C3.66 9.67 4.32 9.34 5 9 C7.6723621 8.86584528 10.32250488 8.95681459 13 9 C12.505 9.94875 12.01 10.8975 11.5 11.875 C9.85575631 14.72278166 9.85575631 14.72278166 10 17 C10.66 17.33 11.32 17.66 12 18 C11.9175 18.70125 11.835 19.4025 11.75 20.125 C12.0808255 23.92949327 13.75313314 25.98077266 16 29 C16.5775 28.505 17.155 28.01 17.75 27.5 C20 26 20 26 24 26 C24 25.34 24 24.68 24 24 C29.98511371 24.34302035 34.75117306 24.82307843 40 28 C40 28.33 40 28.66 40 29 C37.03 29.33 34.06 29.66 31 30 C30.67 31.32 30.34 32.64 30 34 C32.28375062 36.87583411 34.64084842 38.56036361 38 40 C35.525 40.495 35.525 40.495 33 41 C35.64 41.66 38.28 42.32 41 43 C41 43.33 41 43.66 41 44 C42.65 44.33 44.3 44.66 46 45 C46 45.33 46 45.66 46 46 C31.49370958 46.46316381 16.02372874 40.34353217 5 31 C5.77537109 32.58941406 5.77537109 32.58941406 6.56640625 34.2109375 C7.23218567 35.5987594 7.89752771 36.98679118 8.5625 38.375 C8.90474609 39.07367188 9.24699219 39.77234375 9.59960938 40.4921875 C10.46030712 42.30052216 11.23652436 44.14851956 12 46 C11.67 46.66 11.34 47.32 11 48 C-4.27579457 19.61164974 -4.27579457 19.61164974 -3.9375 11.875 C-3.55086978 7.98538931 -3.55086978 7.98538931 -6 6 C-4.35 6 -2.7 6 -1 6 C-1.020625 5.195625 -1.04125 4.39125 -1.0625 3.5625 C-1 1 -1 1 0 0 Z " fill="#A6CD43" transform="translate(62,264)"/>
<path d="M0 0 C2.57721337 3.86582005 3.5424377 7.12709201 3.46484375 11.80859375 C2.51532964 16.28487457 -0.57178267 19.15893592 -4 22 C-16.42180007 29.61990639 -31.05562898 29.19793781 -44.7890625 25.984375 C-50.86204337 24.12258524 -55.91143972 20.90627234 -60 16 C-60.96070434 13.11788698 -61.10581883 11.30149956 -61.0625 8.3125 C-61.05347656 7.50425781 -61.04445312 6.69601563 -61.03515625 5.86328125 C-61.02355469 5.24839844 -61.01195312 4.63351563 -61 4 C-58.5 5.375 -58.5 5.375 -56 7 C-56 7.66 -56 8.32 -56 9 C-55.12214844 9.433125 -55.12214844 9.433125 -54.2265625 9.875 C-52.87489288 10.55794886 -51.5328573 11.26111033 -50.2109375 12 C-39.38846518 17.89479343 -27.65702418 18.11453311 -15.76953125 15.2109375 C-9.77697683 13.22150648 -5.04181207 11.00028486 -2.04296875 5.125 C-1.30014831 3.44263042 -0.64203319 1.72335225 0 0 Z " fill="#A1B4BA" transform="translate(107,170)"/>
<path d="M0 0 C2.5625 2.125 2.5625 2.125 5 5 C5.77730469 5.82951172 5.77730469 5.82951172 6.5703125 6.67578125 C10.87300934 11.36301863 12.74700799 15.11589109 13.3125 21.5625 C12.97235053 25.30414416 12.33270132 27.08412335 10 30 C6.57234748 32.57073939 3.16028704 32.43037452 -1 32 C-7.98627394 28.10380876 -10.61826273 24.41251122 -13.21484375 17.0078125 C-14.35980885 12.62162777 -14.35100477 8.49481107 -14 4 C-13.01 3.67 -12.02 3.34 -11 3 C-11 2.34 -11 1.68 -11 1 C-7.20885096 -1.57798134 -4.3267358 -1.13861468 0 0 Z " fill="#F4F4F4" transform="translate(275,94)"/>
<path d="M0 0 C7.23223754 2.13679745 7.23223754 2.13679745 10 5 C10.31710938 6.22847656 10.63421875 7.45695312 10.9609375 8.72265625 C13.09796478 14.63196647 18.11515138 16.58153027 23.4375 19.3125 C25.3330735 20.32748298 27.22764357 21.3443427 29.12109375 22.36328125 C29.9608374 22.79938721 30.80058105 23.23549316 31.66577148 23.68481445 C33.93909856 24.96568601 35.95245117 26.38714611 38 28 C37.69024532 29.77131561 37.37709575 31.54203778 37.0625 33.3125 C36.88847656 34.29863281 36.71445312 35.28476563 36.53515625 36.30078125 C36 39 36 39 35 42 C30.3817417 41.45207105 27.01850353 39.41035512 23.1875 36.9375 C22.59001953 36.56044922 21.99253906 36.18339844 21.37695312 35.79492188 C19.91363423 34.87010434 18.45620477 33.93597935 17 33 C17 34.32 17 35.64 17 37 C18.5692223 38.44366015 18.5692223 38.44366015 20.71875 39.5078125 C21.48574219 39.93707031 22.25273437 40.36632812 23.04296875 40.80859375 C23.85378906 41.24300781 24.66460937 41.67742187 25.5 42.125 C27.09734309 42.99604718 28.69130986 43.87332479 30.28125 44.7578125 C31.34956055 45.33233154 31.34956055 45.33233154 32.43945312 45.91845703 C32.95443359 46.27536621 33.46941406 46.63227539 34 47 C34 47.66 34 48.32 34 49 C32.7315625 48.57267578 32.7315625 48.57267578 31.4375 48.13671875 C28.02502913 46.96036658 28.02502913 46.96036658 24.5625 46.14453125 C20.00402639 44.44010197 16.854402 43.04418244 14 39 C10.37014528 28.9882533 8 16.64774624 8 6 C7.236875 5.71125 6.47375 5.4225 5.6875 5.125 C3 4 3 4 0 2 C0 1.34 0 0.68 0 0 Z " fill="#F8F9F6" transform="translate(225,48)"/>
<path d="M0 0 C0.495 0.99 0.495 0.99 1 2 C0.29077148 3.99609375 0.29077148 3.99609375 -0.87890625 6.4375 C-1.30292725 7.32864502 -1.72694824 8.21979004 -2.16381836 9.13793945 C-2.6253833 10.08241943 -3.08694824 11.02689941 -3.5625 12 C-4.02342041 12.95156982 -4.48434082 13.90313965 -4.95922852 14.88354492 C-12.2843874 29.86139479 -12.2843874 29.86139479 -15 33 C-15.99 33 -16.98 33 -18 33 C-20.19383356 34.24485404 -20.19383356 34.24485404 -22.4375 35.875 C-29.75362319 41 -29.75362319 41 -35 41 C-35.24091535 33.7725395 -34.34495828 27.09705662 -33 20 C-31.12699975 19.34838988 -29.2514945 18.70397805 -27.375 18.0625 C-26.33085937 17.70285156 -25.28671875 17.34320313 -24.2109375 16.97265625 C-21.14029714 16.04249877 -18.172522 15.45253692 -15 15 C-15 14.34 -15 13.68 -15 13 C-13.49609375 11.9921875 -13.49609375 11.9921875 -11.4375 10.875 C-6.65320964 8.03512711 -3.43240048 4.32267935 0 0 Z " fill="#090908" transform="translate(174,287)"/>
<path d="M0 0 C1 3 1 3 0.5625 5.125 C-0.4236279 10.16520925 -0.83599925 15.02000178 1.1875 19.8125 C6.73433086 26.50695104 14.12622877 28.93663173 22.4375 30.75 C35.12676582 31.64047479 47.65716619 31.32896473 58 23 C61.22312269 20.01861151 61.92784128 18.7095607 62.375 14.3125 C62.13357745 9.45619246 61.08513526 4.72808937 60 0 C66.95348837 5.44186047 66.95348837 5.44186047 68 9 C68.68429523 14.93055863 67.44322741 19.22422413 64 24 C55.13406304 32.88636538 42.13298924 35.94463564 29.9375 36.25 C18.00010787 35.94826497 5.76116139 32.41798226 -3 24 C-5.77235341 20.67160961 -7.23559393 17.27541212 -7.5 12.9375 C-6.78504333 7.30721626 -4.16033393 3.74430054 0 0 Z " fill="#FAFAFA" transform="translate(47,166)"/>
<path d="M0 0 C2.6875 1.6875 2.6875 1.6875 4 4 C4.375 6.625 4.375 6.625 4 9 C3.34 9.66 2.68 10.32 2 11 C2.33 11.99 2.66 12.98 3 14 C0.52254617 18.61961316 -3.03199462 23.0892287 -8 25 C-11.9564507 24.80217747 -14.87897693 23.40277438 -18 21 C-18.453125 18.22265625 -18.453125 18.22265625 -18.25 15.0625 C-18.05338299 11.45636525 -17.89874816 8.46226905 -19 5 C-13.00308807 0.18872395 -7.65756143 -1.32747453 0 0 Z " fill="#F0F9A4" transform="translate(160,272)"/>
<path d="M0 0 C1.43472656 0.00676758 1.43472656 0.00676758 2.8984375 0.01367188 C5.22402758 0.02529983 7.5494776 0.04163898 9.875 0.0625 C10.865 3.0325 10.865 3.0325 11.875 6.0625 C4.285 6.0625 -3.305 6.0625 -11.125 6.0625 C-11.125 6.7225 -11.125 7.3825 -11.125 8.0625 C-12.1665625 8.2584375 -13.208125 8.454375 -14.28125 8.65625 C-29.09742488 11.665459 -42.44141576 16.98322745 -53.125 28.0625 C-51.04359388 19.73687551 -45.18457177 12.8001974 -38.125 8.0625 C-34.5392811 6.17555463 -30.88234811 4.57460351 -27.125 3.0625 C-26.114375 2.65 -25.10375 2.2375 -24.0625 1.8125 C-16.21679693 -0.19065823 -8.04691125 -0.07346197 0 0 Z " fill="#C2D608" transform="translate(116.125,235.9375)"/>
<path d="M0 0 C12.65036249 0.52232111 27.7971534 5.93921329 37.06640625 14.72265625 C39.6324144 17.61997178 41.57150213 20.48308215 42.87890625 24.16015625 C42.44140625 26.3359375 42.44140625 26.3359375 41.87890625 28.16015625 C41.05390625 27.17015625 40.22890625 26.18015625 39.37890625 25.16015625 C22.53165446 8.51547662 -3.12817496 8.4565981 -25.12109375 8.16015625 C-25.12109375 7.83015625 -25.12109375 7.50015625 -25.12109375 7.16015625 C-17.86109375 6.83015625 -10.60109375 6.50015625 -3.12109375 6.16015625 C-3.45109375 4.51015625 -3.78109375 2.86015625 -4.12109375 1.16015625 C-3.12109375 0.16015625 -3.12109375 0.16015625 0 0 Z " fill="#A5B973" transform="translate(130.12109375,234.83984375)"/>
<path d="M0 0 C2.9375 2.1875 2.9375 2.1875 5 5 C5.3125 8.3125 5.3125 8.3125 5 11 C5.99 11.33 6.98 11.66 8 12 C9.1875 14.0625 9.1875 14.0625 10 16 C11.65 16 13.3 16 15 16 C15.66 13.36 16.32 10.72 17 8 C17.66 8.33 18.32 8.66 19 9 C18.34 14.94 17.68 20.88 17 27 C16.67 27 16.34 27 16 27 C15.67 25.02 15.34 23.04 15 21 C14.34 21 13.68 21 13 21 C12.7525 21.61875 12.505 22.2375 12.25 22.875 C10.79371361 25.35068687 9.62187494 25.95125002 7 27 C7.061875 26.071875 7.12375 25.14375 7.1875 24.1875 C7.29528044 21.08649723 7.29528044 21.08649723 5.78125 19.34375 C3.56023686 17.66824886 2.06777564 17.51215766 -0.6875 17.3125 C-1.49574219 17.24675781 -2.30398437 17.18101562 -3.13671875 17.11328125 C-3.75160156 17.07589844 -4.36648437 17.03851563 -5 17 C-4.67 15.35 -4.34 13.7 -4 12 C-5.32 12 -6.64 12 -8 12 C-8.5878125 10.576875 -8.5878125 10.576875 -9.1875 9.125 C-11.19793856 5.65872662 -12.22699642 5.0197307 -16 4 C-10.7103688 -0.31006986 -6.78532035 -1.81749652 0 0 Z " fill="#9EC53A" transform="translate(156,255)"/>
<path d="M0 0 C0.66 0 1.32 0 2 0 C2.95175129 1.1595704 3.86058485 2.35445417 4.75 3.5625 C11.3917017 11.38525744 21.97343754 15.62565452 32 17 C36.2131778 17.24163095 40.40623385 17.23509891 44.625 17.1875 C45.718125 17.18685547 46.81125 17.18621094 47.9375 17.18554688 C56.024432 17.16176534 56.024432 17.16176534 64 16 C64.33 15.34 64.66 14.68 65 14 C65 14.66 65 15.32 65 16 C72.02660814 13.50621423 77.96274968 10.37481908 84 6 C83.25430055 10.27166103 81.43452008 11.88891625 78.15234375 14.546875 C64.03818031 24.07585649 42.69138575 24.32471959 26.54296875 21.3125 C17.75429268 18.98694073 7.92325661 15.07414085 3 7 C1.89407043 4.69155311 0.93600563 2.38681435 0 0 Z " fill="#727E82" transform="translate(74,312)"/>
<path d="M0 0 C6.08267483 1.65087136 10.71885274 5.64327852 14 11 C14 11.99 14 12.98 14 14 C12.68 14.33 11.36 14.66 10 15 C9.319375 13.7934375 9.319375 13.7934375 8.625 12.5625 C7.25274335 9.91143428 7.25274335 9.91143428 5 9 C-0.37947987 8.61249346 -0.37947987 8.61249346 -5.4375 10.0625 C-7.31123948 12.04801389 -7.31123948 12.04801389 -7.5 15.5 C-8 19 -8 19 -10.0625 20.9375 C-10.701875 21.288125 -11.34125 21.63875 -12 22 C-17.05908096 15.92560175 -17.05908096 15.92560175 -16.8125 12.0625 C-16.544375 11.381875 -16.27625 10.70125 -16 10 C-16.99 9.67 -17.98 9.34 -19 9 C-17.54362416 3.5385906 -17.54362416 3.5385906 -15.3125 1.328125 C-10.66283879 -1.34228854 -5.17903726 -0.54581471 0 0 Z " fill="#EFF8A3" transform="translate(90,272)"/>
<path d="M0 0 C14.73884549 -1.27547701 31.57142987 3.94728624 42.9921875 13.21875 C48.95153338 18.50564051 48.95153338 18.50564051 49.3125 22.1875 C49 25 49 25 48 26 C45.625 26.375 45.625 26.375 43 26 C41.3125 23.5625 41.3125 23.5625 40 21 C39.34 20.67 38.68 20.34 38 20 C37.690625 18.88625 37.38125 17.7725 37.0625 16.625 C35.99354854 12.52953396 35.99354854 12.52953396 33 10 C28.52951118 8.74826313 25.62522133 8.968667 21.375 10.5625 C17.3254513 12.07075028 17.3254513 12.07075028 14.125 11.375 C12 10 12 10 10.5625 8.375 C8.94678764 6.66880497 8.94678764 6.66880497 5.8125 6.8125 C4.884375 6.874375 3.95625 6.93625 3 7 C2.67 5.35 2.34 3.7 2 2 C1.34 2 0.68 2 0 2 C0 1.34 0 0.68 0 0 Z " fill="#F0F9A4" transform="translate(123,246)"/>
<path d="M0 0 C0.33 0 0.66 0 1 0 C1.02712066 1.43739513 1.04645067 2.87493863 1.0625 4.3125 C1.07410156 5.11300781 1.08570313 5.91351563 1.09765625 6.73828125 C1 9 1 9 0 12 C0.598125 12.0825 1.19625 12.165 1.8125 12.25 C4.62932273 13.21576779 5.47799132 14.48868567 7 17 C7 17.66 7 18.32 7 19 C7.66 19.33 8.32 19.66 9 20 C5.24631695 24.34636984 0.54174793 25.37263231 -5 26 C-11.42331691 26.263071 -17.63048103 25.82187342 -24 25 C-24 24.67 -24 24.34 -24 24 C-21.36 24 -18.72 24 -16 24 C-15.896875 23.29875 -15.79375 22.5975 -15.6875 21.875 C-14.90640997 18.60862353 -13.57941257 15.9528148 -12 13 C-12.99 13.495 -12.99 13.495 -14 14 C-15.37548156 14.08308638 -16.75485796 14.10736016 -18.1328125 14.09765625 C-18.93847656 14.09443359 -19.74414062 14.09121094 -20.57421875 14.08789062 C-21.41597656 14.07951172 -22.25773437 14.07113281 -23.125 14.0625 C-23.97449219 14.05798828 -24.82398437 14.05347656 -25.69921875 14.04882812 C-27.79950909 14.03702874 -29.8997633 14.01909306 -32 14 C-32.33 14.99 -32.66 15.98 -33 17 C-33 15.68 -33 14.36 -33 13 C-34.98 13 -36.96 13 -39 13 C-39 12.67 -39 12.34 -39 12 C-38.01157104 12.00785522 -38.01157104 12.00785522 -37.00317383 12.01586914 C-25.27927542 12.09673773 -13.67584324 12.16758432 -2 11 C-1.34 7.37 -0.68 3.74 0 0 Z " fill="#556109" transform="translate(142,281)"/>
<path d="M0 0 C5.6131052 1.36075278 8.61031425 5.62621194 12 10 C13.50941005 13.0188201 13.17093272 15.8309686 13.1875 19.1875 C13.20167969 20.48042969 13.21585938 21.77335937 13.23046875 23.10546875 C13 27 13 27 12.05249023 30.18115234 C10.87055267 34.46968574 10.35818764 38.58144635 9.9296875 42.99609375 C9.84373322 43.82963882 9.75777893 44.6631839 9.66921997 45.52198792 C9.39855957 48.15992866 9.13664427 50.79865132 8.875 53.4375 C8.69198546 55.23638715 8.50839745 57.03521605 8.32421875 58.83398438 C7.8761781 63.22201054 7.43597318 67.61075912 7 72 C11.95 72 16.9 72 22 72 C21.95875 70.164375 21.9175 68.32875 21.875 66.4375 C21.85821211 58.81580001 22.83538465 51.51800801 24 44 C24.33 44 24.66 44 25 44 C24.67 53.9 24.34 63.8 24 74 C18.06 74 12.12 74 6 74 C6 75.65 6 77.3 6 79 C5.67 79 5.34 79 5 79 C5 77.35 5 75.7 5 74 C0.545 74.495 0.545 74.495 -4 75 C-4 74.67 -4 74.34 -4 74 C0.455 73.505 0.455 73.505 5 73 C5.4323088 68.73210031 5.85935089 64.46371451 6.28173828 60.19482422 C6.42583578 58.74579005 6.57131586 57.29689262 6.71826172 55.84814453 C6.93049092 53.75328352 7.13757129 51.65796416 7.34375 49.5625 C7.53227539 47.67724609 7.53227539 47.67724609 7.72460938 45.75390625 C8.01400448 41.80910199 8.04596936 37.95336457 8 34 C7.5153125 34.39832031 7.030625 34.79664063 6.53125 35.20703125 C1.85333514 38.90438319 -2.24248387 41.36870376 -8 43 C-10.234375 42.56640625 -10.234375 42.56640625 -12 42 C-11.01 42 -10.02 42 -9 42 C-9 40.35 -9 38.7 -9 37 C-8.19175781 36.62488281 -7.38351563 36.24976563 -6.55078125 35.86328125 C1.51445276 32.00091949 7.67940033 28.73842019 11 20 C11.54016234 15.6787013 11.3251256 13.60380468 9.25 9.75 C7.25960798 7.31729864 5.57320389 5.74313812 3 4 C1.25 2.375 1.25 2.375 0 1 C0 0.67 0 0.34 0 0 Z " fill="#1C1E0B" transform="translate(103,162)"/>
<path d="M0 0 C1.32 0.66 2.64 1.32 4 2 C4 2.99 4 3.98 4 5 C4.99 4.67 5.98 4.34 7 4 C7 4.66 7 5.32 7 6 C7.99 6 8.98 6 10 6 C10 7.98 10 9.96 10 12 C10.99 10.68 11.98 9.36 13 8 C14.32 8.99 15.64 9.98 17 11 C16.65066406 12.03640625 16.30132812 13.0728125 15.94140625 14.140625 C15.48169068 15.51038977 15.0220597 16.88018293 14.5625 18.25 C14.33240234 18.93191406 14.10230469 19.61382812 13.86523438 20.31640625 C12.79196286 23.52066613 11.73984392 26.70046619 11 30 C10.34 30 9.68 30 9 30 C9.66 26.04 10.32 22.08 11 18 C9.68 21.3 8.36 24.6 7 28 C6.67 27.01 6.34 26.02 6 25 C5.67 25.33 5.34 25.66 5 26 C4.34 26 3.68 26 3 26 C3.63190608 20.2075276 4.6701525 14.67401601 6 9 C4.35 13.95 2.7 18.9 1 24 C0.67 22.68 0.34 21.36 0 20 C-1.15811388 21.05270463 -1.15811388 21.05270463 -2 23 C-2.66 23 -3.32 23 -4 23 C-4.33 22.34 -4.66 21.68 -5 21 C-5.66 21 -6.32 21 -7 21 C-5.180206 13.74839665 -2.93841629 6.87619244 0 0 Z " fill="#5D5D5D" transform="translate(226,232)"/>
<path d="M0 0 C2.32265612 2.58072903 3 3.45176068 3 7 C1.14375 7.61875 1.14375 7.61875 -0.75 8.25 C-4.31851293 9.6079297 -6.72501232 10.81501724 -9 14 C-9.80315654 17.14481791 -9.80315654 17.14481791 -10 20 C-13.09411361 19.57344524 -16.04726326 19.0345355 -19 18 C-21.17084199 15.07771271 -20.99660443 13.18675608 -21.0625 9.5625 C-19.64840813 4.82113313 -17.08189072 2.65590269 -13 0 C-8.52745503 -1.49084832 -4.47254497 -1.49084832 0 0 Z " fill="#545F05" transform="translate(123,268)"/>
<path d="M0 0 C6.73685584 5.02865023 13.32562981 11.31963776 17 19 C16.67578125 21.29296875 16.67578125 21.29296875 16 23 C14.68 23.33 13.36 23.66 12 24 C11.55269531 23.33613281 11.10539062 22.67226563 10.64453125 21.98828125 C7.40038791 17.25003351 4.29005986 12.86105387 0 9 C-0.49886719 8.52046875 -0.99773437 8.0409375 -1.51171875 7.546875 C-7.81990651 1.72393245 -14.3655564 -2.30124108 -23.125 -2.3125 C-24.75142535 -2.23365667 -26.37759115 -2.13879924 -28 -2 C-27.67 -2.99 -27.34 -3.98 -27 -5 C-17.55664505 -9.72167747 -8.25580725 -5.13024054 0 0 Z " fill="#DBDBD9" transform="translate(257,40)"/>
<path d="M0 0 C7.23223754 2.13679745 7.23223754 2.13679745 10 5 C10.42386261 6.2827421 10.81636337 7.57602178 11.1875 8.875 C12.45184739 12.76861525 14.12162751 14.04991348 17.6875 16 C19.11331521 16.69130434 20.54752018 17.36663354 22 18 C21.67 18.99 21.34 19.98 21 21 C20.34 20.67 19.68 20.34 19 20 C19.33 20.66 19.66 21.32 20 22 C20.27175818 24.59248672 20.44572568 27.18448511 20.62109375 29.78515625 C20.74613281 30.51605469 20.87117188 31.24695313 21 32 C21.66 32.33 22.32 32.66 23 33 C22.67 33.99 22.34 34.98 22 36 C20.35 35.01 18.7 34.02 17 33 C17 34.32 17 35.64 17 37 C18.5692223 38.44366015 18.5692223 38.44366015 20.71875 39.5078125 C21.48574219 39.93707031 22.25273437 40.36632812 23.04296875 40.80859375 C23.85378906 41.24300781 24.66460937 41.67742187 25.5 42.125 C27.09734309 42.99604718 28.69130986 43.87332479 30.28125 44.7578125 C31.34956055 45.33233154 31.34956055 45.33233154 32.43945312 45.91845703 C32.95443359 46.27536621 33.46941406 46.63227539 34 47 C34 47.66 34 48.32 34 49 C32.7315625 48.57267578 32.7315625 48.57267578 31.4375 48.13671875 C28.02502913 46.96036658 28.02502913 46.96036658 24.5625 46.14453125 C20.00402639 44.44010197 16.854402 43.04418244 14 39 C10.37014528 28.9882533 8 16.64774624 8 6 C7.236875 5.71125 6.47375 5.4225 5.6875 5.125 C3 4 3 4 0 2 C0 1.34 0 0.68 0 0 Z " fill="#FBFBFA" transform="translate(225,48)"/>
<path d="M0 0 C3.00839813 2.41519286 5.75204689 4.84990781 8 8 C8 8.66 8 9.32 8 10 C5.17517292 8.70987334 3.1174188 7.32286866 0.875 5.1875 C-13.79951394 -7.59051955 -35.91290689 -9.92365488 -54.64404297 -8.74389648 C-60.75473567 -8.21262517 -66.64314583 -6.88469267 -72.55688477 -5.28466797 C-77.71601925 -3.90533975 -77.71601925 -3.90533975 -81 -5 C-80 -7 -80 -7 -77.05078125 -8.03515625 C-75.81714844 -8.37417969 -74.58351563 -8.71320313 -73.3125 -9.0625 C-71.48138672 -9.57490234 -71.48138672 -9.57490234 -69.61328125 -10.09765625 C-46.74923473 -15.80748841 -19.92099285 -13.09696822 0 0 Z " fill="#E4ED99" transform="translate(165,255)"/>
<path d="M0 0 C6.71224501 5.61636827 9.02033381 17.60286123 10 26 C10.31660947 31.13240622 10.03628691 35.94810132 9 41 C5.56853059 38.80430092 4.17473974 37.70727991 3.1796875 33.6796875 C3.07914062 32.42414063 2.97859375 31.16859375 2.875 29.875 C2.12130547 22.25964093 0.79097595 15.45402505 -2.75 8.625 C-4 6 -4 6 -3.875 3.75 C-3 2 -3 2 0 0 Z " fill="#050501" transform="translate(274,61)"/>
<path d="M0 0 C5.98511371 0.34302035 10.75117306 0.82307843 16 4 C16 4.33 16 4.66 16 5 C11.545 5.495 11.545 5.495 7 6 C6.67 7.32 6.34 8.64 6 10 C8.31970165 12.92110579 10.67927472 14.42003387 14 16 C7.23451764 17.32430718 2.35339646 16.90226071 -4.06640625 14.3984375 C-6 13 -6 13 -6.77734375 10.3515625 C-6.85082031 9.57554687 -6.92429687 8.79953125 -7 8 C-6.360625 7.87625 -5.72125 7.7525 -5.0625 7.625 C-4.381875 7.41875 -3.70125 7.2125 -3 7 C-2.67 6.34 -2.34 5.68 -2 5 C-2.66 5 -3.32 5 -4 5 C-4 4.01 -4 3.02 -4 2 C-2.68 2 -1.36 2 0 2 C0 1.34 0 0.68 0 0 Z " fill="#4B5402" transform="translate(86,288)"/>
<path d="M0 0 C0.76441406 0.07605469 1.52882812 0.15210938 2.31640625 0.23046875 C4.84383353 0.92399852 5.83377386 1.76329437 7.4375 3.8125 C8.125 6.5 8.125 6.5 8.4375 8.8125 C7.4475 8.4825 6.4575 8.1525 5.4375 7.8125 C0.72864683 7.33114739 0.72864683 7.33114739 -3.4375 9.125 C-4.74796123 10.93035467 -4.74796123 10.93035467 -5.5625 13.8125 C-7.41015625 14.54296875 -7.41015625 14.54296875 -9.625 15 C-10.35847656 15.15855469 -11.09195313 15.31710937 -11.84765625 15.48046875 C-12.41355469 15.59003906 -12.97945313 15.69960938 -13.5625 15.8125 C-15.1875 14.125 -15.1875 14.125 -16.5625 11.8125 C-15.68066686 6.89942963 -12.42669931 4.67200749 -8.5625 1.8125 C-5.49855164 -0.04215995 -3.55257346 -0.41476746 0 0 Z " fill="#EEF7A2" transform="translate(139.5625,258.1875)"/>
<path d="M0 0 C2.57853955 3.86780933 3.52837922 7.12391009 3.4765625 11.8046875 C2.51992396 16.21149783 -0.69724104 19.11505994 -4 22 C-7.36474079 24.07060972 -9.07208685 25 -13 25 C-13.48161489 21.55511574 -13.69551378 18.42447626 -13 15 C-11.16554407 13.3708603 -9.31309917 12.50029267 -7.11328125 11.42578125 C-3.17527435 8.76890044 -1.73071286 4.28517848 0 0 Z " fill="#0B0B0B" transform="translate(107,170)"/>
<path d="M0 0 C1.4375 2.0625 1.4375 2.0625 2 4 C2.7425 3.9175 3.485 3.835 4.25 3.75 C7.83184393 4.07562218 8.6272798 5.39766172 11 8 C12.31493168 8.70226554 13.64649406 9.37530495 15 10 C14.40832031 10.18175781 13.81664062 10.36351562 13.20703125 10.55078125 C8.787492 11.95667057 4.87459875 13.37527181 1 16 C1 14.35 1 12.7 1 11 C0.195625 10.7525 -0.60875 10.505 -1.4375 10.25 C-5.74324143 8.73921353 -9.85364007 6.89811144 -14 5 C-8.95181282 -0.18103421 -7.30300432 -1.69534029 0 0 Z " fill="#A3CA3B" transform="translate(125,248)"/>
<path d="M0 0 C2.56687367 3.8503105 1.83288724 5.58569763 1 10 C1.66 9.67 2.32 9.34 3 9 C5.6723621 8.86584528 8.32250488 8.95681459 11 9 C10.505 9.94875 10.01 10.8975 9.5 11.875 C7.85575631 14.72278166 7.85575631 14.72278166 8 17 C8.66 17.33 9.32 17.66 10 18 C9.9175 18.70125 9.835 19.4025 9.75 20.125 C10.0808255 23.92949327 11.75313314 25.98077266 14 29 C15.32 28.34 16.64 27.68 18 27 C18 27.66 18 28.32 18 29 C18.66 29 19.32 29 20 29 C19.67 29.99 19.34 30.98 19 32 C17.68 32 16.36 32 15 32 C14.67 33.32 14.34 34.64 14 36 C13.835 35.319375 13.67 34.63875 13.5 33.9375 C11.9411807 30.8848122 10.75193312 29.84471061 8.125 27.75 C3.74529349 24.02326791 1.25411286 20.66762542 0 15 C-0.30146181 9.97061218 -0.23883589 5.0354567 0 0 Z " fill="#94B538" transform="translate(64,264)"/>
<path d="M0 0 C4.73381127 1.15310787 8.16266685 2.14273035 11.625 5.6875 C13.48200383 10.16119105 13.15366085 12.30844586 12 17 C10.75 19 10.75 19 9 20 C6.3125 20.1875 6.3125 20.1875 4 20 C3.67 17.36 3.34 14.72 3 12 C2.34 12 1.68 12 1 12 C0.63896464 10.18885568 0.28634496 8.37603177 -0.0625 6.5625 C-0.25972656 5.55316406 -0.45695312 4.54382813 -0.66015625 3.50390625 C-0.77230469 2.67761719 -0.88445312 1.85132813 -1 1 C-0.67 0.67 -0.34 0.34 0 0 Z " fill="#B4CA67" transform="translate(127,273)"/>
<path d="M0 0 C0.66 0 1.32 0 2 0 C4.23298316 2.23298316 4.41467271 2.98974538 5 6 C5.21398437 6.90492188 5.42796875 7.80984375 5.6484375 8.7421875 C6.05816887 12.53903151 5.36990018 14.80936316 4.0625 18.375 C3.68222656 19.43460937 3.30195313 20.49421875 2.91015625 21.5859375 C2.60980469 22.38257813 2.30945313 23.17921875 2 24 C1.34 23.34 0.68 22.68 0 22 C-0.99 22.33 -1.98 22.66 -3 23 C-3.33 22.34 -3.66 21.68 -4 21 C-4.66 21 -5.32 21 -6 21 C-4.78880323 13.65313537 -2.71328887 6.92810652 0 0 Z " fill="#919191" transform="translate(244,243)"/>
<path d="M0 0 C0.66 0.33 1.32 0.66 2 1 C1.566875 1.76183594 1.566875 1.76183594 1.125 2.5390625 C-1.21514494 6.87808125 -2.50606482 9.93935183 -2 15 C-2.66 14.67 -3.32 14.34 -4 14 C-4 11.36 -4 8.72 -4 6 C-4.804375 6.94875 -5.60875 7.8975 -6.4375 8.875 C-7.11619141 9.67550781 -7.11619141 9.67550781 -7.80859375 10.4921875 C-11.44477586 15.0940442 -10.40235466 21.43409381 -10 27 C-9.01488198 29.3396553 -8.01529541 31.67328135 -7 34 C-6.92151155 35.80235171 -6.92167143 37.60876318 -6.97241211 39.41210938 C-7.05260405 45.9485835 -6.56558276 52.34121357 -5.94140625 58.84375 C-5.8327977 60.01587036 -5.72418915 61.18799072 -5.61228943 62.39562988 C-5.38372527 64.8496118 -5.15249776 67.303347 -4.91870117 69.75683594 C-4.56088367 73.51698534 -4.21242817 77.27791875 -3.86523438 81.0390625 C-3.64117191 83.43234293 -3.41658145 85.825574 -3.19140625 88.21875 C-3.03509483 89.90309143 -3.03509483 89.90309143 -2.87562561 91.62145996 C-2.77559738 92.66354614 -2.67556915 93.70563232 -2.57250977 94.77929688 C-2.48590591 95.69352417 -2.39930206 96.60775146 -2.31007385 97.54968262 C-2.02895598 99.7711792 -1.59775957 101.84481965 -1 104 C-4.21773228 101.22756687 -4.49343093 98.95744082 -4.87304688 94.7507019 C-4.93556641 93.9074234 -4.99808594 93.0641449 -5.0625 92.1953125 C-5.13919922 91.31134796 -5.21589844 90.42738342 -5.29492188 89.51663208 C-5.45743775 87.63512687 -5.61434671 85.75313031 -5.76611328 83.87072754 C-6.14327365 79.24145803 -6.57612509 74.61736858 -7 69.9921875 C-7.16709438 68.14326777 -7.3337597 66.29430922 -7.5 64.4453125 C-7.5825 63.52911133 -7.665 62.61291016 -7.75 61.66894531 C-7.91825601 59.78855299 -8.08489304 57.90801519 -8.25 56.02734375 C-8.49499812 53.24431823 -8.7469294 50.4619891 -9 47.6796875 C-9.07089844 46.85346893 -9.14179687 46.02725037 -9.21484375 45.17599487 C-9.68258479 40.11142874 -10.48346137 35.21297943 -11.56484985 30.24240112 C-12.21916127 26.87062551 -12.33873144 23.68825988 -12.375 20.25 C-12.40335938 19.01765625 -12.43171875 17.7853125 -12.4609375 16.515625 C-11.67277786 10.50423792 -8.28054556 6.90045464 -3.75 3.125 C-2.69039062 2.23167969 -2.69039062 2.23167969 -1.609375 1.3203125 C-1.07828125 0.88460937 -0.5471875 0.44890625 0 0 Z " fill="#444C02" transform="translate(51,161)"/>
<path d="M0 0 C3.58008906 0.51948845 6.86993292 1.54244486 10.25 2.8125 C11.55710937 3.28623047 11.55710937 3.28623047 12.890625 3.76953125 C15 5 15 5 15.921875 6.88671875 C16 9 16 9 14 13 C10.37 13 6.74 13 3 13 C2.34 11.68 1.68 10.36 1 9 C0.34 9 -0.32 9 -1 9 C-1.09765625 2.84765625 -1.09765625 2.84765625 -1 1 C-0.67 0.67 -0.34 0.34 0 0 Z " fill="#B5CC71" transform="translate(108,254)"/>
<path d="M0 0 C2.9375 2.1875 2.9375 2.1875 5 5 C5.12890625 8.17578125 5.12890625 8.17578125 5 11 C3.04174127 11.02694851 1.08337774 11.04637218 -0.875 11.0625 C-1.96554688 11.07410156 -3.05609375 11.08570313 -4.1796875 11.09765625 C-7 11 -7 11 -9 10 C-9.45375 9.195625 -9.9075 8.39125 -10.375 7.5625 C-12.12044388 4.81006927 -13.11586965 4.27590129 -16 3 C-10.45792649 0.07187499 -6.28560365 -2.05490889 0 0 Z " fill="#A4CD3E" transform="translate(156,255)"/>
<path d="M0 0 C3 1.625 3 1.625 5 4 C5.3125 7.25 5.3125 7.25 5 10 C1.6325319 10 -0.99299978 9.68568426 -4.25 9 C-5.14203125 8.814375 -6.0340625 8.62875 -6.953125 8.4375 C-7.62859375 8.293125 -8.3040625 8.14875 -9 8 C-9 8.66 -9 9.32 -9 10 C-10.32 10 -11.64 10 -13 10 C-13.3125 7.25 -13.3125 7.25 -13 4 C-9.33914351 -0.34726708 -5.37920232 -1.06282627 0 0 Z " fill="#E74C3C" transform="translate(95,280)"/>
<path d="M0 0 C0.33 0.66 0.66 1.32 1 2 C1.66 2 2.32 2 3 2 C1.48996827 9.80183058 -0.55143634 17.32715451 -5 24 C-5.66 24 -6.32 24 -7 24 C-7.33 24.66 -7.66 25.32 -8 26 C-8 25.34 -8 24.68 -8 24 C-8.66 24 -9.32 24 -10 24 C-10.16794917 14.42689711 -5.05017641 7.74360383 0 0 Z " fill="#232425" transform="translate(296,165)"/>
<path d="M0 0 C0.33 0.99 0.66 1.98 1 3 C-1.47745383 7.61961316 -5.03199462 12.0892287 -10 14 C-13.98741425 13.80062929 -16.70469694 12.16548487 -20 10 C-19.67 9.01 -19.34 8.02 -19 7 C-16.015625 5.68359375 -16.015625 5.68359375 -12.25 4.4375 C-8.1190781 3.05044359 -4.02698266 1.66766267 0 0 Z " fill="#E2EB9C" transform="translate(162,283)"/>
<path d="M0 0 C0.495 1.485 0.495 1.485 1 3 C-8.37528345 12.32290756 -19.45383184 16.05338728 -32.56640625 16.1953125 C-34.89851826 16.18217384 -37.23059235 16.15855263 -39.5625 16.125 C-40.76197266 16.11597656 -41.96144531 16.10695313 -43.19726562 16.09765625 C-46.13172309 16.07427412 -49.06575234 16.0415028 -52 16 C-52 15.67 -52 15.34 -52 15 C-43.75 15 -35.5 15 -27 15 C-27 14.34 -27 13.68 -27 13 C-27.99 12.67 -28.98 12.34 -30 12 C-28.82630859 11.81824219 -28.82630859 11.81824219 -27.62890625 11.6328125 C-26.11103516 11.38144531 -26.11103516 11.38144531 -24.5625 11.125 C-23.04849609 10.88136719 -23.04849609 10.88136719 -21.50390625 10.6328125 C-20.67761719 10.42398437 -19.85132813 10.21515625 -19 10 C-18.67 9.34 -18.34 8.68 -18 8 C-18 8.66 -18 9.32 -18 10 C-11.11032176 7.59990717 -5.59875686 4.69169569 0 0 Z " fill="#78868B" transform="translate(157,318)"/>
<path d="M0 0 C-1.375 1.5 -1.375 1.5 -3 3 C-3.66 3 -4.32 3 -5 3 C-5 3.66 -5 4.32 -5 5 C-7.43572059 5.83887056 -9.87333217 6.67126529 -12.3125 7.5 C-13.00279297 7.73847656 -13.69308594 7.97695313 -14.40429688 8.22265625 C-17.38931489 9.23208263 -19.82658914 10 -23 10 C-23 10.66 -23 11.32 -23 12 C-33.65404888 14.42531194 -44.13575149 14.19323762 -55 14 C-54.34 13.01 -53.68 12.02 -53 11 C-51.02319336 10.63110352 -51.02319336 10.63110352 -48.58984375 10.62890625 C-47.69007812 10.6144043 -46.7903125 10.59990234 -45.86328125 10.58496094 C-44.41501953 10.57384277 -44.41501953 10.57384277 -42.9375 10.5625 C-35.63418521 10.36414426 -28.63104143 9.89216918 -21.5 8.25 C-20.82573975 8.10506104 -20.15147949 7.96012207 -19.45678711 7.81079102 C-14.45974278 6.55820364 -11.71419124 4.38646849 -8 1 C-5.29120665 -0.35439668 -2.99066732 -0.06501451 0 0 Z " fill="#AAB07B" transform="translate(164,297)"/>
<path d="M0 0 C0.33 0.99 0.66 1.98 1 3 C1.66 3.33 2.32 3.66 3 4 C1.59150884 9.16446758 -1.68574198 12.9469666 -6 16 C-9.6875 16.25 -9.6875 16.25 -13 16 C-15.23024131 17.23513282 -15.23024131 17.23513282 -17 19 C-20.77777778 22 -20.77777778 22 -23 22 C-22.7215625 21.1028125 -22.7215625 21.1028125 -22.4375 20.1875 C-21.77906313 17.83591238 -21.77906313 17.83591238 -23 15 C-21.700625 14.95875 -20.40125 14.9175 -19.0625 14.875 C-13.31800325 14.21460904 -9.2539251 11.85897654 -5 8 C-3.04383016 5.46017109 -1.44416663 2.85930479 0 0 Z " fill="#9CB94A" transform="translate(171,282)"/>
<path d="M0 0 C5.61 0 11.22 0 17 0 C17.66 1.98 18.32 3.96 19 6 C12.73 6 6.46 6 0 6 C0 4.02 0 2.04 0 0 Z " fill="#D9F300" transform="translate(109,236)"/>
<path d="M0 0 C1.32 0 2.64 0 4 0 C4 0.66 4 1.32 4 2 C8.29 2.66 12.58 3.32 17 4 C17 4.33 17 4.66 17 5 C12.91068318 5.05001046 8.82148859 5.08600357 4.73193359 5.10986328 C3.34518324 5.11982603 1.95845335 5.13340118 0.57177734 5.15087891 C-7.49040344 5.24983708 -15.15724803 5.07347869 -23 3 C-21 1 -21 1 -18.95288086 0.78881836 C-18.13182861 0.80565674 -17.31077637 0.82249512 -16.46484375 0.83984375 C-15.57345703 0.85080078 -14.68207031 0.86175781 -13.76367188 0.87304688 C-12.83103516 0.89431641 -11.89839844 0.91558594 -10.9375 0.9375 C-9.09252339 0.9717838 -7.24746425 1.00195831 -5.40234375 1.02734375 C-4.17245728 1.05429321 -4.17245728 1.05429321 -2.91772461 1.08178711 C-0.99072326 1.21616836 -0.99072326 1.21616836 0 0 Z " fill="#90B029" transform="translate(116,303)"/>
<path d="M0 0 C1.32 0.66 2.64 1.32 4 2 C2.55613874 9.21930632 0.42211826 16.05110733 -2 23 C-2.66 23 -3.32 23 -4 23 C-4.33 22.34 -4.66 21.68 -5 21 C-5.66 21 -6.32 21 -7 21 C-5.180206 13.74839665 -2.93841629 6.87619244 0 0 Z " fill="#A0A0A0" transform="translate(226,232)"/>
<path d="M0 0 C1.32 0 2.64 0 4 0 C3.9175 1.27875 3.835 2.5575 3.75 3.875 C3.75 9.38288394 5.21893848 14.24472814 8 19 C9.31584558 20.02290185 10.64647262 21.02750764 12 22 C12 22.66 12 23.32 12 24 C12.8353125 24.0928125 12.8353125 24.0928125 13.6875 24.1875 C16.94987173 25.33373872 18.68667874 27.49390197 21 30 C17.60406522 30 16.93380119 29.47834052 14.3125 27.5 C13.68988281 27.0359375 13.06726563 26.571875 12.42578125 26.09375 C11.95527344 25.7328125 11.48476562 25.371875 11 25 C11.77537109 26.58941406 11.77537109 26.58941406 12.56640625 28.2109375 C13.23218567 29.5987594 13.89752771 30.98679118 14.5625 32.375 C14.90474609 33.07367188 15.24699219 33.77234375 15.59960938 34.4921875 C16.46030712 36.30052216 17.23652436 38.14851956 18 40 C17.67 40.66 17.34 41.32 17 42 C1.72420543 13.61164974 1.72420543 13.61164974 2.0625 5.875 C2.44913022 1.98538931 2.44913022 1.98538931 0 0 Z " fill="#85886E" transform="translate(56,270)"/>
<path d="M0 0 C1.65 0.33 3.3 0.66 5 1 C3.02 7.6 1.04 14.2 -1 21 C-1.66 21 -2.32 21 -3 21 C-3.33 20.01 -3.66 19.02 -4 18 C-4.66 18.66 -5.32 19.32 -6 20 C-4.85210257 12.90116066 -2.88549626 6.58341381 0 0 Z " fill="#818181" transform="translate(216,228)"/>
<path d="M0 0 C1.65 0.33 3.3 0.66 5 1 C5 1.66 5 2.32 5 3 C5.58007812 3.18175781 6.16015625 3.36351562 6.7578125 3.55078125 C11.39147293 5.0418106 15.69762355 6.68333576 20 9 C20.25 14.625 20.25 14.625 18 18 C16.68 17.67 15.36 17.34 14 17 C14.66 17 15.32 17 16 17 C16.33 14.69 16.66 12.38 17 10 C15.43979133 9.34865075 13.87671421 8.70417036 12.3125 8.0625 C11.44238281 7.70285156 10.57226562 7.34320313 9.67578125 6.97265625 C7.11820735 6.0429688 4.6778677 5.45837375 2 5 C2 8.3 2 11.6 2 15 C1.01 14.67 0.02 14.34 -1 14 C-1.02694851 12.04174127 -1.04637218 10.08337774 -1.0625 8.125 C-1.07410156 7.03445313 -1.08570312 5.94390625 -1.09765625 4.8203125 C-1 2 -1 2 0 0 Z " fill="#E74C3C" transform="translate(106,250)"/>
<path d="M0 0 C3.07745908 1.21465217 6.06176804 2.47647232 9 4 C9.14285714 11.42857143 9.14285714 11.42857143 8 15 C2.125 13.125 2.125 13.125 1 12 C0.76572222 9.98405418 0.58663876 7.961526 0.4375 5.9375 C0.35371094 4.83277344 0.26992187 3.72804688 0.18359375 2.58984375 C0.09271484 1.30787109 0.09271484 1.30787109 0 0 Z " fill="#E74C3C" transform="translate(244,68)"/>
<path d="M0 0 C0.33 0 0.66 0 1 0 C0.67 9.9 0.34 19.8 0 30 C-5.94 30 -11.88 30 -18 30 C-18 31.65 -18 33.3 -18 35 C-18.33 35 -18.66 35 -19 35 C-19 33.35 -19 31.7 -19 30 C-21.97 30.33 -24.94 30.66 -28 31 C-28 30.67 -28 30.34 -28 30 C-25.03 29.67 -22.06 29.34 -19 29 C-18.67 28.01 -18.34 27.02 -18 26 C-18 26.99 -18 27.98 -18 29 C-17.20335938 28.75443359 -17.20335938 28.75443359 -16.390625 28.50390625 C-13.46123236 27.88643623 -10.74177064 27.90498075 -7.75 27.9375 C-6.67234375 27.94652344 -5.5946875 27.95554688 -4.484375 27.96484375 C-3.66453125 27.97644531 -2.8446875 27.98804688 -2 28 C-2.02320312 27.23558594 -2.04640625 26.47117188 -2.0703125 25.68359375 C-2.21804409 16.9146689 -1.33919371 8.64497366 0 0 Z " fill="#515B26" transform="translate(127,206)"/>
<path d="M0 0 C1.4540625 0.06574219 1.4540625 0.06574219 2.9375 0.1328125 C4.4534375 0.21015625 4.4534375 0.21015625 6 0.2890625 C7.5159375 0.35480469 7.5159375 0.35480469 9.0625 0.421875 C16.60694876 0.78304542 16.60694876 0.78304542 20 1.9140625 C20 2.5740625 20 3.2340625 20 3.9140625 C15.70834738 3.94298199 11.41671964 3.96083368 7.125 3.9765625 C5.90167969 3.98494141 4.67835937 3.99332031 3.41796875 4.00195312 C1.66806641 4.00678711 1.66806641 4.00678711 -0.1171875 4.01171875 C-1.73536377 4.01957397 -1.73536377 4.01957397 -3.38623047 4.02758789 C-6 3.9140625 -6 3.9140625 -8 2.9140625 C-8 2.2540625 -8 1.5940625 -8 0.9140625 C-4.95411248 -0.10123334 -3.16591928 -0.14552645 0 0 Z " fill="#A8BABF" transform="translate(110,329.0859375)"/>
<path d="M0 0 C0 0.33 0 0.66 0 1 C-0.63800537 0.9592334 -1.27601074 0.9184668 -1.93334961 0.87646484 C-18.38046925 -0.12480544 -34.04505442 -0.66639863 -49.8984375 4.51171875 C-52 5 -52 5 -55 4 C-54.67 3.34 -54.34 2.68 -54 2 C-48.32634469 0.28456111 -42.69835639 -0.54044371 -36.8125 -1.125 C-35.56303589 -1.2502002 -35.56303589 -1.2502002 -34.28833008 -1.37792969 C-22.54558119 -2.48819442 -11.64495333 -1.95537447 0 0 Z " fill="#CAD37E" transform="translate(139,246)"/>
<path d="M0 0 C3.12395702 2.55596484 4.03166757 5.12667029 5 9 C5.43454614 13.95382605 5.21783772 17.09262562 2 21 C-0.1875 21.8125 -0.1875 21.8125 -2 22 C-1.01 20.515 -1.01 20.515 0 19 C0.3168217 16.62244051 0.3168217 16.62244051 0.25 14.0625 C0.25515625 13.20785156 0.2603125 12.35320312 0.265625 11.47265625 C-0.01425718 8.86728246 -0.78627097 7.28986934 -2 5 C-1.5 1.5 -1.5 1.5 0 0 Z " fill="#060606" transform="translate(283,103)"/>
<path d="M0 0 C3.9816102 1.75190849 7.83927279 3.99429483 11 7 C11.6875 9.625 11.6875 9.625 11 12 C9 13.8125 9 13.8125 7 15 C1.94091904 8.92560175 1.94091904 8.92560175 2.1875 5.0625 C2.455625 4.381875 2.72375 3.70125 3 3 C2.01 2.67 1.02 2.34 0 2 C0 1.34 0 0.68 0 0 Z " fill="#DBE494" transform="translate(71,279)"/>
<path d="M0 0 C4.20371683 1.17999069 5.753118 2.72238767 8.5625 6 C9.160625 6.598125 9.75875 7.19625 10.375 7.8125 C10.766875 8.204375 11.15875 8.59625 11.5625 9 C10.9025 10.65 10.2425 12.3 9.5625 14 C9.02625 13.278125 8.49 12.55625 7.9375 11.8125 C4.24401831 7.4386401 1.40651747 4.38664882 -4.3125 3.1875 C-5.34375 3.125625 -6.375 3.06375 -7.4375 3 C-4.85812294 0.42062294 -3.71746996 0 0 0 Z " fill="#A5B8B6" transform="translate(271.4375,93)"/>
<path d="M0 0 C0.66 4.29 1.32 8.58 2 13 C-2 10 -2 10 -2.75 6.3125 C-2.8325 5.219375 -2.915 4.12625 -3 3 C-7.82442184 4.26946514 -7.82442184 4.26946514 -11 8 C-11.38499891 9.65549531 -11.72793135 11.3222433 -12 13 C-12.66 13 -13.32 13 -14 13 C-14.4626052 9.0215953 -14.36873404 7.47718522 -11.875 4.25 C-8.04204861 1.25029891 -4.86548573 0 0 0 Z " fill="#D6ED01" transform="translate(127,275)"/>
<path d="M0 0 C0.66 0.33 1.32 0.66 2 1 C1.566875 1.76183594 1.566875 1.76183594 1.125 2.5390625 C-1.21514494 6.87808125 -2.50606482 9.93935183 -2 15 C-2.66 14.67 -3.32 14.34 -4 14 C-4 11.36 -4 8.72 -4 6 C-4.804375 6.94875 -5.60875 7.8975 -6.4375 8.875 C-7.11619141 9.67550781 -7.11619141 9.67550781 -7.80859375 10.4921875 C-10.38626835 13.75442487 -10.13410537 16.35374017 -10.125 20.4375 C-10.12757812 21.59121094 -10.13015625 22.74492187 -10.1328125 23.93359375 C-10.13895922 27.04125667 -10.13895922 27.04125667 -9 30 C-8.87218214 32.67394964 -8.95608129 35.32095857 -9 38 C-9.33 38 -9.66 38 -10 38 C-12.27774024 29.35678926 -14.68081746 17.8969599 -10.2421875 9.7890625 C-8.21078597 7.26219718 -6.23437272 5.1953106 -3.75 3.125 C-2.69039062 2.23167969 -2.69039062 2.23167969 -1.609375 1.3203125 C-1.07828125 0.88460937 -0.5471875 0.44890625 0 0 Z " fill="#4A4C4A" transform="translate(51,161)"/>
<path d="M0 0 C4.61723902 1.30992093 9.11062165 2.60295609 13.5 4.5625 C17.9121435 6.37463037 22.31406391 7.19858236 27 8 C27 8.33 27 8.66 27 9 C29.475 9.495 29.475 9.495 32 10 C32 10.33 32 10.66 32 11 C22.19492128 11.35288201 9.33652272 8.56473471 1 3 C0.67 2.01 0.34 1.02 0 0 Z " fill="#A9AE7D" transform="translate(76,299)"/>
<path d="M0 0 C2.62187494 1.04874998 3.79371361 1.64931313 5.25 4.125 C5.4975 4.74375 5.745 5.3625 6 6 C6.598125 5.01 7.19625 4.02 7.8125 3 C8.8953125 1.515 8.8953125 1.515 10 0 C10.99 0 11.98 0 13 0 C12.55946315 4.84590538 10.25494123 8.48141867 7 12 C6.34 12 5.68 12 5 12 C4.15885829 10.56705502 3.32734313 9.12845595 2.5 7.6875 C1.80390625 6.48673828 1.80390625 6.48673828 1.09375 5.26171875 C0 3 0 3 0 0 Z " fill="#8DB66C" transform="translate(266,106)"/>
<path d="M0 0 C1.98 0.99 3.96 1.98 6 3 C5.34 6.3 4.68 9.6 4 13 C0 12 0 12 -1 11 C-1.23529412 3.70588235 -1.23529412 3.70588235 0 0 Z " fill="#CDDF2C" transform="translate(255,74)"/>
<path d="M0 0 C4.19609583 0.28448107 7.20000694 0.61666999 11 2.4375 C13.67387196 5.86339844 13.48098929 8.32182518 13.37109375 12.5625 C12.98837094 15.07638458 12.26286798 16.80900013 11 19 C9.68 18.67 8.36 18.34 7 18 C7.99 17.67 8.98 17.34 10 17 C10.2052705 12.96301345 10.32971253 9.94792354 9 6.125 C6.02655571 2.96571544 3.22825138 2.76247156 -1 2 C-0.67 1.34 -0.34 0.68 0 0 Z " fill="#D5EC03" transform="translate(129,273)"/>
<path d="M0 0 C0.33 0.66 0.66 1.32 1 2 C1.66 2.33 2.32 2.66 3 3 C2.01 4.485 2.01 4.485 1 6 C0.67 5.67 0.34 5.34 0 5 C-1.65 9.95 -3.3 14.9 -5 20 C-5.33 18.68 -5.66 17.36 -6 16 C-6.33257812 15.06220703 -6.33257812 15.06220703 -6.671875 14.10546875 C-7.13617627 11.12620224 -6.28530718 9.12208361 -5.25 6.3125 C-4.73179687 4.85263672 -4.73179687 4.85263672 -4.203125 3.36328125 C-3 1 -3 1 0 0 Z " fill="#BABABA" transform="translate(232,236)"/>
<path d="M0 0 C0.66 0 1.32 0 2 0 C2.05449838 1.72880982 2.09301688 3.45812712 2.125 5.1875 C2.14820312 6.15042969 2.17140625 7.11335938 2.1953125 8.10546875 C1.99028339 11.14400021 1.19978499 13.22549722 0 16 C-0.16798262 18.70886941 -0.16798262 18.70886941 0 21 C-3.12472312 17.87527688 -2.96015274 14.29686335 -3 10 C-1.88495575 1.88495575 -1.88495575 1.88495575 0 0 Z " fill="#C2CB7A" transform="translate(62,264)"/>
<path d="M0 0 C0.33 2.31 0.66 4.62 1 7 C-1.31 6.67 -3.62 6.34 -6 6 C-6.33 7.32 -6.66 8.64 -7 10 C-7.33 10 -7.66 10 -8 10 C-8.36272727 3.59181818 -8.36272727 3.59181818 -6.8125 1.0625 C-4.43958382 -0.32851983 -2.70313576 -0.21917317 0 0 Z " fill="#BBD382" transform="translate(124,278)"/>
<path d="M0 0 C2.475 0.99 2.475 0.99 5 2 C3.02 8.6 1.04 15.2 -1 22 C-1.66 22 -2.32 22 -3 22 C-2.84402344 21.15695312 -2.68804687 20.31390625 -2.52734375 19.4453125 C-2.23537109 17.80175781 -2.23537109 17.80175781 -1.9375 16.125 C-1.74027344 15.03445312 -1.54304687 13.94390625 -1.33984375 12.8203125 C-0.74368101 10.05346717 -0.74368101 10.05346717 -2 8 C-1.66015625 6.0546875 -1.66015625 6.0546875 -1.0625 3.875 C-0.77052734 2.78832031 -0.77052734 2.78832031 -0.47265625 1.6796875 C-0.31667969 1.12539062 -0.16070312 0.57109375 0 0 Z " fill="#9A9A9A" transform="translate(238,240)"/>
<path d="M0 0 C3.02870862 3.02870862 3.16116839 6.14481686 3.25 10.3125 C3.21977902 14.87586771 2.06241241 17.96110902 0 22 C-2.19413151 18.70880274 -2.2045464 18.24874522 -1.7578125 14.55078125 C-1.66113281 13.70322266 -1.56445312 12.85566406 -1.46484375 11.98242188 C-1.35269531 11.10134766 -1.24054688 10.22027344 -1.125 9.3125 C-1.02058594 8.41982422 -0.91617188 7.52714844 -0.80859375 6.60742188 C-0.54931018 4.40351151 -0.27941634 2.20143331 0 0 Z " fill="#DFE795" transform="translate(174,266)"/>
<path d="M0 0 C0.66 0 1.32 0 2 0 C2.08628662 0.60827637 2.17257324 1.21655273 2.26147461 1.84326172 C3.21845272 4.63795416 4.25335731 5.11106036 6.81640625 6.5078125 C7.96206055 7.15169922 7.96206055 7.15169922 9.13085938 7.80859375 C9.93330078 8.24300781 10.73574219 8.67742187 11.5625 9.125 C13.15079669 9.99596045 14.73565418 10.87323273 16.31640625 11.7578125 C17.02224854 12.1408252 17.72809082 12.52383789 18.45532227 12.91845703 C18.96506592 13.27536621 19.47480957 13.63227539 20 14 C20 14.66 20 15.32 20 16 C15.08558588 14.56347895 10.99761642 12.45840385 6.625 9.875 C5.98433594 9.50246094 5.34367188 9.12992188 4.68359375 8.74609375 C3.11951523 7.83565998 1.55934466 6.91851809 0 6 C0 4.02 0 2.04 0 0 Z " fill="#F6F7F2" transform="translate(239,81)"/>
<path d="M0 0 C4.875 1.75 4.875 1.75 6 4 C6.06996014 5.70702735 6.08440154 7.41668003 6.0625 9.125 C6.05347656 10.03507812 6.04445312 10.94515625 6.03515625 11.8828125 C6.02355469 12.58148438 6.01195312 13.28015625 6 14 C4.078125 13.3828125 4.078125 13.3828125 2 12 C1.171875 9.1796875 1.171875 9.1796875 0.75 5.875 C0.60046875 4.77929688 0.4509375 3.68359375 0.296875 2.5546875 C0.19890625 1.71164063 0.1009375 0.86859375 0 0 Z " fill="#CADA39" transform="translate(237,64)"/>
<path d="M0 0 C-1.375 1.5 -1.375 1.5 -3 3 C-3.66 3 -4.32 3 -5 3 C-5 3.66 -5 4.32 -5 5 C-7.41267325 5.867242 -9.82904469 6.71896936 -12.25 7.5625 C-12.93191406 7.80935547 -13.61382812 8.05621094 -14.31640625 8.31054688 C-20.58342161 10.47053761 -20.58342161 10.47053761 -24 9 C-22.77023438 8.63648438 -22.77023438 8.63648438 -21.515625 8.265625 C-20.43796875 7.93046875 -19.3603125 7.5953125 -18.25 7.25 C-17.18265625 6.92515625 -16.1153125 6.6003125 -15.015625 6.265625 C-11.84363734 4.93437629 -10.2784168 3.52473213 -8 1 C-5.29120665 -0.35439668 -2.99066732 -0.06501451 0 0 Z " fill="#C8D978" transform="translate(164,297)"/>
<path d="M0 0 C4.95 0.99 9.9 1.98 15 3 C14.01 3.33 13.02 3.66 12 4 C12 4.66 12 5.32 12 6 C12.66 6.33 13.32 6.66 14 7 C9.46201017 6.45544122 5.18641799 5.89385576 1 4 C0.67 2.68 0.34 1.36 0 0 Z " fill="#758286" transform="translate(90,326)"/>
<path d="M0 0 C0.66 0.33 1.32 0.66 2 1 C1.34 6.94 0.68 12.88 0 19 C-0.33 19 -0.66 19 -1 19 C-1.33 17.02 -1.66 15.04 -2 13 C-2.66 13 -3.32 13 -4 13 C-4 12.34 -4 11.68 -4 11 C-5.32 10.34 -6.64 9.68 -8 9 C-6.02 8.67 -4.04 8.34 -2 8 C-1.34 5.36 -0.68 2.72 0 0 Z " fill="#93986D" transform="translate(173,263)"/>
<path d="M0 0 C-2.21226871 1.68279208 -4.44661466 3.31160651 -6.7265625 4.90234375 C-8.16128906 5.90974609 -8.16128906 5.90974609 -9.625 6.9375 C-10.58664063 7.60652344 -11.54828125 8.27554687 -12.5390625 8.96484375 C-14.89883432 10.91633759 -15.92739866 12.17968941 -17 15 C-17.8125 13.375 -17.8125 13.375 -18 11 C-14.54280457 5.51617276 -6.76109073 -2.25369691 0 0 Z " fill="#D4DD8B" transform="translate(82,252)"/>
<path d="M0 0 C0.66 0 1.32 0 2 0 C0.55613874 7.21930632 -1.57788174 14.05110733 -4 21 C-4.66 21 -5.32 21 -6 21 C-4.55613874 13.78069368 -2.42211826 6.94889267 0 0 Z " fill="#2E2E2E" transform="translate(228,234)"/>
<path d="M0 0 C1.73017508 0.45451184 3.45909877 0.91378857 5.1875 1.375 C6.15042969 1.63023437 7.11335937 1.88546875 8.10546875 2.1484375 C10.82210207 2.94766296 13.39137175 3.9031362 16 5 C16 5.33 16 5.66 16 6 C9.83381819 6.40214229 4.82254243 4.96818336 -1 3 C-0.67 2.01 -0.34 1.02 0 0 Z " fill="#DDE692" transform="translate(140,245)"/>
<path d="M0 0 C5.6131052 1.36075278 8.61031425 5.62621194 12 10 C13.32229189 12.64458379 13.09677194 14.67761301 13.0625 17.625 C13.05347656 18.62789062 13.04445313 19.63078125 13.03515625 20.6640625 C13.02355469 21.43492187 13.01195313 22.20578125 13 23 C12.34 23 11.68 23 11 23 C11.06960937 22.02160156 11.06960937 22.02160156 11.140625 21.0234375 C11.38533134 15.09804837 11.07900338 11.64553163 7 7 C5.00334686 5.31461399 5.00334686 5.31461399 3 4 C1.25 2.375 1.25 2.375 0 1 C0 0.67 0 0.34 0 0 Z " fill="#303131" transform="translate(103,162)"/>
<path d="M0 0 C-5.8 5.8 -5.8 5.8 -9 8 C-9.66 8 -10.32 8 -11 8 C-10.7215625 7.1028125 -10.7215625 7.1028125 -10.4375 6.1875 C-9.77906313 3.83591238 -9.77906313 3.83591238 -11 1 C-7.32589215 -0.17571451 -3.83070817 -0.07366746 0 0 Z " fill="#95B83D" transform="translate(159,296)"/>
<path d="M0 0 C1.32 0 2.64 0 4 0 C3.9175 1.27875 3.835 2.5575 3.75 3.875 C3.72768202 10.93864116 6.86274684 16.82441608 10 23 C9.34 23.66 8.68 24.32 8 25 C7.18325204 23.25197854 6.37176549 21.50149811 5.5625 19.75 C5.11003906 18.77546875 4.65757813 17.8009375 4.19140625 16.796875 C2.55681617 12.95960779 1.88086061 10.02901385 2.0625 5.875 C2.44913022 1.98538931 2.44913022 1.98538931 0 0 Z " fill="#454734" transform="translate(56,270)"/>
<path d="M0 0 C7.36401674 2.17573222 7.36401674 2.17573222 10 5 C10.92697339 7.65978159 11.45346162 10.22176322 12 13 C11.01 13.33 10.02 13.66 9 14 C8.67 11.36 8.34 8.72 8 6 C7.236875 5.71125 6.47375 5.4225 5.6875 5.125 C3 4 3 4 0 2 C0 1.34 0 0.68 0 0 Z " fill="#F5F6F1" transform="translate(225,48)"/>
<path d="M0 0 C0.82371094 0.10699219 1.64742188 0.21398437 2.49609375 0.32421875 C3.82447266 0.48664063 3.82447266 0.48664063 5.1796875 0.65234375 C6.54287109 0.83023437 6.54287109 0.83023437 7.93359375 1.01171875 C9.64158259 1.20233131 11.34989484 1.39008004 13.05859375 1.57421875 C14.33734375 1.71859375 15.61609375 1.86296875 16.93359375 2.01171875 C16.93359375 2.34171875 16.93359375 2.67171875 16.93359375 3.01171875 C9.48292074 4.05991229 3.22268355 3.92490718 -4.06640625 2.01171875 C-2.06640625 0.01171875 -2.06640625 0.01171875 0 0 Z " fill="#A4CA42" transform="translate(97.06640625,303.98828125)"/>
<path d="M0 0 C1.05711427 3.19957435 0.95184778 4.96645088 -0.21484375 8.109375 C-0.48876953 8.86347656 -0.76269531 9.61757812 -1.04492188 10.39453125 C-1.48674805 11.56048828 -1.48674805 11.56048828 -1.9375 12.75 C-2.22818359 13.54277344 -2.51886719 14.33554687 -2.81835938 15.15234375 C-3.53594814 17.10512629 -4.26670906 19.05305941 -5 21 C-6.22459572 16.93449603 -5.50260754 14.55220416 -4.1875 10.5 C-3.83042969 9.3759375 -3.47335938 8.251875 -3.10546875 7.09375 C-2.21340694 4.59723779 -1.25948452 2.32520219 0 0 Z " fill="#262626" transform="translate(248,245)"/>
<path d="M0 0 C-0.40683495 2.35964273 -0.89814339 3.85934088 -2.3125 5.8125 C-4 7 -4 7 -6.1875 6.6875 C-6.785625 6.460625 -7.38375 6.23375 -8 6 C-8 5.01 -8 4.02 -8 3 C-5.0936485 0.19744677 -4.21174952 0 0 0 Z " fill="#1A1A1A" transform="translate(96,171)"/>
<path d="M0 0 C1.32 0.66 2.64 1.32 4 2 C3.21625 2.268125 2.4325 2.53625 1.625 2.8125 C-1.28114923 3.84814432 -1.28114923 3.84814432 -3 7 C-3.38499891 8.65549531 -3.72793135 10.3222433 -4 12 C-4.66 12 -5.32 12 -6 12 C-6.3125 9.3125 -6.3125 9.3125 -6 6 C-3.5625 3.1875 -3.5625 3.1875 -1 1 C-0.67 0.67 -0.34 0.34 0 0 Z " fill="#CDE402" transform="translate(119,276)"/>
<path d="M0 0 C0.66 0 1.32 0 2 0 C3.65625 1.6796875 3.65625 1.6796875 5.5 3.875 C7.28933258 5.99035504 9.04019124 8.04019124 11 10 C10.34 10.66 9.68 11.32 9 12 C4.08029436 8.39221586 2.03059135 5.75334215 0 0 Z " fill="#858F92" transform="translate(74,312)"/>
<path d="M0 0 C1.98 0.66 3.96 1.32 6 2 C6.33 1.34 6.66 0.68 7 0 C7 0.99 7 1.98 7 3 C5.68 3 4.36 3 3 3 C3 4.32 3 5.64 3 7 C1.68 6.67 0.36 6.34 -1 6 C-0.67 4.02 -0.34 2.04 0 0 Z " fill="#D5DD8E" transform="translate(253,95)"/>
<path d="M0 0 C1.60746056 0.42523816 3.21089836 0.86570126 4.8125 1.3125 C6.15248047 1.67794922 6.15248047 1.67794922 7.51953125 2.05078125 C10.05247738 3.0200819 11.2716496 3.95009604 13 6 C8.15018224 6.34641555 5.1306623 5.59367168 1 3 C0.67 2.01 0.34 1.02 0 0 Z " fill="#BAC084" transform="translate(76,299)"/>
<path d="M0 0 C1.2065625 0.0309375 1.2065625 0.0309375 2.4375 0.0625 C2.7675 2.0425 3.0975 4.0225 3.4375 6.0625 C3.1075 5.4025 2.7775 4.7425 2.4375 4.0625 C0.05665122 3.21951426 0.05665122 3.21951426 -2.5625 3.0625 C-3.5525 3.7225 -4.5425 4.3825 -5.5625 5.0625 C-3.15007962 0.07683121 -3.15007962 0.07683121 0 0 Z " fill="#ADC256" transform="translate(121.5625,277.9375)"/>
<path d="M0 0 C0.66 0 1.32 0 2 0 C0.9318153 5.11365014 -0.23107476 10.07227969 -2 15 C-2.66 14.01 -3.32 13.02 -4 12 C-3.3203125 9.08203125 -3.3203125 9.08203125 -2.125 5.8125 C-1.73570312 4.72582031 -1.34640625 3.63914063 -0.9453125 2.51953125 C-0.63335937 1.68808594 -0.32140625 0.85664063 0 0 Z " fill="#E7E7E7" transform="translate(242,243)"/>
<path d="M0 0 C2.475 0.99 2.475 0.99 5 2 C4.01 2.495 4.01 2.495 3 3 C3 4.65 3 6.3 3 8 C2.01 7.67 1.02 7.34 0 7 C-0.38133299 5.0085944 -0.71325582 3.00720923 -1 1 C-0.67 0.67 -0.34 0.34 0 0 Z " fill="#D8E187" transform="translate(243,89)"/>
<path d="M0 0 C4.29 0.66 8.58 1.32 13 2 C13 2.33 13 2.66 13 3 C11.39679026 3.19551338 9.79237014 3.38111983 8.1875 3.5625 C7.29417969 3.66691406 6.40085937 3.77132813 5.48046875 3.87890625 C3 4 3 4 0 3 C0 2.01 0 1.02 0 0 Z " fill="#5E6D15" transform="translate(87,301)"/>
<path d="M0 0 C-0.33 2.97 -0.66 5.94 -1 9 C-1.33 9 -1.66 9 -2 9 C-2 6.69 -2 4.38 -2 2 C-4.71224618 3.61268692 -7.37352812 5.24901874 -10 7 C-8.2054392 2.26888516 -5.07937287 0 0 0 Z " fill="#A1BF45" transform="translate(104,252)"/>
<path d="M0 0 C0.62804292 2.38347437 1.07398134 4.60418095 1.375 7.0625 C2.02579704 10.1212461 2.58845267 11.11270209 5 13 C3.02 13.99 3.02 13.99 1 15 C0.855625 14.38125 0.71125 13.7625 0.5625 13.125 C0.06847775 10.96741678 0.06847775 10.96741678 -1 9 C-0.91348369 7.45386986 -0.75997364 5.91090613 -0.5625 4.375 C-0.46066406 3.55773437 -0.35882813 2.74046875 -0.25390625 1.8984375 C-0.17011719 1.27195312 -0.08632812 0.64546875 0 0 Z " fill="#4A5457" transform="translate(157,104)"/>
<path d="M0 0 C0 0.66 0 1.32 0 2 C-3.3 2.66 -6.6 3.32 -10 4 C-9.67 3.01 -9.34 2.02 -9 1 C-3.79245283 -1.26415094 -3.79245283 -1.26415094 0 0 Z " fill="#D9E28E" transform="translate(94,247)"/>
<path d="M0 0 C0.33 0.66 0.66 1.32 1 2 C1.66 2 2.32 2 3 2 C2.67 2.99 2.34 3.98 2 5 C0.68 5 -0.64 5 -2 5 C-2.33 6.32 -2.66 7.64 -3 9 C-3.33 7.35 -3.66 5.7 -4 4 C-3.34 4 -2.68 4 -2 4 C-1.34 2.68 -0.68 1.36 0 0 Z " fill="#72822B" transform="translate(81,291)"/>
<path d="M0 0 C2.67927341 4.01891012 2.15601248 6.24161923 2 11 C1.67 11 1.34 11 1 11 C0.67 9.02 0.34 7.04 0 5 C-0.66 5 -1.32 5 -2 5 C-2 4.34 -2 3.68 -2 3 C-3.32 2.34 -4.64 1.68 -6 1 C-4.02 0.67 -2.04 0.34 0 0 Z " fill="#91A849" transform="translate(171,271)"/>
<path d="M0 0 C0.639375 0.33 1.27875 0.66 1.9375 1 C3.76794567 2.07271225 3.76794567 2.07271225 5 2 C5.33 1.34 5.66 0.68 6 0 C8.10865385 3.47307692 8.10865385 3.47307692 7.55859375 6.140625 C7.37425781 6.75421875 7.18992188 7.3678125 7 8 C5.83035398 6.8572081 4.66435444 5.71068285 3.5 4.5625 C2.8503125 3.92441406 2.200625 3.28632813 1.53125 2.62890625 C0 1 0 1 0 0 Z " fill="#7E8B5A" transform="translate(165,255)"/>
<path d="M0 0 C0.99 0 1.98 0 3 0 C3.33 1.32 3.66 2.64 4 4 C3.01 4.33 2.02 4.66 1 5 C-0.20882096 7.00016466 -0.20882096 7.00016466 -1 9 C-1.09765625 2.84765625 -1.09765625 2.84765625 -1 1 C-0.67 0.67 -0.34 0.34 0 0 Z " fill="#ACC152" transform="translate(108,254)"/>
<path d="M0 0 C0.66 0.33 1.32 0.66 2 1 C1.745504 2.48206495 1.47088238 3.96068615 1.1875 5.4375 C1.03667969 6.26121094 0.88585937 7.08492187 0.73046875 7.93359375 C0.48941406 8.61550781 0.24835938 9.29742187 0 10 C-0.99 10.33 -1.98 10.66 -3 11 C-2.01 7.37 -1.02 3.74 0 0 Z " fill="#E8E8E8" transform="translate(218,236)"/>
<path d="M0 0 C2.64 0.99 5.28 1.98 8 3 C7.67 3.99 7.34 4.98 7 6 C4.69 5.01 2.38 4.02 0 3 C0 2.01 0 1.02 0 0 Z " fill="#545D09" transform="translate(79,297)"/>
<path d="M0 0 C0.33 0 0.66 0 1 0 C1.08114106 1.77007714 1.13925505 3.54122098 1.1875 5.3125 C1.23970703 6.79169922 1.23970703 6.79169922 1.29296875 8.30078125 C1 11 1 11 -0.51171875 12.85546875 C-1.00285156 13.23316406 -1.49398437 13.61085938 -2 14 C-1.43393721 9.30976546 -0.81462495 4.65499974 0 0 Z " fill="#ECF5A0" transform="translate(63,264)"/>
<path d="M0 0 C0 0.99 0 1.98 0 3 C-2.97 3 -5.94 3 -9 3 C-5.92807025 0.26939578 -4.09590633 -0.34132553 0 0 Z " fill="#A5B797" transform="translate(273,93)"/>
<path d="M0 0 C-1.32 0.33 -2.64 0.66 -4 1 C-4 1.66 -4 2.32 -4 3 C-6.31 3 -8.62 3 -11 3 C-11 2.34 -11 1.68 -11 1 C-7.26562152 0.12132271 -3.83225427 -0.08912219 0 0 Z " fill="#383F00" transform="translate(138,304)"/>
<path d="M0 0 C0.99 0.33 1.98 0.66 3 1 C2.34 3.97 1.68 6.94 1 10 C0.67 8.68 0.34 7.36 0 6 C-0.33 5.01 -0.66 4.02 -1 3 C-0.67 2.01 -0.34 1.02 0 0 Z " fill="#B2B2B2" transform="translate(234,244)"/>
<path d="M0 0 C0.33 0.99 0.66 1.98 1 3 C-0.65 4.65 -2.3 6.3 -4 8 C-4.66 7.67 -5.32 7.34 -6 7 C-4.77065985 3.31197956 -3.06140622 2.27643027 0 0 Z " fill="#657276" transform="translate(157,318)"/>
<path d="M0 0 C2.31 0 4.62 0 7 0 C5.68 1.65 4.36 3.3 3 5 C2.01 3.35 1.02 1.7 0 0 Z " fill="#A1C143" transform="translate(68,273)"/>
<path d="M0 0 C0.66 0.99 1.32 1.98 2 3 C1.125 5.6875 1.125 5.6875 0 8 C-1.32 7.67 -2.64 7.34 -4 7 C-3.34 7 -2.68 7 -2 7 C-1.34 4.69 -0.68 2.38 0 0 Z " fill="#BFD514" transform="translate(124,260)"/>
<path d="M0 0 C3.93673644 1.31224548 6.22719294 2.91910327 9 6 C8.67 6.66 8.34 7.32 8 8 C2.2699115 3.50884956 2.2699115 3.50884956 0 1 C0 0.67 0 0.34 0 0 Z " fill="#4B4B4B" transform="translate(103,162)"/>
<path d="M0 0 C2.31 0.33 4.62 0.66 7 1 C7.33 1.99 7.66 2.98 8 4 C5.69 3.67 3.38 3.34 1 3 C0.67 2.01 0.34 1.02 0 0 Z " fill="#A5B9C0" transform="translate(90,326)"/>
<path d="M0 0 C1.32 0 2.64 0 4 0 C3.67 1.32 3.34 2.64 3 4 C1.68 4 0.36 4 -1 4 C-0.67 2.68 -0.34 1.36 0 0 Z " fill="#D4EB01" transform="translate(148,267)"/>
<path d="M0 0 C0.99 0.33 1.98 0.66 3 1 C2.67 2.98 2.34 4.96 2 7 C1.01 6.34 0.02 5.68 -1 5 C-0.67 3.35 -0.34 1.7 0 0 Z " fill="#B0B0B0" transform="translate(244,260)"/>
<path d="M0 0 C0.66 0.99 1.32 1.98 2 3 C0.35 4.98 -1.3 6.96 -3 9 C-3 5.30581799 -1.71820705 3.22163822 0 0 Z " fill="#838F19" transform="translate(67,255)"/>
</svg>
