<svg width="19" height="17" viewBox="0 0 19 17" fill="none" xmlns="http://www.w3.org/2000/svg">
<path d="M14.3673 16.068C14.2254 16.0679 14.0857 16.0368 13.9601 15.9771L9.50011 13.8557L5.04009 15.9771C4.89556 16.0459 4.73266 16.0766 4.56981 16.066C4.40696 16.0553 4.25065 16.0037 4.11855 15.9169C3.98645 15.83 3.88383 15.7115 3.82229 15.5747C3.76075 15.4378 3.74275 15.2882 3.77031 15.1426L4.62224 10.6492L1.01415 7.46753C0.897264 7.36439 0.814595 7.23373 0.775484 7.0903C0.736373 6.94688 0.742379 6.79642 0.792824 6.65593C0.843268 6.51543 0.93614 6.3905 1.06094 6.29526C1.18575 6.20001 1.33751 6.13825 1.49907 6.11695L6.48546 5.46135L8.71523 1.37345C8.79583 1.24999 8.9106 1.14768 9.04823 1.0766C9.18587 1.00552 9.34161 0.96814 9.50008 0.96814C9.65856 0.96814 9.8143 1.00552 9.95193 1.0766C10.0896 1.14768 10.2043 1.24999 10.2849 1.37345L12.5147 5.46128L17.5011 6.11688C17.6627 6.13818 17.8144 6.19994 17.9392 6.29519C18.064 6.39043 18.1569 6.51536 18.2074 6.65586C18.2578 6.79635 18.2638 6.94681 18.2247 7.09023C18.1856 7.23365 18.1029 7.36432 17.986 7.46746L14.378 10.6492L15.2299 15.1425C15.2514 15.2561 15.2453 15.3727 15.2118 15.4839C15.1784 15.5952 15.1185 15.6985 15.0364 15.7867C14.9542 15.8748 14.8517 15.9456 14.7362 15.9942C14.6206 16.0428 14.4947 16.068 14.3673 16.068L14.3673 16.068Z" fill="#F8D20B"/>
</svg>
