<svg width="212" height="183" viewBox="0 0 212 183" fill="none" xmlns="http://www.w3.org/2000/svg">
<g clip-path="url(#clip0_386_2554)">
<path d="M4.88164 94.3575C11.7776 83.6492 28.0543 58.388 32.8378 51.183C33.2301 50.6012 33.7915 50.1179 34.4664 49.7808C35.1414 49.4437 35.9066 49.2644 36.6863 49.2607C64.814 48.9927 151.851 49.0578 175.308 49.2607C176.087 49.2638 176.851 49.4426 177.525 49.7792C178.199 50.1158 178.76 50.5986 179.152 51.1798C185.185 60.2669 209.523 98.1071 210.222 99.1936C210.222 100.11 210.001 102.29 209.901 104.142C209.884 104.364 209.815 104.581 209.697 104.779C209.58 104.977 209.417 105.153 209.218 105.295C209.02 105.437 208.79 105.543 208.542 105.606C208.295 105.668 208.035 105.687 207.779 105.66C206.178 114.901 204.495 124.13 202.729 133.346C202.605 133.939 202.242 134.475 201.704 134.86C201.166 135.244 200.488 135.451 199.79 135.445H12.2025C11.5043 135.451 10.8261 135.244 10.2881 134.86C9.75012 134.475 9.387 133.939 9.2631 133.346C7.49465 124.136 5.81637 114.913 4.22827 105.676C3.98436 105.676 3.71089 105.676 3.62811 105.676C3.24312 105.687 2.86865 105.567 2.58442 105.343C2.30018 105.118 2.12863 104.807 2.10628 104.475C2.03237 102.922 1.85646 101.056 1.79216 99.8871C1.76852 99.4441 1.88911 99.0043 2.14028 98.6175L4.88164 94.3575Z" fill="white"/>
<path d="M4.02528 104.141C3.89322 104.13 3.7601 104.131 3.62837 104.145C4.34457 103.629 3.65424 104.336 3.74146 104.178L3.88041 104.475L3.86563 104.18C3.86602 103.978 3.85393 103.776 3.82941 103.575C3.76955 102.676 3.69563 101.777 3.63207 100.878C3.51924 100.369 3.543 99.8441 3.70155 99.3439C3.79066 99.1858 3.88934 99.0318 3.99719 98.8827L5.80654 96.0722C7.83318 92.9247 9.86105 89.7772 11.8902 86.6297C17.0703 78.5892 22.2621 70.5548 27.4655 62.5265C29.4413 59.4811 31.4246 56.4399 33.4153 53.403C33.7538 52.8881 34.0635 52.3401 34.4501 51.8501C35.1596 50.9435 36.1973 50.798 37.374 50.7872C39.0858 50.7719 40.7975 50.7587 42.5093 50.7476C51.7921 50.6864 61.0768 50.6515 70.3635 50.643C81.9715 50.62 93.5792 50.6107 105.187 50.6149C116.71 50.6149 128.234 50.6268 139.759 50.6507C148.955 50.6689 158.152 50.6987 167.348 50.74C168.991 50.7485 170.635 50.7583 172.278 50.7693C173.812 50.7795 176.026 50.4548 177.198 51.4711C178.177 52.3197 178.803 53.7392 179.484 54.7779C180.402 56.1815 181.318 57.5852 182.232 58.9888C187.151 66.5479 192.049 74.1174 196.926 81.6973C200.608 87.4054 204.287 93.1153 207.962 98.8272C208.209 99.2066 208.453 99.5864 208.695 99.9666L208.453 99.1934C208.442 100.143 208.347 101.093 208.276 102.041C208.231 102.637 208.144 103.249 208.149 103.847C208.149 104.066 208.279 104.123 207.989 104.14C205.724 104.274 205.707 107.338 207.989 107.203C208.966 107.183 209.897 106.839 210.586 106.241C211.276 105.643 211.671 104.838 211.689 103.994C211.822 102.466 212.036 100.882 211.999 99.3484C211.88 98.6119 211.552 97.9122 211.044 97.3112C209.514 94.9323 207.982 92.5536 206.45 90.1751C201.364 82.2822 196.271 74.393 191.172 66.5077C188.831 62.8923 186.485 59.2769 184.133 55.6616C183.268 54.3358 182.399 53.0102 181.526 51.6849C181.141 51.043 180.706 50.4248 180.223 49.8347C179.637 49.1902 178.891 48.6667 178.041 48.3025C177.191 47.9382 176.257 47.7424 175.308 47.7292C167.41 47.474 159.462 47.6393 151.559 47.6163C140.046 47.5831 128.533 47.5633 117.02 47.557C104.565 47.548 92.1111 47.5506 79.6571 47.5646C69.0878 47.5778 58.5185 47.6069 47.9492 47.652C44.1213 47.6712 40.2062 47.4995 36.3873 47.7394C35.4272 47.7909 34.4929 48.029 33.6545 48.436C32.816 48.843 32.095 49.4084 31.5453 50.0899C31.1019 50.6462 30.739 51.2644 30.3517 51.8527C29.4155 53.2729 28.4852 54.695 27.5608 56.119C22.2155 64.3238 16.8979 72.5407 11.6078 80.7697C9.2062 84.4926 6.80655 88.2171 4.40888 91.9431L1.88555 95.8598C1.13683 97.0229 0.105032 98.2638 0.0215123 99.6215C-0.000290945 101.243 0.103663 102.865 0.332678 104.475C0.507108 106.248 2.04372 107.214 4.02823 107.204C6.31061 107.191 6.31504 104.129 4.02823 104.141H4.02528Z" fill="#211715"/>
<path d="M128.323 63.7243L127.934 64.7936C127.934 64.7936 125.593 71.5992 138.158 72.3431C150.723 73.087 166.434 72.9026 166.434 72.9026C173.579 72.9026 179.023 70.8253 180.288 69.6635C181.175 68.8488 181.249 67.5938 181.15 66.4786C181.124 65.6566 180.846 64.8554 180.343 64.1569C179.841 63.4584 179.133 62.8877 178.291 62.5031C179.148 62.0462 179.789 61.3398 180.097 60.5113C180.266 59.8814 180.221 59.2226 179.966 58.6145C178.945 56.4121 176.728 54.9217 174.223 53.9475C173.421 53.6355 172.571 53.4077 171.809 53.0288C170.347 52.3021 169.32 51.0847 168.217 49.981C167.115 48.8772 165.786 47.8079 164.12 47.5674C163.4 47.4822 162.666 47.5385 161.974 47.7323C161.282 47.9261 160.65 48.2522 160.125 48.6865C159.078 49.5688 158.403 50.7281 158.208 51.9799C155.199 50.8761 136.182 45.046 132.024 53.5526L128.323 63.7243Z" fill="#74C66D"/>
<path d="M133.558 54.3225C133.744 53.9455 133.966 53.5827 134.223 53.2379C134.417 52.9526 134.664 52.6969 134.955 52.4812C135.112 52.3479 135.276 52.2222 135.445 52.0984C135.661 51.9421 135.248 52.2196 135.476 52.0767C135.566 52.0212 135.655 51.967 135.747 51.914C136.141 51.69 136.554 51.4921 136.983 51.322C137.03 51.3035 137.295 51.2109 137.027 51.3041C137.133 51.2677 137.24 51.2314 137.347 51.1995C137.569 51.1357 137.783 51.0719 138.004 51.0132C138.458 50.8986 138.919 50.8043 139.384 50.7305C139.768 50.6615 140.157 50.6169 140.549 50.5972C141.082 50.5576 141.618 50.5378 142.154 50.5334C146.115 50.5769 150.044 51.1564 153.797 52.2509C154.574 52.4572 155.346 52.6777 156.112 52.9125C156.418 53.0069 156.722 53.1043 157.024 53.2047C157.216 53.2685 158.005 53.5499 157.313 53.2972C158.254 53.6405 159.703 53.4663 159.919 52.3823C160.279 50.5838 161.978 48.3348 164.456 49.2287C166.734 50.0498 167.94 52.39 169.82 53.6826C171.889 55.1072 174.631 55.4556 176.594 57.0576C177.377 57.6366 177.976 58.3781 178.335 59.2122C178.691 60.2681 177.925 60.818 177.038 61.419C176.708 61.7073 176.522 62.0963 176.522 62.5017C176.522 62.9072 176.708 63.2962 177.038 63.5844C177.376 63.8624 177.825 64.0174 178.292 64.0174C178.759 64.0174 179.208 63.8624 179.546 63.5844C180.631 62.9439 181.43 62.0028 181.81 60.9169C182.124 59.6907 181.914 58.4075 181.218 57.3045C180.005 55.4001 178.132 53.8712 175.861 52.9323C174.67 52.404 173.294 52.1214 172.207 51.4291C171.226 50.7052 170.341 49.8888 169.57 48.9951C167.767 47.18 165.41 45.6896 162.5 46.0635C159.276 46.4769 157.031 48.8918 156.498 51.5682L159.104 50.6533C156.002 49.5369 152.775 48.6963 149.475 48.1447C145.123 47.4008 140.149 46.9248 135.926 48.4063C133.519 49.1866 131.566 50.7571 130.495 52.7753C130.272 53.1289 130.214 53.5425 130.332 53.9318C130.45 54.3211 130.736 54.6568 131.131 54.8705C131.538 55.0726 132.021 55.1282 132.475 55.0254C132.929 54.9226 133.318 54.6696 133.558 54.3212V54.3225Z" fill="#211715"/>
<path d="M172.114 62.4401C171.86 62.4126 172.441 62.4937 172.523 62.5039C172.751 62.5415 172.978 62.5836 173.204 62.6315C173.84 62.7591 174.471 62.9064 175.094 63.0742C176.156 63.2879 177.163 63.6672 178.067 64.1933C178.758 64.6962 179.207 65.4019 179.33 66.1743C179.469 66.8665 179.585 67.9531 179.052 68.5611C179.002 68.6179 178.911 68.6593 178.869 68.718C178.693 68.9618 179.064 68.6255 178.842 68.7442C178.566 68.8916 178.302 69.0524 178.019 69.1908C177.328 69.5282 176.601 69.8072 175.848 70.024C173.586 70.7139 171.228 71.1409 168.835 71.2937C167.116 71.4066 165.382 71.4257 163.661 71.5125C161.392 71.6267 161.377 74.6898 163.661 74.5749C168.392 74.3363 173.122 74.2649 177.588 72.7177C179.394 72.0925 181.492 71.3141 182.37 69.7031C182.95 68.4971 183.13 67.1758 182.891 65.8864C182.652 64.5971 182.002 63.3904 181.015 62.4011C179.801 61.3989 178.313 60.6783 176.689 60.3066C175.205 59.865 173.672 59.5542 172.115 59.3789C171.646 59.3811 171.196 59.5431 170.864 59.8298C170.532 60.1165 170.344 60.5047 170.341 60.9101C170.353 61.3132 170.543 61.6972 170.873 61.9823C171.204 62.2674 171.648 62.4318 172.115 62.4413L172.114 62.4401Z" fill="#211715"/>
<path d="M88.6387 52.8591C86.1258 63.8436 83.9195 74.8831 81.8219 85.9314C81.1922 89.249 80.58 92.5682 79.9852 95.8888C79.875 96.2799 79.9418 96.6926 80.172 97.0427C80.4022 97.3928 80.7784 97.6539 81.224 97.7728C81.6776 97.8775 82.1608 97.824 82.5692 97.6238C82.9775 97.4236 83.2783 97.0928 83.4066 96.7029C85.4943 85.0006 87.79 73.3263 90.2936 61.6802C90.8657 59.0082 91.4545 56.3392 92.0601 53.6732C92.173 53.2819 92.1073 52.8682 91.8766 52.5176C91.6458 52.167 91.2677 51.9064 90.8206 51.7898C90.3671 51.6856 89.8844 51.7393 89.4763 51.9393C89.0683 52.1393 88.7675 52.4696 88.6387 52.8591Z" fill="#211715"/>
<path d="M64.9369 71.4804C64.2798 67.3972 60.4076 66.1358 56.7224 66.823C53.5679 67.5114 50.44 69.3195 51.1333 73.4244C51.6203 76.2903 54.409 78.5833 59.5141 77.7393C62.3382 77.2729 65.5179 75.0858 64.9369 71.4804Z" fill="#F2635F"/>
<path d="M66.6479 71.0731C66.4231 69.5555 65.6115 68.1477 64.3446 67.0778C63.0777 66.0078 61.4296 65.3382 59.667 65.1773C56.6307 64.8532 52.9935 65.8791 51.0282 67.966C49.9476 69.176 49.3274 70.6451 49.2531 72.1716C49.1787 73.6981 49.6537 75.207 50.6129 76.491C52.7674 79.223 56.7105 79.8948 60.279 79.1617C62.2534 78.7813 63.998 77.7897 65.1828 76.3743C66.3677 74.9588 66.9107 73.2177 66.7092 71.4801C66.6951 71.0779 66.5037 70.6955 66.1741 70.4109C65.8444 70.1263 65.4014 69.9611 64.9354 69.9489C64.4657 69.9513 64.0161 70.1133 63.684 70.4C63.352 70.6866 63.1642 71.0748 63.1615 71.4801C63.2567 72.0263 63.2492 72.5821 63.1393 73.1262C63.0987 73.2793 63.0491 73.4312 62.9915 73.5805C62.9871 73.5913 62.7639 74.0462 62.908 73.7833C62.7579 74.0512 62.585 74.309 62.3906 74.5547C62.1068 74.9203 62.602 74.3914 62.2487 74.704C62.1703 74.7735 62.1009 74.8475 62.0203 74.9171C61.9035 75.0204 61.7826 75.1198 61.6574 75.215C61.6352 75.2316 61.208 75.5143 61.4992 75.3331C61.2779 75.4714 61.0479 75.5992 60.8104 75.7159C60.67 75.7848 60.5236 75.8435 60.3817 75.9073C60.0934 76.0425 60.5502 75.8747 60.1474 75.994C59.2636 76.2755 58.3254 76.4076 57.3839 76.3832C57.222 76.3832 57.0609 76.3762 56.8997 76.3673C56.8056 76.3626 56.7118 76.3562 56.6181 76.3481C56.7842 76.3724 56.7608 76.3696 56.5479 76.3398C56.2366 76.2927 55.929 76.2288 55.627 76.1484C55.4962 76.1121 55.3668 76.0731 55.239 76.0304C55.593 76.1497 55.1214 75.9755 55.0823 75.9577C54.8568 75.8526 54.6378 75.7376 54.4259 75.6131C54.0335 75.3898 54.6477 75.8167 54.3158 75.5328C54.1769 75.4128 54.029 75.3024 53.896 75.1767C53.8302 75.1129 53.7681 75.0491 53.7046 74.9853C53.9714 75.2546 53.6735 74.9407 53.6358 74.8916C53.4917 74.6978 53.3599 74.4974 53.2411 74.2912C53.1946 74.214 53.0933 73.9505 53.2168 74.2523C53.1672 74.1323 53.1162 74.0143 53.0726 73.8924C52.9838 73.6475 52.9154 73.3974 52.8679 73.1441C52.8263 72.8691 52.8068 72.592 52.8095 72.3147C52.8095 72.2004 52.8095 72.085 52.8199 71.9708C52.8199 71.9708 52.8886 71.4361 52.8369 71.729C52.8932 71.4547 52.9707 71.184 53.0689 70.9187C53.0918 70.8517 53.2367 70.5627 53.1037 70.816C53.1931 70.6467 53.2943 70.4822 53.4067 70.3234C53.4754 70.2258 53.5494 70.132 53.6284 70.0382C53.7962 69.8322 53.3528 70.2788 53.6898 69.9744C53.9071 69.783 54.1222 69.5916 54.355 69.4117C54.4045 69.3728 54.6211 69.2414 54.3616 69.4028C54.4873 69.3243 54.6152 69.2484 54.7467 69.1757C55.0103 69.0311 55.2832 68.8996 55.5642 68.782C55.6063 68.7641 56.0816 68.5849 55.712 68.7182C55.8598 68.6665 56.0039 68.6193 56.1518 68.574C56.3981 68.4987 56.6465 68.4309 56.8968 68.3705C57.0513 68.3329 57.205 68.2997 57.3617 68.2716C57.3994 68.2652 57.9471 68.1899 57.5524 68.2352C57.8801 68.1987 58.2101 68.1799 58.5406 68.1791C58.8648 68.1762 59.1889 68.1909 59.511 68.2231C59.0986 68.181 59.6167 68.2467 59.6692 68.2557C59.8754 68.2927 60.0794 68.3373 60.2804 68.3909C60.3802 68.4177 60.4778 68.4496 60.5761 68.4764C60.7675 68.5402 60.7712 68.5402 60.5857 68.4764C60.6803 68.5134 60.7742 68.5517 60.8658 68.5932C61.1444 68.7145 61.4098 68.8571 61.6589 69.0193C61.3529 68.8165 61.752 69.1048 61.7823 69.1291C61.919 69.2407 62.0454 69.3588 62.1703 69.4794C62.3721 69.6708 61.9597 69.1884 62.2443 69.5597C62.3699 69.7231 62.4933 69.8864 62.602 70.0587C62.9307 70.6338 63.1416 71.2537 63.2251 71.891C63.354 72.281 63.6558 72.6115 64.065 72.811C64.4741 73.0104 64.9578 73.0626 65.4114 72.9565C65.8581 72.8395 66.2356 72.5787 66.4657 72.2281C66.6959 71.8776 66.7611 71.464 66.6479 71.0731Z" fill="#211715"/>
<path d="M68.0449 60.5842C68.1119 60.5238 68.1838 60.4675 68.26 60.4158L67.9015 60.655C68.07 60.5475 68.2526 60.4576 68.4455 60.3871L68.022 60.5408C68.3672 60.4211 68.7289 60.3402 69.0981 60.3003L68.6266 60.3552C69.0977 60.3038 69.5745 60.3038 70.0457 60.3552L69.5741 60.3003C69.935 60.3401 70.2887 60.4192 70.6266 60.5357L70.2031 60.3813C70.3866 60.4484 70.5603 60.5341 70.7205 60.6365L70.3613 60.3967C70.455 60.4601 70.5407 60.532 70.617 60.611L70.3391 60.301C70.3568 60.3201 70.3738 60.3399 70.3901 60.3603C70.6342 60.6966 71.0104 60.9457 71.45 61.0621C71.7901 61.1432 72.1505 61.135 72.4852 61.0384C72.8198 60.9417 73.1135 60.7611 73.3286 60.5197C73.5438 60.2782 73.6706 59.9869 73.6928 59.6829C73.7151 59.3789 73.6319 59.0761 73.4537 58.8131C72.9618 58.224 72.269 57.7821 71.4721 57.5492C70.8365 57.3582 70.1688 57.259 69.4958 57.2557C68.7794 57.209 68.0594 57.2879 67.3793 57.4878C66.6992 57.6877 66.073 58.0044 65.5386 58.4188C65.2104 58.7068 65.0273 59.095 65.0292 59.4989C65.0311 59.9029 65.2178 60.2898 65.5487 60.5754C65.8796 60.8611 66.3279 61.0223 66.7958 61.0239C67.2638 61.0256 67.7135 60.8675 68.0471 60.5842H68.0449Z" fill="#211715"/>
<path d="M38.3186 81.9413C38.3857 81.8807 38.4578 81.8244 38.5344 81.7728L38.1752 82.0121C38.3438 81.9045 38.5267 81.8145 38.7199 81.7441L38.2964 81.8985C38.6413 81.7785 39.0028 81.6974 39.3718 81.6574L38.9003 81.7122C39.3717 81.6609 39.8487 81.6609 40.3201 81.7122L39.8485 81.6574C40.2095 81.6972 40.5631 81.7764 40.901 81.8928L40.4768 81.7384C40.6603 81.8056 40.8339 81.8913 40.9942 81.9936L40.6357 81.7537C40.7292 81.8172 40.8147 81.8891 40.8907 81.9681L40.6135 81.658C40.6313 81.6771 40.6483 81.6969 40.6638 81.7173C40.9087 82.0533 41.285 82.3023 41.7244 82.4191C42.1857 82.5247 42.6767 82.4692 43.091 82.2647C43.4931 82.0564 43.7847 81.7206 43.9037 81.329C44.0226 80.9375 43.9593 80.5213 43.7274 80.1695C43.2349 79.5794 42.541 79.1368 41.7429 78.9037C41.1073 78.7127 40.4395 78.6135 39.7665 78.6102C39.05 78.5639 38.3301 78.6433 37.6501 78.8436C36.9701 79.044 36.3442 79.3611 35.81 79.7759C35.4818 80.0638 35.2988 80.4521 35.3007 80.856C35.3026 81.2599 35.4893 81.6469 35.8202 81.9325C36.1511 82.2181 36.5993 82.3793 37.0673 82.381C37.5353 82.3826 37.985 82.2246 38.3186 81.9413Z" fill="#211715"/>
<path d="M67.0232 90.0738C67.0903 90.0133 67.1621 89.9571 67.2383 89.9053L66.8799 90.1446C67.0485 90.037 67.2313 89.947 67.4246 89.8766L67.0003 90.0291C67.3456 89.9093 67.7073 89.8285 68.0765 89.7886L67.6049 89.8434C68.0763 89.7921 68.5533 89.7921 69.0248 89.8434L68.5532 89.7886C68.9142 89.83 69.2676 89.9109 69.605 90.0291L69.1814 89.8747C69.3651 89.9417 69.5388 90.0273 69.6988 90.1299L69.3396 89.89C69.4337 89.9532 69.5195 90.0251 69.5954 90.1044L69.3182 89.7943C69.3359 89.8135 69.3522 89.8332 69.3684 89.8537C69.6126 90.1899 69.9888 90.4391 70.4283 90.5555C70.7685 90.6368 71.129 90.6286 71.4638 90.5321C71.7986 90.4356 72.0924 90.255 72.3077 90.0135C72.5229 89.772 72.6498 89.4806 72.6721 89.1765C72.6944 88.8724 72.6111 88.5695 72.4328 88.3065C71.9403 87.7163 71.2465 87.2737 70.4483 87.0407C69.8124 86.8496 69.1444 86.7505 68.4712 86.7472C67.7548 86.7005 67.0348 86.7794 66.3547 86.9793C65.6746 87.1792 65.0485 87.4959 64.514 87.9103C64.1858 88.1982 64.0027 88.5865 64.0046 88.9904C64.0065 89.3943 64.1932 89.7813 64.5241 90.0669C64.855 90.3525 65.3033 90.5137 65.7712 90.5154C66.2392 90.517 66.6889 90.359 67.0225 90.0757L67.0232 90.0738Z" fill="#211715"/>
<path d="M136.574 72.3205C140.06 73.0482 143.732 72.6999 146.952 71.336C148.375 70.7476 149.634 69.9004 150.642 68.8527C151.649 67.805 152.383 66.5814 152.791 65.266C153.612 62.9854 153.655 60.5491 152.915 58.248C152.624 57.2323 151.478 55.1607 150 54.5794C149.34 54.3344 148.621 54.2314 147.905 54.2793C147.188 54.3272 146.496 54.5245 145.888 54.8544C142.699 56.9047 139.669 59.1336 136.818 61.5267C134.825 63.1754 132.984 64.9553 131.31 66.8502C131.006 67.1573 130.803 67.5293 130.723 67.9272C130.643 68.3252 130.688 68.7344 130.855 69.1119C130.996 69.6322 131.314 70.1042 131.768 70.4677C133.202 71.3689 134.839 72.0001 136.574 72.3205Z" fill="#F2635F"/>
<path d="M136.102 73.7966C138.518 74.3213 141.038 74.3727 143.48 73.9468C145.921 73.521 148.221 72.6289 150.211 71.3358C154.377 68.4897 155.807 63.5234 154.941 59.1371C154.572 57.2474 153.7 55.2255 151.992 53.9214C149.845 52.283 146.64 52.4789 144.437 53.8806C140.021 56.666 135.96 59.8477 132.321 63.3722C131.416 64.2328 130.567 65.1359 129.778 66.0774C129.362 66.5853 129.091 67.1709 128.987 67.7865C128.883 68.402 128.949 69.0301 129.179 69.6196C130.08 72.1544 133.382 73.1975 136.101 73.796C138.314 74.2834 139.258 71.3307 137.044 70.8427C136.122 70.6638 135.225 70.3983 134.37 70.0509C133.688 69.7542 132.86 69.4626 132.6 68.8055C132.34 68.1484 132.6 67.8842 133.118 67.303C133.659 66.6956 134.243 66.1125 134.829 65.5376C137.775 62.7077 140.989 60.0945 144.438 57.7252C145.735 56.8167 147.441 55.2198 149.298 55.9854C150.534 56.4958 151.106 58.1993 151.368 59.2475C152.155 62.4178 151.391 66.1584 148.624 68.482C145.649 70.9805 140.87 71.6382 137.048 70.8427C134.827 70.382 133.88 73.3341 136.102 73.7966Z" fill="#211715"/>
<path d="M141.244 64.2227C141.444 64.4409 141.657 64.6489 141.864 64.8607C142.203 65.1373 142.652 65.2915 143.119 65.2915C143.585 65.2915 144.034 65.1373 144.373 64.8607L144.65 64.5506C144.809 64.3162 144.893 64.0495 144.893 63.778L144.829 63.3709C144.747 63.1154 144.59 62.8826 144.373 62.6953C144.166 62.4822 143.952 62.2736 143.753 62.0573C143.414 61.7799 142.965 61.6252 142.499 61.6252C142.032 61.6252 141.583 61.7799 141.244 62.0573L140.967 62.3667C140.808 62.6011 140.724 62.8681 140.725 63.14L140.788 63.547C140.87 63.8025 141.027 64.0353 141.244 64.2227Z" fill="#211715"/>
<path d="M145.669 61.4969L146.819 61.7164C147.047 61.7798 147.292 61.7893 147.526 61.7438C147.761 61.7346 147.988 61.6719 148.186 61.562C148.388 61.4692 148.559 61.3335 148.683 61.1677C148.839 61.0206 148.949 60.8413 149.001 60.6471L149.064 60.2401C149.065 59.9683 148.981 59.7014 148.822 59.4668L148.545 59.1574C148.328 58.9697 148.058 58.8339 147.762 58.7631L146.612 58.5442C146.384 58.4805 146.139 58.471 145.905 58.5168C145.67 58.5254 145.443 58.5882 145.246 58.6986C145.043 58.791 144.872 58.9268 144.748 59.0929C144.592 59.2398 144.483 59.4192 144.431 59.6135L144.367 60.0206C144.367 60.2921 144.451 60.5588 144.609 60.7932L144.887 61.1033C145.104 61.2906 145.373 61.4262 145.669 61.4969Z" fill="#211715"/>
<path d="M153.836 72.684C157.323 73.4126 160.995 73.0647 164.215 71.7009C165.638 71.1124 166.896 70.2653 167.904 69.2175C168.912 68.1698 169.645 66.9463 170.054 65.6309C170.874 63.3501 170.917 60.9139 170.177 58.6128C169.887 57.5965 168.74 55.5255 167.262 54.9443C166.602 54.6992 165.883 54.5962 165.167 54.644C164.451 54.6917 163.759 54.889 163.151 55.2186C159.962 57.2698 156.933 59.4996 154.083 61.8934C152.09 63.5422 150.248 65.3221 148.574 67.217C148.27 67.524 148.067 67.896 147.987 68.294C147.907 68.6919 147.952 69.1011 148.119 69.4787C148.261 69.9988 148.579 70.4707 149.032 70.8345C150.466 71.7343 152.103 72.3644 153.836 72.684Z" fill="#F2635F"/>
<path d="M153.366 74.1602C155.781 74.6849 158.302 74.7363 160.744 74.3105C163.185 73.8847 165.485 72.9925 167.475 71.6994C171.641 68.8539 173.07 63.8877 172.206 59.5014C171.836 57.6116 170.965 55.5898 169.257 54.2857C167.109 52.6467 163.905 52.8425 161.701 54.2449C157.286 57.0304 153.224 60.2121 149.585 63.7365C148.681 64.597 147.832 65.4999 147.043 66.441C146.627 66.9491 146.356 67.5349 146.252 68.1505C146.148 68.7662 146.214 69.3943 146.444 69.9838C147.345 72.518 150.647 73.5611 153.365 74.1602C155.582 74.6477 156.522 71.695 154.308 71.2069C153.386 71.0276 152.489 70.7622 151.634 70.4151C150.953 70.1178 150.125 69.8263 149.865 69.1697C149.601 68.503 149.865 68.2485 150.382 67.6666C150.923 67.0592 151.507 66.4767 152.093 65.9019C155.039 63.0716 158.252 60.4584 161.701 58.0895C162.999 57.181 164.704 55.5834 166.561 56.3496C167.798 56.8601 168.369 58.5629 168.631 59.6111C169.418 62.782 168.655 66.522 165.888 68.8463C162.912 71.3447 158.134 72.0025 154.311 71.2069C152.09 70.7456 151.143 73.6958 153.366 74.1602Z" fill="#211715"/>
<path d="M154.051 66.4281C154.228 66.8211 154.363 67.2269 154.535 67.6218C154.675 67.9986 154.963 68.3218 155.348 68.5367C155.545 68.6466 155.773 68.7093 156.008 68.7186C156.242 68.764 156.486 68.7545 156.715 68.6911L157.139 68.5367C157.402 68.4039 157.621 68.2147 157.775 67.9874L157.954 67.6218C158.038 67.3553 158.038 67.0742 157.954 66.8077C157.782 66.4128 157.647 66.007 157.471 65.614C157.33 65.2373 157.043 64.914 156.658 64.6991C156.46 64.5886 156.232 64.5259 155.998 64.5173C155.763 64.4715 155.519 64.481 155.29 64.5447L154.867 64.6991C154.604 64.8323 154.385 65.0214 154.23 65.2485L154.051 65.614C153.967 65.8805 153.967 66.1616 154.051 66.4281Z" fill="#211715"/>
<path d="M158.51 64.5869C158.709 64.8051 158.924 65.0137 159.13 65.2249C159.469 65.5018 159.917 65.6562 160.384 65.6562C160.851 65.6562 161.3 65.5018 161.638 65.2249L161.916 64.9148C162.075 64.6805 162.159 64.4137 162.158 64.1422L162.095 63.7351C162.013 63.4796 161.856 63.2468 161.638 63.0595C161.432 62.8464 161.219 62.6378 161.018 62.4215C160.863 62.2742 160.667 62.1642 160.448 62.1025C160.123 61.9899 159.768 61.9601 159.424 62.0167C159.081 62.0732 158.763 62.2137 158.51 62.4215L158.233 62.7316C158.074 62.966 157.99 63.2326 157.99 63.5042L158.054 63.9112C158.135 64.1667 158.293 64.3995 158.51 64.5869Z" fill="#211715"/>
<path d="M162.933 61.861L164.082 62.0804C164.311 62.1439 164.555 62.1533 164.789 62.1079C165.024 62.0987 165.251 62.036 165.449 61.926C165.835 61.7116 166.122 61.3879 166.262 61.0105L166.325 60.6035C166.326 60.3319 166.242 60.0651 166.083 59.8308L165.806 59.5208C165.588 59.3334 165.319 59.1978 165.023 59.1271L163.874 58.9076C163.645 58.8441 163.401 58.8348 163.166 58.8808C162.931 58.8895 162.704 58.952 162.506 59.062C162.304 59.1548 162.133 59.2905 162.009 59.4563C161.853 59.6034 161.743 59.7831 161.692 59.9776L161.628 60.3846C161.627 60.6562 161.711 60.9229 161.87 61.1572L162.148 61.4673C162.365 61.6548 162.635 61.7904 162.93 61.861H162.933Z" fill="#211715"/>
<path d="M125.621 69.7817C123.184 70.1677 120.691 70.2065 118.239 69.8965C115.814 69.485 113.44 68.3174 112.315 66.4175C111.712 65.3378 111.531 64.1182 111.8 62.9421C112.068 61.7661 112.772 60.697 113.805 59.8958C114.434 59.43 115.168 59.0759 115.794 58.6057C117.203 57.5479 117.955 56.0026 118.85 54.5863C119.499 53.4739 120.384 52.4766 121.459 51.6463C122.549 50.8146 123.974 50.3858 125.427 50.452C126.903 50.6321 128.244 51.2901 129.178 52.2926C130.097 53.2894 130.866 54.3827 131.466 55.5465L132.857 57.9658C133.905 59.7873 134.98 61.8296 134.319 63.7812C133.756 65.1114 132.845 66.312 131.659 67.2902C130.055 68.7251 128.081 69.4065 125.617 69.7785" fill="#FEBE69"/>
<path d="M111.001 59.2319C111.171 59.5902 111.438 59.9076 111.781 60.1573C112.124 60.4071 112.531 60.5816 112.969 60.6662C113.215 60.3843 113.495 60.1261 113.805 59.8961C114.434 59.4304 115.168 59.0763 115.794 58.6061C117.203 57.5482 117.955 56.003 118.85 54.5866C119.404 53.6604 120.109 52.8075 120.943 52.0537C119.862 51.3866 118.591 50.9869 117.267 50.8977C115.942 50.8086 114.614 51.0333 113.427 51.5478C112.546 51.9102 111.795 52.471 111.253 53.1709C110.279 54.4992 110.383 56.1969 110.613 57.7569C110.665 58.2613 110.796 58.7574 111.001 59.2319Z" fill="#FCE0CD"/>
<path d="M119.894 49.846C116.75 48.8003 112.533 49.4121 110.312 51.716C109.196 52.9278 108.62 54.4439 108.686 55.9906C108.697 56.6302 108.757 57.2684 108.863 57.9015C108.936 58.7875 109.232 59.6492 109.728 60.4273C109.965 60.778 110.354 61.0329 110.809 61.136C111.265 61.2391 111.748 61.1819 112.155 60.977C112.561 60.7721 112.856 60.4362 112.976 60.0434C113.095 59.6505 113.029 59.2328 112.791 58.8821C112.746 58.8183 112.555 58.4993 112.675 58.7443C112.614 58.6125 112.565 58.4771 112.527 58.3391C112.485 58.2007 112.453 58.0603 112.423 57.9193C112.406 57.8351 112.349 57.4829 112.39 57.7598C112.303 57.2186 112.251 56.6735 112.236 56.1272C112.23 55.8547 112.253 55.5855 112.264 55.3131C112.278 54.9475 112.202 55.514 112.278 55.1855C112.309 55.0579 112.335 54.9245 112.373 54.7956C112.411 54.6668 112.463 54.5404 112.504 54.416C112.609 54.0887 112.383 54.5666 112.56 54.2935C112.634 54.1768 112.704 54.0575 112.788 53.9439C112.842 53.8699 112.899 53.7972 112.96 53.7263C112.854 53.845 112.841 53.8629 112.922 53.7799C113.034 53.6925 113.129 53.5885 113.239 53.4947C113.277 53.4641 113.627 53.2051 113.467 53.3148C113.307 53.4246 113.681 53.1911 113.726 53.1662C113.855 53.0941 113.987 53.0265 114.122 52.9633C114.257 52.9001 114.405 52.8421 114.545 52.7795C114.66 52.7342 114.644 52.74 114.495 52.7955C114.569 52.77 114.647 52.7451 114.723 52.7228C115.03 52.629 115.344 52.5531 115.662 52.4956C115.718 52.4854 116.195 52.4197 115.988 52.4414C115.781 52.4631 116.263 52.4255 116.318 52.4229C116.644 52.4075 116.969 52.4102 117.294 52.4312C117.375 52.4363 117.456 52.4427 117.537 52.4503C117.361 52.4278 117.338 52.4255 117.468 52.4433C117.627 52.4727 117.788 52.4937 117.946 52.5256C118.289 52.5967 118.626 52.6879 118.954 52.7987C119.408 52.9051 119.892 52.8524 120.3 52.6521C120.709 52.4518 121.009 52.1201 121.136 51.7294C121.248 51.3382 121.182 50.9247 120.952 50.5743C120.721 50.2238 120.344 49.9629 119.897 49.8454L119.894 49.846Z" fill="#211715"/>
<path d="M125.621 68.2501C121.945 68.6738 116.476 69.2709 114.117 66.0541C113.725 65.5011 113.496 64.873 113.451 64.2254C113.407 63.5778 113.548 62.9308 113.862 62.3415C114.671 60.7988 116.646 60.217 117.858 58.9601C119.245 57.522 119.981 55.7586 121.176 54.2153C122.154 52.9514 123.904 51.5522 125.819 52.0722C127.667 52.573 128.686 54.1993 129.515 55.5857C130.662 57.3039 131.638 59.1029 132.433 60.9635C132.828 61.851 132.844 62.831 132.479 63.7279C132.023 64.5842 131.392 65.3623 130.615 66.0248C129.14 67.2898 127.218 68.0925 125.153 68.305C124.702 68.4161 124.319 68.6758 124.087 69.0282C123.855 69.3806 123.793 69.7974 123.914 70.189C124.047 70.5758 124.349 70.9031 124.756 71.1023C125.163 71.3016 125.643 71.3575 126.096 71.2583C128.477 70.9523 130.707 70.0671 132.526 68.7063C134.497 67.147 136.266 64.9561 136.296 62.5757C136.33 60.1155 134.769 57.85 133.541 55.7152C132.314 53.5804 131.117 51.3436 128.761 49.9425C127.62 49.2776 126.273 48.9276 124.897 48.939C123.521 48.9504 122.181 49.3226 121.056 50.0063C118.741 51.3704 117.587 53.4669 116.276 55.5168C115.775 56.3978 115.052 57.1708 114.16 57.7792C113.072 58.3854 112.113 59.1475 111.322 60.0326C110.643 60.8971 110.193 61.8796 110.003 62.9109C109.812 63.9421 109.887 64.9968 110.221 66.0005C111.046 68.3739 113.316 70.02 115.912 70.9049C119 71.9576 122.408 71.6864 125.62 71.3164C126.086 71.3035 126.528 71.138 126.858 70.8536C127.187 70.5692 127.379 70.1872 127.394 69.7852C127.394 69.0425 126.577 68.1436 125.62 68.2539L125.621 68.2501Z" fill="#211715"/>
<path d="M104.127 66.0164C104.438 65.4293 104.901 64.9115 105.48 64.5025C106.647 63.7446 107.971 63.1865 109.38 62.8583C112.747 62.1795 120.074 61.3909 123.077 61.4879C123.443 61.5 124.851 61.6908 125.215 61.7201C125.437 61.7487 125.65 61.8137 125.843 61.9115C128.597 63.1416 130.789 65.1169 132.926 67.0564L144.94 77.9561C145.585 78.4188 146.013 79.0687 146.143 79.784C146.072 80.4757 145.703 81.1191 145.108 81.587C144.078 82.6851 142.741 83.5388 141.223 84.0676C139.851 84.3991 138.422 84.5201 137.002 84.4248C135.069 84.3921 133.136 84.3615 131.201 84.333C130.986 85.5241 129.49 86.2566 128.097 86.3331C126.704 86.4097 125.339 86.0179 123.958 85.847C118.814 85.2089 113.315 87.5913 108.527 85.8431C106.959 85.2543 105.457 84.5443 104.038 83.7218C101.544 82.2429 94.8915 78.485 92.1908 75.9547C90.5389 74.2678 88.7753 72.1439 89.5758 70.0455C90.4213 67.8297 93.6927 67.6969 96.3638 67.3416C98.809 67.0474 101.27 66.8651 103.738 66.7954L103.886 66.791C103.922 66.5241 104.003 66.2632 104.127 66.0164Z" fill="#AD7B59"/>
<path d="M105.893 67.6632C104.895 66.2411 107.412 65.1284 108.628 64.6856C110.196 64.2066 111.826 63.8936 113.482 63.7535C115.294 63.5111 117.115 63.3197 118.943 63.1793C120.46 63.0064 121.992 62.9651 123.518 63.0562C123.797 63.0842 124.171 63.1334 124.547 63.1774C124.735 63.1832 124.923 63.2046 125.107 63.2412C124.62 63.0887 125.51 63.4964 125.495 63.4913C126.522 64.0075 127.483 64.6143 128.365 65.3019C130.16 66.6788 131.774 68.2298 133.426 69.7297L139.182 74.9518L141.934 77.4496L143.185 78.5852C143.48 78.8558 144.24 79.3343 144.339 79.7305C144.486 80.3257 143.018 81.2821 142.555 81.6292C141.65 82.3277 140.511 82.76 139.303 82.8637C137.804 82.9373 136.301 82.9349 134.802 82.8567L130.041 82.7769C127.757 82.7387 127.757 85.8011 130.041 85.8394L134.985 85.9223C136.478 85.9952 137.974 85.9917 139.466 85.9121C140.905 85.7677 142.293 85.3697 143.546 84.7428C144.799 84.1159 145.889 83.2735 146.749 82.2678C147.286 81.7752 147.648 81.1603 147.793 80.4956C147.938 79.831 147.86 79.1444 147.567 78.517C146.965 77.3437 145.698 76.4256 144.69 75.5113L138.059 69.4943C135.983 67.6102 133.958 65.6662 131.783 63.8658C129.924 62.3269 127.477 60.4537 125.004 60.1654C121.046 59.7079 116.621 60.2508 112.536 60.7983C110.157 61.0064 107.843 61.5922 105.71 62.526C102.975 63.862 101.01 66.6124 102.831 69.2065C104.013 70.8902 107.081 69.3526 105.894 67.6607L105.893 67.6632Z" fill="#211715"/>
<path d="M129.111 77.6872C126.651 74.8336 123.831 72.2243 120.704 69.9073C119.249 68.7765 117.617 67.827 115.857 67.0867C114.035 66.3756 112.109 65.8819 110.132 65.6193C106.026 65.1384 101.863 65.1483 97.7601 65.6487C94.91 65.9383 91.0607 66.0136 88.975 67.9723C85.9601 70.8025 88.4931 74.6809 90.9321 77.0377C92.9425 78.9798 95.5922 80.5161 98.0372 82.0142C100.331 83.4975 102.718 84.87 105.188 86.1255C106.929 87.0346 108.857 87.6453 110.867 87.924C112.717 88.0745 114.581 88.0177 116.414 87.7549C118.593 87.41 120.806 87.255 123.021 87.2924C125.29 87.4276 127.524 88.2966 129.783 87.575C131.948 86.8841 133.44 85.1455 132.862 83.0988C132.516 82.1378 131.988 81.2325 131.302 80.4191C130.609 79.4845 129.874 78.5753 129.108 77.6846C128.861 77.3432 128.472 77.0961 128.021 76.9939C127.57 76.8918 127.091 76.9424 126.681 77.1353C126.278 77.3421 125.984 77.678 125.865 78.0702C125.746 78.4623 125.811 78.8792 126.045 79.2305C127.251 80.5142 128.31 81.8958 129.206 83.3559C129.395 83.7017 129.565 84.0092 129.295 84.3295C129.114 84.4842 128.898 84.6059 128.662 84.6875C128.425 84.769 128.171 84.8087 127.917 84.8042C127.027 84.8011 126.142 84.6981 125.284 84.4979C124.333 84.3315 123.367 84.2338 122.398 84.2057C120.657 84.2132 118.919 84.3433 117.203 84.5949C115.609 84.8267 113.995 84.9492 112.378 84.9611C110.829 84.9182 109.313 84.5638 107.95 83.9263C105.703 82.8671 103.542 81.6786 101.48 80.3687C99.2379 79.0774 97.0819 77.6779 95.0224 76.177C94.0554 75.4726 93.1921 74.6684 92.4518 73.7826C91.737 72.9015 90.7281 71.5713 91.2736 70.4465C91.6432 69.6847 92.7119 69.4422 93.6698 69.2547C94.8849 69.0173 96.1621 68.8846 97.3824 68.7443C100.807 68.3076 104.277 68.1959 107.73 68.4112C111.418 68.6108 114.943 69.7921 117.821 71.7927C120.884 73.9895 123.644 76.4833 126.047 79.2248C126.295 79.5659 126.683 79.8127 127.134 79.9148C127.585 80.0169 128.064 79.9666 128.474 79.7741C128.875 79.5674 129.167 79.233 129.286 78.8429C129.405 78.4528 129.342 78.0378 129.111 77.6872Z" fill="#211715"/>
<path d="M152.349 71.617L152.539 71.4422C152.8 69.9008 150.79 68.8168 149.676 68.813C148.559 68.8724 147.476 69.1659 146.52 69.6679C141.498 71.9462 135.334 77.6009 133.887 80.5179C133.642 81.0701 133.624 81.6783 133.837 82.2405C134.239 83.0087 134.817 83.6985 135.537 84.2681C135.678 84.3727 135.858 84.4305 136.044 84.4314C136.452 84.4384 136.671 84.053 136.961 83.8042C142.143 79.3605 147.58 75.9963 152.349 71.617Z" fill="#74C66D"/>
<path d="M153.603 72.6994C155.267 71.1644 153.836 68.8969 152.08 67.9443C150.136 66.8891 148.023 67.3248 146.074 68.1485C142.658 69.5917 139.643 71.9057 137.046 74.2734C135.812 75.3869 134.676 76.5779 133.646 77.8366C132.7 79.0055 131.812 80.3249 131.92 81.8057C132.036 83.4007 134.009 85.9623 136.045 85.9623C137.279 85.9623 137.935 85.1207 138.728 84.4527C139.651 83.675 140.597 82.9177 141.556 82.1725C145.595 79.0329 149.864 76.1115 153.604 72.6994C155.172 71.2677 152.668 69.0985 151.095 70.534C148.579 72.766 145.935 74.8873 143.172 76.8898C141.789 77.9215 140.405 78.9512 139.046 80.0065C138.351 80.5467 137.665 81.0941 136.986 81.6487C136.642 81.9314 136.296 82.2127 135.962 82.5036C135.812 82.6222 135.671 82.7487 135.54 82.8826C135.309 83.0812 135.32 83.1053 135.572 82.9547H136.514C136.651 83.0823 136.617 83.0491 136.408 82.8667C136.354 82.7967 136.287 82.7355 136.208 82.6861C136.053 82.5108 135.913 82.3261 135.788 82.1336C135.546 81.7821 135.365 81.5549 135.479 81.1702C135.774 80.5217 136.189 79.9185 136.706 79.3838C138.029 77.8053 139.532 76.3452 141.192 75.0256C142.856 73.6175 144.702 72.3799 146.695 71.3373C147.183 71.0821 147.688 70.8529 148.207 70.6508C148.575 70.5252 148.955 70.4268 149.343 70.3566L149.675 70.3458C149.469 70.3075 149.478 70.3094 149.701 70.3515C150.003 70.3894 150.277 70.5217 150.473 70.723C150.669 70.9244 150.773 71.1809 150.764 71.4438L151.281 70.3592L151.091 70.534C149.536 71.9733 152.04 74.1426 153.603 72.6994Z" fill="#211715"/>
<path d="M107.408 80.1689C107.544 79.8857 107.625 79.5853 107.649 79.2796C107.627 78.7442 107.471 78.2193 107.19 77.7413C106.725 76.7843 106.112 75.7099 104.947 75.4483C103.657 75.1574 102.439 76.0136 101.436 76.7709C98.4284 79.0393 95.0886 80.9563 91.5021 82.4728C91.2449 82.581 91.0189 82.7375 90.8406 82.9307C90.6624 83.124 90.5364 83.3492 90.4719 83.5898C90.4074 83.8305 90.4059 84.0805 90.4677 84.3217C90.5294 84.5629 90.6528 84.7892 90.8287 84.984C91.3436 85.6194 92.0045 86.1565 92.7704 86.5618C94.8528 87.3611 97.1064 87.7741 99.3854 87.774C100.347 87.814 101.305 87.6536 102.179 87.3063C103.21 86.7474 104.046 85.9579 104.598 85.0216C105.619 83.5641 106.513 82.0424 107.271 80.4694C107.319 80.3693 107.363 80.2672 107.408 80.1689Z" fill="#FEBE69"/>
<path d="M109.118 80.5761C109.792 78.9326 109.064 77.1308 107.992 75.7228C107.529 75.0203 106.808 74.4711 105.943 74.1622C105.078 73.8533 104.118 73.8024 103.215 74.0174C101.394 74.4901 100.021 75.8529 98.5737 76.8463C97.047 77.885 95.4393 78.8317 93.762 79.6797C92.9899 80.074 92.2045 80.4485 91.4058 80.8032C90.509 81.1138 89.7347 81.6405 89.1751 82.3204C88.0421 83.9154 88.9275 85.5372 90.2609 86.7622C91.6332 87.8825 93.363 88.6221 95.227 88.8855C97.2072 89.3252 99.2695 89.4183 101.292 89.1592C103.54 88.8121 104.993 87.4008 106.126 85.7931C107.295 84.1317 108.296 82.3862 109.118 80.5761C109.239 80.1846 109.177 79.7676 108.946 79.4152C108.714 79.0628 108.331 78.8032 107.879 78.6927C107.426 78.5942 106.946 78.6504 106.539 78.8495C106.133 79.0487 105.831 79.3755 105.696 79.762C105.163 80.903 104.544 82.0127 103.843 83.0841C103.336 84.0706 102.623 84.9682 101.74 85.7318C100.784 86.4043 99.2891 86.2767 98.145 86.2014C96.651 86.1106 95.1854 85.8037 93.8093 85.2935C93.4432 85.1578 93.1196 84.9492 92.8648 84.6848C92.6409 84.5006 92.4366 84.2995 92.2543 84.0838C92.2395 84.0641 92.1412 83.7999 92.1877 83.9735C92.1818 83.9518 92.3356 83.8082 92.221 83.888C92.406 83.7891 92.598 83.7004 92.796 83.6226C93.4652 83.3329 94.1252 83.0294 94.7761 82.7121C97.3801 81.4341 99.8397 79.9485 102.123 78.2748C102.656 77.8856 103.98 76.6504 104.636 76.986C105.048 77.1966 105.288 77.7886 105.477 78.1517C105.649 78.3895 105.758 78.6571 105.796 78.9355C105.834 79.2138 105.801 79.496 105.699 79.762C105.637 79.9559 105.62 80.1584 105.648 80.3581C105.677 80.5577 105.751 80.7504 105.866 80.9254C105.981 81.1003 106.135 81.2539 106.319 81.3775C106.503 81.5011 106.713 81.5922 106.938 81.6457C107.162 81.6992 107.397 81.7139 107.628 81.6891C107.86 81.6642 108.083 81.6003 108.286 81.501C108.488 81.4017 108.666 81.2689 108.809 81.1102C108.953 80.9515 109.058 80.77 109.12 80.5761H109.118Z" fill="#211715"/>
<path d="M206.276 104.083C204.757 112.854 203.169 121.616 201.511 130.369C201.412 130.883 201.313 131.398 201.215 131.913C201.181 132.369 201.09 132.82 200.942 133.259C200.814 133.488 200.605 133.675 200.345 133.793C200.084 133.911 199.787 133.955 199.496 133.917C198.457 133.934 197.414 133.917 196.373 133.917H19.143C16.8858 133.917 14.6012 134.005 12.3432 133.917C12.075 133.934 11.807 133.88 11.575 133.763C11.343 133.645 11.158 133.47 11.0446 133.259C10.8904 132.822 10.7988 132.37 10.7719 131.913C10.6625 131.341 10.5533 130.769 10.4444 130.197C10.032 128.023 9.62403 125.849 9.22047 123.675C8.41484 119.325 7.62916 114.973 6.86344 110.618C6.48157 108.44 6.10388 106.262 5.73039 104.084C5.60282 103.694 5.30224 103.363 4.89382 103.162C4.4854 102.962 4.00204 102.909 3.54853 103.014C3.10327 103.132 2.72719 103.393 2.49771 103.742C2.26824 104.092 2.20283 104.505 2.31495 104.895C3.85575 113.896 5.4818 122.887 7.19309 131.866C7.56264 133.808 7.88859 135.684 10.2005 136.587C11.5147 137.101 12.9951 136.975 14.4046 136.975H197.763C199.173 136.975 200.611 137.081 201.919 136.538C204.211 135.588 204.465 133.629 204.834 131.693C205.258 129.462 205.677 127.231 206.09 124.999C206.928 120.478 207.748 115.954 208.551 111.428C208.936 109.25 209.317 107.072 209.693 104.893C209.803 104.502 209.737 104.09 209.506 103.74C209.276 103.39 208.9 103.129 208.455 103.01C208.001 102.905 207.518 102.958 207.11 103.158C206.701 103.358 206.401 103.689 206.273 104.079L206.276 104.083Z" fill="#211715"/>
<path d="M186.413 90.4492C186.968 89.7051 187.338 88.8693 187.498 87.995C187.659 87.1207 187.606 86.2271 187.344 85.3713C186.9 83.5791 186.137 83.1325 184.851 81.6893C181.014 77.793 174.849 76.6044 168.955 75.902C163.141 75.2091 157.203 74.5182 151.438 75.4879C138.409 77.682 128.119 88.0241 114.847 88.2627C109.843 88.3527 102.461 87.1743 97.468 87.4697C92.4746 87.7651 89.4228 90.5111 89.5477 94.831L89.5876 96.1983C89.636 96.6303 89.731 97.0575 89.8714 97.4743C121.882 97.4928 156.539 97.4392 178.167 97.3256C181.327 95.4323 184.112 93.1102 186.413 90.4492Z" fill="#FEBE69"/>
<path d="M187.459 88.2214C187.632 87.2729 187.592 86.3046 187.343 85.3689C186.9 83.5761 186.138 83.1358 184.852 81.6876C184.636 81.4668 184.412 81.2541 184.18 81.0496C179.888 85.0052 172.128 89.6626 165.804 91.733C158.698 94.1871 151.317 96.0002 143.778 97.1433L141.659 97.4387C155.562 97.4138 168.238 97.3749 178.171 97.3219C181.329 95.4272 184.112 93.1048 186.412 90.4442C186.949 89.78 187.307 89.0205 187.459 88.2214Z" fill="white"/>
<path d="M144.252 98.6234C150.217 97.7434 156.08 96.4109 161.773 94.6416C164.255 93.8868 166.753 93.1263 169.139 92.1623C171.768 91.0837 174.293 89.8249 176.69 88.3981C179.361 86.8492 181.88 85.1115 184.218 83.2028C185.869 81.8362 183.359 79.6727 181.71 81.0374C177.727 84.3064 173.196 87.0381 168.27 89.1401C166.025 90.0534 163.72 90.8513 161.366 91.5294C158.765 92.3295 156.137 93.0702 153.478 93.7171C150.133 94.5338 146.738 95.1875 143.309 95.6752C142.857 95.7857 142.474 96.0454 142.242 96.3979C142.01 96.7505 141.949 97.1677 142.07 97.5592C142.205 97.9455 142.507 98.2722 142.913 98.4714C143.319 98.6705 143.799 98.7268 144.252 98.6285V98.6234Z" fill="#211715"/>
<path d="M174.484 88.5218C174.743 88.9621 174.97 89.415 175.197 89.8687C175.281 90.0365 175.363 90.2036 175.446 90.3714C175.587 90.656 175.276 90.0199 175.416 90.3076L175.53 90.543C175.707 90.9093 175.882 91.2767 176.054 91.6455C176.652 92.8272 177.164 94.0401 177.586 95.277C177.711 95.6687 178.011 96.0014 178.421 96.202C178.83 96.4026 179.315 96.4546 179.768 96.3467C180.222 96.2387 180.608 95.9796 180.84 95.6263C181.072 95.2731 181.133 94.8546 181.008 94.4629C180.575 93.1975 180.05 91.9569 179.436 90.7485C178.845 89.482 178.265 88.1926 177.548 86.9734C177.308 86.6249 176.919 86.372 176.465 86.2692C176.01 86.1664 175.528 86.222 175.121 86.4241C174.723 86.6357 174.435 86.9715 174.316 87.3617C174.198 87.7518 174.258 88.1664 174.484 88.5193V88.5218Z" fill="#211715"/>
<path d="M168.665 92.0836C169.088 92.7459 169.458 93.432 169.774 94.1373L169.595 93.7717C170.053 94.7109 170.506 95.6564 170.89 96.6211C171.015 97.0127 171.315 97.3454 171.724 97.546C172.134 97.7466 172.618 97.7987 173.072 97.6907C173.526 97.5827 173.911 97.3236 174.144 96.9704C174.376 96.6171 174.436 96.1986 174.311 95.807C173.964 94.9336 173.557 94.0761 173.146 93.2237C172.746 92.3011 172.273 91.4036 171.73 90.5377C171.612 90.3641 171.456 90.2122 171.27 90.0906C171.085 89.9691 170.873 89.8803 170.648 89.8293C170.423 89.7783 170.188 89.7662 169.957 89.7935C169.726 89.8209 169.504 89.8872 169.303 89.9887C169.102 90.0902 168.926 90.2249 168.785 90.3851C168.644 90.5453 168.541 90.7279 168.482 90.9224C168.423 91.117 168.409 91.3196 168.441 91.5189C168.472 91.7181 168.549 91.91 168.667 92.0836H168.665Z" fill="#211715"/>
<path d="M199.543 104.334H21.5081C19.1148 104.334 16.7179 104.299 14.3254 104.334C14.2227 104.334 14.1192 104.334 14.0165 104.334C11.7333 104.334 11.7296 107.397 14.0165 107.397H199.543C201.825 107.397 201.83 104.334 199.543 104.334Z" fill="#211715"/>
<path d="M37.3761 56.3132C33.6555 62.0336 30.2511 67.9135 26.812 73.7602C23.2007 79.9012 19.6227 86.056 16.0779 92.2247C15.2816 93.6075 14.4874 94.9898 13.695 96.3717C13.544 96.6054 13.4656 96.8687 13.4673 97.1362C13.4691 97.4038 13.5509 97.6664 13.705 97.8985C13.8591 98.1306 14.0801 98.3244 14.3465 98.461C14.613 98.5976 14.9159 98.6724 15.2257 98.6781C25.4107 98.9123 35.6089 98.8836 45.7961 98.9212C62.769 98.9833 79.7418 99.0116 96.7142 99.0061C113.599 99.0112 130.484 98.9967 147.37 98.9627C161.673 98.9314 175.978 98.9027 190.281 98.7713C192.704 98.7496 195.177 98.8351 197.594 98.6762C198.123 98.6649 198.635 98.5142 199.061 98.2445C199.488 97.9748 199.809 97.5989 199.981 97.1673C200.078 96.7984 200.088 96.4162 200.009 96.0439C199.93 95.6716 199.764 95.3171 199.522 95.0019C199.009 94.1151 198.498 93.2272 197.989 92.3383C194.856 86.8846 191.706 81.4386 188.374 76.0723C187.508 74.678 186.628 73.2908 185.733 71.9106C184.616 70.1918 181.55 71.7338 182.67 73.4565C186.249 78.9625 189.564 84.5961 192.83 90.2437C194.012 92.2853 195.175 94.3269 196.353 96.3654C196.402 96.4496 196.55 96.8451 196.658 96.8904C196.14 96.6722 198.119 95.8518 197.331 95.6189C197.238 95.6117 197.145 95.6136 197.053 95.6246C196.516 95.6348 195.979 95.6436 195.441 95.6508C194.179 95.6695 192.916 95.6846 191.654 95.6961C177.775 95.8339 163.896 95.8601 150.017 95.892C133.626 95.9302 117.236 95.9473 100.845 95.943C83.9978 95.943 67.1502 95.9194 50.3025 95.8722C39.2668 95.8371 28.2267 95.8339 17.1903 95.6514C16.5354 95.6408 15.8801 95.6283 15.2242 95.6138L16.7564 97.9176C18.8939 94.1617 21.0662 90.4204 23.2362 86.6785C27.1535 79.9227 31.0893 73.1751 35.1182 66.469C36.8536 63.582 38.592 60.6938 40.4398 57.8559C41.5588 56.1333 38.4952 54.59 37.3761 56.31V56.3132Z" fill="#211715"/>
<path d="M184.881 89.6742C182.753 92.1207 180.186 94.2572 177.276 96.0026L178.171 95.794C168.062 95.8467 157.951 95.8816 147.841 95.8986C135.627 95.9254 123.414 95.9403 111.2 95.9433C104.09 95.9458 96.9797 95.9458 89.8695 95.9433L91.5805 97.0675C90.8643 94.7662 91.2752 91.8996 93.2893 90.3512C95.5214 88.6343 99.197 88.8876 102.097 89.0401C106.097 89.2506 110.084 89.7827 114.096 89.8057C117.725 89.7883 121.316 89.1751 124.679 87.9988C131.683 85.6299 137.772 81.7215 144.598 79.04C148.113 77.6135 151.911 76.7791 155.789 76.5817C160.41 76.3903 165.067 76.9275 169.627 77.5247C173.742 78.0644 178.08 78.8537 181.487 81.042C182.308 81.5738 183.048 82.1912 183.693 82.8801C184.276 83.4238 184.788 84.0207 185.221 84.6602C185.664 85.4525 185.866 86.3295 185.806 87.2079C185.747 88.0863 185.428 88.9371 184.881 89.6794C183.613 91.3254 186.684 92.8605 187.944 91.2252C189.231 89.438 189.651 87.2858 189.116 85.2331C188.733 83.4377 187.584 82.2013 186.296 80.82C183.661 77.9936 179.671 76.3795 175.689 75.4607C171.118 74.4953 166.457 73.8834 161.76 73.6322C156.981 73.2011 152.151 73.5894 147.547 74.7749C139.83 76.9205 133.31 81.2188 126.034 84.1759C122.716 85.6175 119.1 86.4808 115.395 86.7165C111.256 86.8785 107.101 86.2813 102.983 86.0249C98.7772 85.7626 94.1349 85.5923 90.78 88.1813C87.7659 90.5075 87.1517 94.6399 88.1591 97.879C88.2671 98.1998 88.4916 98.4822 88.7995 98.6846C89.1074 98.887 89.4825 98.9987 89.8695 99.0032C104.18 99.0113 118.489 99.0059 132.799 98.9872C145.394 98.9706 157.99 98.9387 170.586 98.8915C172.09 98.8856 173.593 98.879 175.094 98.8717L177.122 98.8615C177.468 98.8615 177.823 98.8769 178.167 98.8564C178.763 98.7878 179.319 98.5603 179.757 98.2057C182.887 96.2562 185.647 93.8997 187.941 91.2201C188.174 90.8686 188.238 90.452 188.119 90.0601C188 89.6682 187.707 89.3323 187.304 89.1249C186.896 88.9295 186.416 88.8775 185.965 88.9798C185.513 89.0821 185.125 89.3309 184.881 89.6742Z" fill="#211715"/>
</g>
<defs>
<clipPath id="clip0_386_2554">
<rect width="212" height="183" fill="white"/>
</clipPath>
</defs>
</svg>